%TF.GenerationSoftware,KiCad,Pcbnew,(5.1.10)-1*%
%TF.CreationDate,2021-09-22T23:53:17+02:00*%
%TF.ProjectId,iso,69736f2e-6b69-4636-9164-5f7063625858,rev?*%
%TF.SameCoordinates,Original*%
%TF.FileFunction,Legend,Bot*%
%TF.FilePolarity,Positive*%
%FSLAX46Y46*%
G04 Gerber Fmt 4.6, Leading zero omitted, Abs format (unit mm)*
G04 Created by KiCad (PCBNEW (5.1.10)-1) date 2021-09-22 23:53:17*
%MOMM*%
%LPD*%
G01*
G04 APERTURE LIST*
%ADD10C,0.200000*%
%ADD11C,0.120000*%
%ADD12C,0.100000*%
%ADD13C,0.150000*%
G04 APERTURE END LIST*
D10*
X160114857Y-99729180D02*
X160114857Y-98729180D01*
X159686285Y-99681561D02*
X159543428Y-99729180D01*
X159305333Y-99729180D01*
X159210095Y-99681561D01*
X159162476Y-99633942D01*
X159114857Y-99538704D01*
X159114857Y-99443466D01*
X159162476Y-99348228D01*
X159210095Y-99300609D01*
X159305333Y-99252990D01*
X159495809Y-99205371D01*
X159591047Y-99157752D01*
X159638666Y-99110133D01*
X159686285Y-99014895D01*
X159686285Y-98919657D01*
X159638666Y-98824419D01*
X159591047Y-98776800D01*
X159495809Y-98729180D01*
X159257714Y-98729180D01*
X159114857Y-98776800D01*
X158495809Y-98729180D02*
X158305333Y-98729180D01*
X158210095Y-98776800D01*
X158114857Y-98872038D01*
X158067238Y-99062514D01*
X158067238Y-99395847D01*
X158114857Y-99586323D01*
X158210095Y-99681561D01*
X158305333Y-99729180D01*
X158495809Y-99729180D01*
X158591047Y-99681561D01*
X158686285Y-99586323D01*
X158733904Y-99395847D01*
X158733904Y-99062514D01*
X158686285Y-98872038D01*
X158591047Y-98776800D01*
X158495809Y-98729180D01*
X157495809Y-99729180D02*
X157591047Y-99681561D01*
X157638666Y-99586323D01*
X157638666Y-98729180D01*
X156686285Y-99729180D02*
X156686285Y-99205371D01*
X156733904Y-99110133D01*
X156829142Y-99062514D01*
X157019619Y-99062514D01*
X157114857Y-99110133D01*
X156686285Y-99681561D02*
X156781523Y-99729180D01*
X157019619Y-99729180D01*
X157114857Y-99681561D01*
X157162476Y-99586323D01*
X157162476Y-99491085D01*
X157114857Y-99395847D01*
X157019619Y-99348228D01*
X156781523Y-99348228D01*
X156686285Y-99300609D01*
X156352952Y-99062514D02*
X155972000Y-99062514D01*
X156210095Y-98729180D02*
X156210095Y-99586323D01*
X156162476Y-99681561D01*
X156067238Y-99729180D01*
X155972000Y-99729180D01*
X155638666Y-99729180D02*
X155638666Y-99062514D01*
X155638666Y-98729180D02*
X155686285Y-98776800D01*
X155638666Y-98824419D01*
X155591047Y-98776800D01*
X155638666Y-98729180D01*
X155638666Y-98824419D01*
X155019619Y-99729180D02*
X155114857Y-99681561D01*
X155162476Y-99633942D01*
X155210095Y-99538704D01*
X155210095Y-99252990D01*
X155162476Y-99157752D01*
X155114857Y-99110133D01*
X155019619Y-99062514D01*
X154876761Y-99062514D01*
X154781523Y-99110133D01*
X154733904Y-99157752D01*
X154686285Y-99252990D01*
X154686285Y-99538704D01*
X154733904Y-99633942D01*
X154781523Y-99681561D01*
X154876761Y-99729180D01*
X155019619Y-99729180D01*
X154257714Y-99062514D02*
X154257714Y-99729180D01*
X154257714Y-99157752D02*
X154210095Y-99110133D01*
X154114857Y-99062514D01*
X153972000Y-99062514D01*
X153876761Y-99110133D01*
X153829142Y-99205371D01*
X153829142Y-99729180D01*
X164924380Y-101429180D02*
X164924380Y-100429180D01*
X164829142Y-101048228D02*
X164543428Y-101429180D01*
X164543428Y-100762514D02*
X164924380Y-101143466D01*
X163733904Y-101381561D02*
X163829142Y-101429180D01*
X164019619Y-101429180D01*
X164114857Y-101381561D01*
X164162476Y-101286323D01*
X164162476Y-100905371D01*
X164114857Y-100810133D01*
X164019619Y-100762514D01*
X163829142Y-100762514D01*
X163733904Y-100810133D01*
X163686285Y-100905371D01*
X163686285Y-101000609D01*
X164162476Y-101095847D01*
X163352952Y-100762514D02*
X163114857Y-101429180D01*
X162876761Y-100762514D02*
X163114857Y-101429180D01*
X163210095Y-101667276D01*
X163257714Y-101714895D01*
X163352952Y-101762514D01*
X162495809Y-101429180D02*
X162495809Y-100429180D01*
X162495809Y-100810133D02*
X162400571Y-100762514D01*
X162210095Y-100762514D01*
X162114857Y-100810133D01*
X162067238Y-100857752D01*
X162019619Y-100952990D01*
X162019619Y-101238704D01*
X162067238Y-101333942D01*
X162114857Y-101381561D01*
X162210095Y-101429180D01*
X162400571Y-101429180D01*
X162495809Y-101381561D01*
X161448190Y-101429180D02*
X161543428Y-101381561D01*
X161591047Y-101333942D01*
X161638666Y-101238704D01*
X161638666Y-100952990D01*
X161591047Y-100857752D01*
X161543428Y-100810133D01*
X161448190Y-100762514D01*
X161305333Y-100762514D01*
X161210095Y-100810133D01*
X161162476Y-100857752D01*
X161114857Y-100952990D01*
X161114857Y-101238704D01*
X161162476Y-101333942D01*
X161210095Y-101381561D01*
X161305333Y-101429180D01*
X161448190Y-101429180D01*
X160257714Y-101429180D02*
X160257714Y-100905371D01*
X160305333Y-100810133D01*
X160400571Y-100762514D01*
X160591047Y-100762514D01*
X160686285Y-100810133D01*
X160257714Y-101381561D02*
X160352952Y-101429180D01*
X160591047Y-101429180D01*
X160686285Y-101381561D01*
X160733904Y-101286323D01*
X160733904Y-101191085D01*
X160686285Y-101095847D01*
X160591047Y-101048228D01*
X160352952Y-101048228D01*
X160257714Y-101000609D01*
X159781523Y-101429180D02*
X159781523Y-100762514D01*
X159781523Y-100952990D02*
X159733904Y-100857752D01*
X159686285Y-100810133D01*
X159591047Y-100762514D01*
X159495809Y-100762514D01*
X158733904Y-101429180D02*
X158733904Y-100429180D01*
X158733904Y-101381561D02*
X158829142Y-101429180D01*
X159019619Y-101429180D01*
X159114857Y-101381561D01*
X159162476Y-101333942D01*
X159210095Y-101238704D01*
X159210095Y-100952990D01*
X159162476Y-100857752D01*
X159114857Y-100810133D01*
X159019619Y-100762514D01*
X158829142Y-100762514D01*
X158733904Y-100810133D01*
X158305333Y-101381561D02*
X158210095Y-101429180D01*
X158019619Y-101429180D01*
X157924380Y-101381561D01*
X157876761Y-101286323D01*
X157876761Y-101238704D01*
X157924380Y-101143466D01*
X158019619Y-101095847D01*
X158162476Y-101095847D01*
X158257714Y-101048228D01*
X158305333Y-100952990D01*
X158305333Y-100905371D01*
X158257714Y-100810133D01*
X158162476Y-100762514D01*
X158019619Y-100762514D01*
X157924380Y-100810133D01*
X157448190Y-101333942D02*
X157400571Y-101381561D01*
X157448190Y-101429180D01*
X157495809Y-101381561D01*
X157448190Y-101333942D01*
X157448190Y-101429180D01*
X156591047Y-101381561D02*
X156686285Y-101429180D01*
X156876761Y-101429180D01*
X156972000Y-101381561D01*
X157019619Y-101286323D01*
X157019619Y-100905371D01*
X156972000Y-100810133D01*
X156876761Y-100762514D01*
X156686285Y-100762514D01*
X156591047Y-100810133D01*
X156543428Y-100905371D01*
X156543428Y-101000609D01*
X157019619Y-101095847D01*
X155972000Y-101429180D02*
X156067238Y-101381561D01*
X156114857Y-101286323D01*
X156114857Y-100429180D01*
X155591047Y-101429180D02*
X155591047Y-100762514D01*
X155591047Y-100857752D02*
X155543428Y-100810133D01*
X155448190Y-100762514D01*
X155305333Y-100762514D01*
X155210095Y-100810133D01*
X155162476Y-100905371D01*
X155162476Y-101429180D01*
X155162476Y-100905371D02*
X155114857Y-100810133D01*
X155019619Y-100762514D01*
X154876761Y-100762514D01*
X154781523Y-100810133D01*
X154733904Y-100905371D01*
X154733904Y-101429180D01*
X154114857Y-101429180D02*
X154210095Y-101381561D01*
X154257714Y-101333942D01*
X154305333Y-101238704D01*
X154305333Y-100952990D01*
X154257714Y-100857752D01*
X154210095Y-100810133D01*
X154114857Y-100762514D01*
X153972000Y-100762514D01*
X153876761Y-100810133D01*
X153829142Y-100857752D01*
X153781523Y-100952990D01*
X153781523Y-101238704D01*
X153829142Y-101333942D01*
X153876761Y-101381561D01*
X153972000Y-101429180D01*
X154114857Y-101429180D01*
X153352952Y-101333942D02*
X153305333Y-101381561D01*
X153352952Y-101429180D01*
X153400571Y-101381561D01*
X153352952Y-101333942D01*
X153352952Y-101429180D01*
X152924380Y-101381561D02*
X152829142Y-101429180D01*
X152638666Y-101429180D01*
X152543428Y-101381561D01*
X152495809Y-101286323D01*
X152495809Y-101238704D01*
X152543428Y-101143466D01*
X152638666Y-101095847D01*
X152781523Y-101095847D01*
X152876761Y-101048228D01*
X152924380Y-100952990D01*
X152924380Y-100905371D01*
X152876761Y-100810133D01*
X152781523Y-100762514D01*
X152638666Y-100762514D01*
X152543428Y-100810133D01*
X152067238Y-100762514D02*
X152067238Y-101762514D01*
X152067238Y-100810133D02*
X151972000Y-100762514D01*
X151781523Y-100762514D01*
X151686285Y-100810133D01*
X151638666Y-100857752D01*
X151591047Y-100952990D01*
X151591047Y-101238704D01*
X151638666Y-101333942D01*
X151686285Y-101381561D01*
X151781523Y-101429180D01*
X151972000Y-101429180D01*
X152067238Y-101381561D01*
X150733904Y-101429180D02*
X150733904Y-100905371D01*
X150781523Y-100810133D01*
X150876761Y-100762514D01*
X151067238Y-100762514D01*
X151162476Y-100810133D01*
X150733904Y-101381561D02*
X150829142Y-101429180D01*
X151067238Y-101429180D01*
X151162476Y-101381561D01*
X151210095Y-101286323D01*
X151210095Y-101191085D01*
X151162476Y-101095847D01*
X151067238Y-101048228D01*
X150829142Y-101048228D01*
X150733904Y-101000609D01*
X149829142Y-101381561D02*
X149924380Y-101429180D01*
X150114857Y-101429180D01*
X150210095Y-101381561D01*
X150257714Y-101333942D01*
X150305333Y-101238704D01*
X150305333Y-100952990D01*
X150257714Y-100857752D01*
X150210095Y-100810133D01*
X150114857Y-100762514D01*
X149924380Y-100762514D01*
X149829142Y-100810133D01*
X149019619Y-101381561D02*
X149114857Y-101429180D01*
X149305333Y-101429180D01*
X149400571Y-101381561D01*
X149448190Y-101286323D01*
X149448190Y-100905371D01*
X149400571Y-100810133D01*
X149305333Y-100762514D01*
X149114857Y-100762514D01*
X149019619Y-100810133D01*
X148972000Y-100905371D01*
X148972000Y-101000609D01*
X149448190Y-101095847D01*
D11*
%TO.C,C1*%
X160363780Y-76502800D02*
X160082620Y-76502800D01*
X160363780Y-77522800D02*
X160082620Y-77522800D01*
%TO.C,R5*%
X143067300Y-77605658D02*
X143067300Y-77131142D01*
X142022300Y-77605658D02*
X142022300Y-77131142D01*
%TO.C,R4*%
X144743700Y-77605658D02*
X144743700Y-77131142D01*
X143698700Y-77605658D02*
X143698700Y-77131142D01*
%TO.C,R3*%
X145375100Y-77131142D02*
X145375100Y-77605658D01*
X146420100Y-77131142D02*
X146420100Y-77605658D01*
%TO.C,R2*%
X164524458Y-67854300D02*
X164049942Y-67854300D01*
X164524458Y-68899300D02*
X164049942Y-68899300D01*
%TO.C,R1*%
X164524458Y-66177900D02*
X164049942Y-66177900D01*
X164524458Y-67222900D02*
X164049942Y-67222900D01*
%TO.C,D2*%
X143648800Y-74753600D02*
X141948800Y-74753600D01*
X141948800Y-74753600D02*
X141948800Y-72203600D01*
X143648800Y-74753600D02*
X143648800Y-72203600D01*
%TO.C,D1*%
X145731600Y-74753600D02*
X144031600Y-74753600D01*
X144031600Y-74753600D02*
X144031600Y-72203600D01*
X145731600Y-74753600D02*
X145731600Y-72203600D01*
%TO.C,C8*%
X147064000Y-77227820D02*
X147064000Y-77508980D01*
X148084000Y-77227820D02*
X148084000Y-77508980D01*
%TO.C,C7*%
X154484800Y-77508980D02*
X154484800Y-77227820D01*
X153464800Y-77508980D02*
X153464800Y-77227820D01*
D12*
%TO.C,LED3*%
G36*
X152772000Y-71085200D02*
G01*
X153672000Y-70185200D01*
X152772000Y-70185200D01*
X152772000Y-71085200D01*
G37*
X152772000Y-71085200D02*
X153672000Y-70185200D01*
X152772000Y-70185200D01*
X152772000Y-71085200D01*
%TO.C,LED2*%
G36*
X161509200Y-88223200D02*
G01*
X160609200Y-87323200D01*
X160609200Y-88223200D01*
X161509200Y-88223200D01*
G37*
X161509200Y-88223200D02*
X160609200Y-87323200D01*
X160609200Y-88223200D01*
X161509200Y-88223200D01*
D11*
%TO.C,F1*%
X164282800Y-77564064D02*
X164282800Y-76359936D01*
X162462800Y-77564064D02*
X162462800Y-76359936D01*
D12*
%TO.C,LED1*%
G36*
X152924400Y-94961200D02*
G01*
X153824400Y-94061200D01*
X152924400Y-94061200D01*
X152924400Y-94961200D01*
G37*
X152924400Y-94961200D02*
X153824400Y-94061200D01*
X152924400Y-94061200D01*
X152924400Y-94961200D01*
D11*
%TO.C,J1*%
X168141200Y-89698400D02*
X166021200Y-89698400D01*
X168141200Y-79638400D02*
X168141200Y-89698400D01*
X166021200Y-79638400D02*
X166021200Y-89698400D01*
X168141200Y-79638400D02*
X166021200Y-79638400D01*
X168141200Y-78638400D02*
X168141200Y-77578400D01*
X168141200Y-77578400D02*
X167081200Y-77578400D01*
%TO.C,USB1*%
X150240000Y-62465200D02*
X150240000Y-60565200D01*
X150240000Y-66365200D02*
X150240000Y-64365200D01*
X159640000Y-62465200D02*
X159640000Y-60565200D01*
X159640000Y-66365200D02*
X159640000Y-64365200D01*
X150240000Y-60565200D02*
X159640000Y-60565200D01*
D13*
%TO.C,U1*%
X143745800Y-84513000D02*
X143970800Y-84513000D01*
X143745800Y-91763000D02*
X144070800Y-91763000D01*
X150995800Y-91763000D02*
X150670800Y-91763000D01*
X150995800Y-84513000D02*
X150670800Y-84513000D01*
X143745800Y-84513000D02*
X143745800Y-84838000D01*
X150995800Y-84513000D02*
X150995800Y-84838000D01*
X150995800Y-91763000D02*
X150995800Y-91438000D01*
X143745800Y-91763000D02*
X143745800Y-91438000D01*
X143970800Y-84513000D02*
X143970800Y-83088000D01*
D11*
%TO.C,BOOT*%
X142500800Y-97270000D02*
X144620800Y-97270000D01*
X142500800Y-99330000D02*
X142500800Y-97270000D01*
X144620800Y-99330000D02*
X144620800Y-97270000D01*
X142500800Y-99330000D02*
X144620800Y-99330000D01*
X142500800Y-100330000D02*
X142500800Y-101390000D01*
X142500800Y-101390000D02*
X143560800Y-101390000D01*
%TO.C,X1*%
X152774400Y-75718400D02*
X152774400Y-79018400D01*
X152774400Y-79018400D02*
X148774400Y-79018400D01*
%TO.C,U2*%
X145485246Y-66855962D02*
X146758038Y-68128754D01*
X144481154Y-70405638D02*
X142748743Y-68673226D01*
%TO.C,C1*%
D13*
X160389866Y-75939942D02*
X160437485Y-75987561D01*
X160580342Y-76035180D01*
X160675580Y-76035180D01*
X160818438Y-75987561D01*
X160913676Y-75892323D01*
X160961295Y-75797085D01*
X161008914Y-75606609D01*
X161008914Y-75463752D01*
X160961295Y-75273276D01*
X160913676Y-75178038D01*
X160818438Y-75082800D01*
X160675580Y-75035180D01*
X160580342Y-75035180D01*
X160437485Y-75082800D01*
X160389866Y-75130419D01*
X159437485Y-76035180D02*
X160008914Y-76035180D01*
X159723200Y-76035180D02*
X159723200Y-75035180D01*
X159818438Y-75178038D01*
X159913676Y-75273276D01*
X160008914Y-75320895D01*
%TO.C,R5*%
X142997180Y-79690933D02*
X142520990Y-79357600D01*
X142997180Y-79119504D02*
X141997180Y-79119504D01*
X141997180Y-79500457D01*
X142044800Y-79595695D01*
X142092419Y-79643314D01*
X142187657Y-79690933D01*
X142330514Y-79690933D01*
X142425752Y-79643314D01*
X142473371Y-79595695D01*
X142520990Y-79500457D01*
X142520990Y-79119504D01*
X141997180Y-80595695D02*
X141997180Y-80119504D01*
X142473371Y-80071885D01*
X142425752Y-80119504D01*
X142378133Y-80214742D01*
X142378133Y-80452838D01*
X142425752Y-80548076D01*
X142473371Y-80595695D01*
X142568609Y-80643314D01*
X142806704Y-80643314D01*
X142901942Y-80595695D01*
X142949561Y-80548076D01*
X142997180Y-80452838D01*
X142997180Y-80214742D01*
X142949561Y-80119504D01*
X142901942Y-80071885D01*
%TO.C,R4*%
X144724380Y-79690933D02*
X144248190Y-79357600D01*
X144724380Y-79119504D02*
X143724380Y-79119504D01*
X143724380Y-79500457D01*
X143772000Y-79595695D01*
X143819619Y-79643314D01*
X143914857Y-79690933D01*
X144057714Y-79690933D01*
X144152952Y-79643314D01*
X144200571Y-79595695D01*
X144248190Y-79500457D01*
X144248190Y-79119504D01*
X144057714Y-80548076D02*
X144724380Y-80548076D01*
X143676761Y-80309980D02*
X144391047Y-80071885D01*
X144391047Y-80690933D01*
%TO.C,R3*%
X146400780Y-79690933D02*
X145924590Y-79357600D01*
X146400780Y-79119504D02*
X145400780Y-79119504D01*
X145400780Y-79500457D01*
X145448400Y-79595695D01*
X145496019Y-79643314D01*
X145591257Y-79690933D01*
X145734114Y-79690933D01*
X145829352Y-79643314D01*
X145876971Y-79595695D01*
X145924590Y-79500457D01*
X145924590Y-79119504D01*
X145400780Y-80024266D02*
X145400780Y-80643314D01*
X145781733Y-80309980D01*
X145781733Y-80452838D01*
X145829352Y-80548076D01*
X145876971Y-80595695D01*
X145972209Y-80643314D01*
X146210304Y-80643314D01*
X146305542Y-80595695D01*
X146353161Y-80548076D01*
X146400780Y-80452838D01*
X146400780Y-80167123D01*
X146353161Y-80071885D01*
X146305542Y-80024266D01*
%TO.C,R2*%
X166943066Y-68829180D02*
X167276400Y-68352990D01*
X167514495Y-68829180D02*
X167514495Y-67829180D01*
X167133542Y-67829180D01*
X167038304Y-67876800D01*
X166990685Y-67924419D01*
X166943066Y-68019657D01*
X166943066Y-68162514D01*
X166990685Y-68257752D01*
X167038304Y-68305371D01*
X167133542Y-68352990D01*
X167514495Y-68352990D01*
X166562114Y-67924419D02*
X166514495Y-67876800D01*
X166419257Y-67829180D01*
X166181161Y-67829180D01*
X166085923Y-67876800D01*
X166038304Y-67924419D01*
X165990685Y-68019657D01*
X165990685Y-68114895D01*
X166038304Y-68257752D01*
X166609733Y-68829180D01*
X165990685Y-68829180D01*
%TO.C,R1*%
X166892266Y-67203580D02*
X167225600Y-66727390D01*
X167463695Y-67203580D02*
X167463695Y-66203580D01*
X167082742Y-66203580D01*
X166987504Y-66251200D01*
X166939885Y-66298819D01*
X166892266Y-66394057D01*
X166892266Y-66536914D01*
X166939885Y-66632152D01*
X166987504Y-66679771D01*
X167082742Y-66727390D01*
X167463695Y-66727390D01*
X165939885Y-67203580D02*
X166511314Y-67203580D01*
X166225600Y-67203580D02*
X166225600Y-66203580D01*
X166320838Y-66346438D01*
X166416076Y-66441676D01*
X166511314Y-66489295D01*
%TO.C,D2*%
X143486095Y-71419980D02*
X143486095Y-70419980D01*
X143248000Y-70419980D01*
X143105142Y-70467600D01*
X143009904Y-70562838D01*
X142962285Y-70658076D01*
X142914666Y-70848552D01*
X142914666Y-70991409D01*
X142962285Y-71181885D01*
X143009904Y-71277123D01*
X143105142Y-71372361D01*
X143248000Y-71419980D01*
X143486095Y-71419980D01*
X142533714Y-70515219D02*
X142486095Y-70467600D01*
X142390857Y-70419980D01*
X142152761Y-70419980D01*
X142057523Y-70467600D01*
X142009904Y-70515219D01*
X141962285Y-70610457D01*
X141962285Y-70705695D01*
X142009904Y-70848552D01*
X142581333Y-71419980D01*
X141962285Y-71419980D01*
%TO.C,D1*%
X147111980Y-73328304D02*
X146111980Y-73328304D01*
X146111980Y-73566400D01*
X146159600Y-73709257D01*
X146254838Y-73804495D01*
X146350076Y-73852114D01*
X146540552Y-73899733D01*
X146683409Y-73899733D01*
X146873885Y-73852114D01*
X146969123Y-73804495D01*
X147064361Y-73709257D01*
X147111980Y-73566400D01*
X147111980Y-73328304D01*
X147111980Y-74852114D02*
X147111980Y-74280685D01*
X147111980Y-74566400D02*
X146111980Y-74566400D01*
X146254838Y-74471161D01*
X146350076Y-74375923D01*
X146397695Y-74280685D01*
%TO.C,C8*%
X147931142Y-79741733D02*
X147978761Y-79694114D01*
X148026380Y-79551257D01*
X148026380Y-79456019D01*
X147978761Y-79313161D01*
X147883523Y-79217923D01*
X147788285Y-79170304D01*
X147597809Y-79122685D01*
X147454952Y-79122685D01*
X147264476Y-79170304D01*
X147169238Y-79217923D01*
X147074000Y-79313161D01*
X147026380Y-79456019D01*
X147026380Y-79551257D01*
X147074000Y-79694114D01*
X147121619Y-79741733D01*
X147454952Y-80313161D02*
X147407333Y-80217923D01*
X147359714Y-80170304D01*
X147264476Y-80122685D01*
X147216857Y-80122685D01*
X147121619Y-80170304D01*
X147074000Y-80217923D01*
X147026380Y-80313161D01*
X147026380Y-80503638D01*
X147074000Y-80598876D01*
X147121619Y-80646495D01*
X147216857Y-80694114D01*
X147264476Y-80694114D01*
X147359714Y-80646495D01*
X147407333Y-80598876D01*
X147454952Y-80503638D01*
X147454952Y-80313161D01*
X147502571Y-80217923D01*
X147550190Y-80170304D01*
X147645428Y-80122685D01*
X147835904Y-80122685D01*
X147931142Y-80170304D01*
X147978761Y-80217923D01*
X148026380Y-80313161D01*
X148026380Y-80503638D01*
X147978761Y-80598876D01*
X147931142Y-80646495D01*
X147835904Y-80694114D01*
X147645428Y-80694114D01*
X147550190Y-80646495D01*
X147502571Y-80598876D01*
X147454952Y-80503638D01*
%TO.C,C7*%
X155805142Y-77201733D02*
X155852761Y-77154114D01*
X155900380Y-77011257D01*
X155900380Y-76916019D01*
X155852761Y-76773161D01*
X155757523Y-76677923D01*
X155662285Y-76630304D01*
X155471809Y-76582685D01*
X155328952Y-76582685D01*
X155138476Y-76630304D01*
X155043238Y-76677923D01*
X154948000Y-76773161D01*
X154900380Y-76916019D01*
X154900380Y-77011257D01*
X154948000Y-77154114D01*
X154995619Y-77201733D01*
X154900380Y-77535066D02*
X154900380Y-78201733D01*
X155900380Y-77773161D01*
%TO.C,F1*%
X165121371Y-76628666D02*
X165121371Y-76295333D01*
X165645180Y-76295333D02*
X164645180Y-76295333D01*
X164645180Y-76771523D01*
X165645180Y-77676285D02*
X165645180Y-77104857D01*
X165645180Y-77390571D02*
X164645180Y-77390571D01*
X164788038Y-77295333D01*
X164883276Y-77200095D01*
X164930895Y-77104857D01*
%TO.C,J1*%
X171478533Y-83526380D02*
X171478533Y-84240666D01*
X171526152Y-84383523D01*
X171621390Y-84478761D01*
X171764247Y-84526380D01*
X171859485Y-84526380D01*
X170478533Y-84526380D02*
X171049961Y-84526380D01*
X170764247Y-84526380D02*
X170764247Y-83526380D01*
X170859485Y-83669238D01*
X170954723Y-83764476D01*
X171049961Y-83812095D01*
%TO.C,USB1*%
X156678095Y-63917580D02*
X156678095Y-64727104D01*
X156630476Y-64822342D01*
X156582857Y-64869961D01*
X156487619Y-64917580D01*
X156297142Y-64917580D01*
X156201904Y-64869961D01*
X156154285Y-64822342D01*
X156106666Y-64727104D01*
X156106666Y-63917580D01*
X155678095Y-64869961D02*
X155535238Y-64917580D01*
X155297142Y-64917580D01*
X155201904Y-64869961D01*
X155154285Y-64822342D01*
X155106666Y-64727104D01*
X155106666Y-64631866D01*
X155154285Y-64536628D01*
X155201904Y-64489009D01*
X155297142Y-64441390D01*
X155487619Y-64393771D01*
X155582857Y-64346152D01*
X155630476Y-64298533D01*
X155678095Y-64203295D01*
X155678095Y-64108057D01*
X155630476Y-64012819D01*
X155582857Y-63965200D01*
X155487619Y-63917580D01*
X155249523Y-63917580D01*
X155106666Y-63965200D01*
X154344761Y-64393771D02*
X154201904Y-64441390D01*
X154154285Y-64489009D01*
X154106666Y-64584247D01*
X154106666Y-64727104D01*
X154154285Y-64822342D01*
X154201904Y-64869961D01*
X154297142Y-64917580D01*
X154678095Y-64917580D01*
X154678095Y-63917580D01*
X154344761Y-63917580D01*
X154249523Y-63965200D01*
X154201904Y-64012819D01*
X154154285Y-64108057D01*
X154154285Y-64203295D01*
X154201904Y-64298533D01*
X154249523Y-64346152D01*
X154344761Y-64393771D01*
X154678095Y-64393771D01*
X153154285Y-64917580D02*
X153725714Y-64917580D01*
X153440000Y-64917580D02*
X153440000Y-63917580D01*
X153535238Y-64060438D01*
X153630476Y-64155676D01*
X153725714Y-64203295D01*
%TO.C,U1*%
X147980304Y-87539580D02*
X147980304Y-88349104D01*
X147932685Y-88444342D01*
X147885066Y-88491961D01*
X147789828Y-88539580D01*
X147599352Y-88539580D01*
X147504114Y-88491961D01*
X147456495Y-88444342D01*
X147408876Y-88349104D01*
X147408876Y-87539580D01*
X146408876Y-88539580D02*
X146980304Y-88539580D01*
X146694590Y-88539580D02*
X146694590Y-87539580D01*
X146789828Y-87682438D01*
X146885066Y-87777676D01*
X146980304Y-87825295D01*
%TO.C,BOOT*%
X145715028Y-100620342D02*
X145667409Y-100477485D01*
X145619790Y-100429866D01*
X145524552Y-100382247D01*
X145381695Y-100382247D01*
X145286457Y-100429866D01*
X145238838Y-100477485D01*
X145191219Y-100572723D01*
X145191219Y-100953676D01*
X146191219Y-100953676D01*
X146191219Y-100620342D01*
X146143600Y-100525104D01*
X146095980Y-100477485D01*
X146000742Y-100429866D01*
X145905504Y-100429866D01*
X145810266Y-100477485D01*
X145762647Y-100525104D01*
X145715028Y-100620342D01*
X145715028Y-100953676D01*
X146191219Y-99763200D02*
X146191219Y-99572723D01*
X146143600Y-99477485D01*
X146048361Y-99382247D01*
X145857885Y-99334628D01*
X145524552Y-99334628D01*
X145334076Y-99382247D01*
X145238838Y-99477485D01*
X145191219Y-99572723D01*
X145191219Y-99763200D01*
X145238838Y-99858438D01*
X145334076Y-99953676D01*
X145524552Y-100001295D01*
X145857885Y-100001295D01*
X146048361Y-99953676D01*
X146143600Y-99858438D01*
X146191219Y-99763200D01*
X146191219Y-98715580D02*
X146191219Y-98525104D01*
X146143600Y-98429866D01*
X146048361Y-98334628D01*
X145857885Y-98287009D01*
X145524552Y-98287009D01*
X145334076Y-98334628D01*
X145238838Y-98429866D01*
X145191219Y-98525104D01*
X145191219Y-98715580D01*
X145238838Y-98810819D01*
X145334076Y-98906057D01*
X145524552Y-98953676D01*
X145857885Y-98953676D01*
X146048361Y-98906057D01*
X146143600Y-98810819D01*
X146191219Y-98715580D01*
X146191219Y-98001295D02*
X146191219Y-97429866D01*
X145191219Y-97715580D02*
X146191219Y-97715580D01*
%TO.C,X1*%
X151583923Y-74469101D02*
X150917257Y-75469101D01*
X150917257Y-74469101D02*
X151583923Y-75469101D01*
X150012495Y-75469101D02*
X150583923Y-75469101D01*
X150298209Y-75469101D02*
X150298209Y-74469101D01*
X150393447Y-74611959D01*
X150488685Y-74707197D01*
X150583923Y-74754816D01*
%TO.C,U2*%
X147737973Y-67055122D02*
X147165553Y-67627542D01*
X147064538Y-67661214D01*
X146997194Y-67661214D01*
X146896179Y-67627542D01*
X146761492Y-67492855D01*
X146727820Y-67391840D01*
X146727820Y-67324496D01*
X146761492Y-67223481D01*
X147333912Y-66651061D01*
X146963522Y-66415359D02*
X146963522Y-66348016D01*
X146929851Y-66247000D01*
X146761492Y-66078642D01*
X146660477Y-66044970D01*
X146593133Y-66044970D01*
X146492118Y-66078642D01*
X146424774Y-66145985D01*
X146357431Y-66280672D01*
X146357431Y-67088794D01*
X145919698Y-66651061D01*
%TD*%
M02*
