%TF.GenerationSoftware,KiCad,Pcbnew,(5.1.10)-1*%
%TF.CreationDate,2021-09-22T13:41:13+02:00*%
%TF.ProjectId,iso,69736f2e-6b69-4636-9164-5f7063625858,rev?*%
%TF.SameCoordinates,Original*%
%TF.FileFunction,Legend,Bot*%
%TF.FilePolarity,Positive*%
%FSLAX46Y46*%
G04 Gerber Fmt 4.6, Leading zero omitted, Abs format (unit mm)*
G04 Created by KiCad (PCBNEW (5.1.10)-1) date 2021-09-22 13:41:13*
%MOMM*%
%LPD*%
G01*
G04 APERTURE LIST*
%ADD10C,0.200000*%
%ADD11C,0.120000*%
%ADD12C,0.150000*%
G04 APERTURE END LIST*
D10*
X160064057Y-99373580D02*
X160064057Y-98373580D01*
X159635485Y-99325961D02*
X159492628Y-99373580D01*
X159254533Y-99373580D01*
X159159295Y-99325961D01*
X159111676Y-99278342D01*
X159064057Y-99183104D01*
X159064057Y-99087866D01*
X159111676Y-98992628D01*
X159159295Y-98945009D01*
X159254533Y-98897390D01*
X159445009Y-98849771D01*
X159540247Y-98802152D01*
X159587866Y-98754533D01*
X159635485Y-98659295D01*
X159635485Y-98564057D01*
X159587866Y-98468819D01*
X159540247Y-98421200D01*
X159445009Y-98373580D01*
X159206914Y-98373580D01*
X159064057Y-98421200D01*
X158445009Y-98373580D02*
X158254533Y-98373580D01*
X158159295Y-98421200D01*
X158064057Y-98516438D01*
X158016438Y-98706914D01*
X158016438Y-99040247D01*
X158064057Y-99230723D01*
X158159295Y-99325961D01*
X158254533Y-99373580D01*
X158445009Y-99373580D01*
X158540247Y-99325961D01*
X158635485Y-99230723D01*
X158683104Y-99040247D01*
X158683104Y-98706914D01*
X158635485Y-98516438D01*
X158540247Y-98421200D01*
X158445009Y-98373580D01*
X157445009Y-99373580D02*
X157540247Y-99325961D01*
X157587866Y-99230723D01*
X157587866Y-98373580D01*
X156635485Y-99373580D02*
X156635485Y-98849771D01*
X156683104Y-98754533D01*
X156778342Y-98706914D01*
X156968819Y-98706914D01*
X157064057Y-98754533D01*
X156635485Y-99325961D02*
X156730723Y-99373580D01*
X156968819Y-99373580D01*
X157064057Y-99325961D01*
X157111676Y-99230723D01*
X157111676Y-99135485D01*
X157064057Y-99040247D01*
X156968819Y-98992628D01*
X156730723Y-98992628D01*
X156635485Y-98945009D01*
X156302152Y-98706914D02*
X155921200Y-98706914D01*
X156159295Y-98373580D02*
X156159295Y-99230723D01*
X156111676Y-99325961D01*
X156016438Y-99373580D01*
X155921200Y-99373580D01*
X155587866Y-99373580D02*
X155587866Y-98706914D01*
X155587866Y-98373580D02*
X155635485Y-98421200D01*
X155587866Y-98468819D01*
X155540247Y-98421200D01*
X155587866Y-98373580D01*
X155587866Y-98468819D01*
X154968819Y-99373580D02*
X155064057Y-99325961D01*
X155111676Y-99278342D01*
X155159295Y-99183104D01*
X155159295Y-98897390D01*
X155111676Y-98802152D01*
X155064057Y-98754533D01*
X154968819Y-98706914D01*
X154825961Y-98706914D01*
X154730723Y-98754533D01*
X154683104Y-98802152D01*
X154635485Y-98897390D01*
X154635485Y-99183104D01*
X154683104Y-99278342D01*
X154730723Y-99325961D01*
X154825961Y-99373580D01*
X154968819Y-99373580D01*
X154206914Y-98706914D02*
X154206914Y-99373580D01*
X154206914Y-98802152D02*
X154159295Y-98754533D01*
X154064057Y-98706914D01*
X153921200Y-98706914D01*
X153825961Y-98754533D01*
X153778342Y-98849771D01*
X153778342Y-99373580D01*
X164873580Y-101073580D02*
X164873580Y-100073580D01*
X164778342Y-100692628D02*
X164492628Y-101073580D01*
X164492628Y-100406914D02*
X164873580Y-100787866D01*
X163683104Y-101025961D02*
X163778342Y-101073580D01*
X163968819Y-101073580D01*
X164064057Y-101025961D01*
X164111676Y-100930723D01*
X164111676Y-100549771D01*
X164064057Y-100454533D01*
X163968819Y-100406914D01*
X163778342Y-100406914D01*
X163683104Y-100454533D01*
X163635485Y-100549771D01*
X163635485Y-100645009D01*
X164111676Y-100740247D01*
X163302152Y-100406914D02*
X163064057Y-101073580D01*
X162825961Y-100406914D02*
X163064057Y-101073580D01*
X163159295Y-101311676D01*
X163206914Y-101359295D01*
X163302152Y-101406914D01*
X162445009Y-101073580D02*
X162445009Y-100073580D01*
X162445009Y-100454533D02*
X162349771Y-100406914D01*
X162159295Y-100406914D01*
X162064057Y-100454533D01*
X162016438Y-100502152D01*
X161968819Y-100597390D01*
X161968819Y-100883104D01*
X162016438Y-100978342D01*
X162064057Y-101025961D01*
X162159295Y-101073580D01*
X162349771Y-101073580D01*
X162445009Y-101025961D01*
X161397390Y-101073580D02*
X161492628Y-101025961D01*
X161540247Y-100978342D01*
X161587866Y-100883104D01*
X161587866Y-100597390D01*
X161540247Y-100502152D01*
X161492628Y-100454533D01*
X161397390Y-100406914D01*
X161254533Y-100406914D01*
X161159295Y-100454533D01*
X161111676Y-100502152D01*
X161064057Y-100597390D01*
X161064057Y-100883104D01*
X161111676Y-100978342D01*
X161159295Y-101025961D01*
X161254533Y-101073580D01*
X161397390Y-101073580D01*
X160206914Y-101073580D02*
X160206914Y-100549771D01*
X160254533Y-100454533D01*
X160349771Y-100406914D01*
X160540247Y-100406914D01*
X160635485Y-100454533D01*
X160206914Y-101025961D02*
X160302152Y-101073580D01*
X160540247Y-101073580D01*
X160635485Y-101025961D01*
X160683104Y-100930723D01*
X160683104Y-100835485D01*
X160635485Y-100740247D01*
X160540247Y-100692628D01*
X160302152Y-100692628D01*
X160206914Y-100645009D01*
X159730723Y-101073580D02*
X159730723Y-100406914D01*
X159730723Y-100597390D02*
X159683104Y-100502152D01*
X159635485Y-100454533D01*
X159540247Y-100406914D01*
X159445009Y-100406914D01*
X158683104Y-101073580D02*
X158683104Y-100073580D01*
X158683104Y-101025961D02*
X158778342Y-101073580D01*
X158968819Y-101073580D01*
X159064057Y-101025961D01*
X159111676Y-100978342D01*
X159159295Y-100883104D01*
X159159295Y-100597390D01*
X159111676Y-100502152D01*
X159064057Y-100454533D01*
X158968819Y-100406914D01*
X158778342Y-100406914D01*
X158683104Y-100454533D01*
X158254533Y-101025961D02*
X158159295Y-101073580D01*
X157968819Y-101073580D01*
X157873580Y-101025961D01*
X157825961Y-100930723D01*
X157825961Y-100883104D01*
X157873580Y-100787866D01*
X157968819Y-100740247D01*
X158111676Y-100740247D01*
X158206914Y-100692628D01*
X158254533Y-100597390D01*
X158254533Y-100549771D01*
X158206914Y-100454533D01*
X158111676Y-100406914D01*
X157968819Y-100406914D01*
X157873580Y-100454533D01*
X157397390Y-100978342D02*
X157349771Y-101025961D01*
X157397390Y-101073580D01*
X157445009Y-101025961D01*
X157397390Y-100978342D01*
X157397390Y-101073580D01*
X156540247Y-101025961D02*
X156635485Y-101073580D01*
X156825961Y-101073580D01*
X156921200Y-101025961D01*
X156968819Y-100930723D01*
X156968819Y-100549771D01*
X156921200Y-100454533D01*
X156825961Y-100406914D01*
X156635485Y-100406914D01*
X156540247Y-100454533D01*
X156492628Y-100549771D01*
X156492628Y-100645009D01*
X156968819Y-100740247D01*
X155921200Y-101073580D02*
X156016438Y-101025961D01*
X156064057Y-100930723D01*
X156064057Y-100073580D01*
X155540247Y-101073580D02*
X155540247Y-100406914D01*
X155540247Y-100502152D02*
X155492628Y-100454533D01*
X155397390Y-100406914D01*
X155254533Y-100406914D01*
X155159295Y-100454533D01*
X155111676Y-100549771D01*
X155111676Y-101073580D01*
X155111676Y-100549771D02*
X155064057Y-100454533D01*
X154968819Y-100406914D01*
X154825961Y-100406914D01*
X154730723Y-100454533D01*
X154683104Y-100549771D01*
X154683104Y-101073580D01*
X154064057Y-101073580D02*
X154159295Y-101025961D01*
X154206914Y-100978342D01*
X154254533Y-100883104D01*
X154254533Y-100597390D01*
X154206914Y-100502152D01*
X154159295Y-100454533D01*
X154064057Y-100406914D01*
X153921200Y-100406914D01*
X153825961Y-100454533D01*
X153778342Y-100502152D01*
X153730723Y-100597390D01*
X153730723Y-100883104D01*
X153778342Y-100978342D01*
X153825961Y-101025961D01*
X153921200Y-101073580D01*
X154064057Y-101073580D01*
X153302152Y-100978342D02*
X153254533Y-101025961D01*
X153302152Y-101073580D01*
X153349771Y-101025961D01*
X153302152Y-100978342D01*
X153302152Y-101073580D01*
X152873580Y-101025961D02*
X152778342Y-101073580D01*
X152587866Y-101073580D01*
X152492628Y-101025961D01*
X152445009Y-100930723D01*
X152445009Y-100883104D01*
X152492628Y-100787866D01*
X152587866Y-100740247D01*
X152730723Y-100740247D01*
X152825961Y-100692628D01*
X152873580Y-100597390D01*
X152873580Y-100549771D01*
X152825961Y-100454533D01*
X152730723Y-100406914D01*
X152587866Y-100406914D01*
X152492628Y-100454533D01*
X152016438Y-100406914D02*
X152016438Y-101406914D01*
X152016438Y-100454533D02*
X151921200Y-100406914D01*
X151730723Y-100406914D01*
X151635485Y-100454533D01*
X151587866Y-100502152D01*
X151540247Y-100597390D01*
X151540247Y-100883104D01*
X151587866Y-100978342D01*
X151635485Y-101025961D01*
X151730723Y-101073580D01*
X151921200Y-101073580D01*
X152016438Y-101025961D01*
X150683104Y-101073580D02*
X150683104Y-100549771D01*
X150730723Y-100454533D01*
X150825961Y-100406914D01*
X151016438Y-100406914D01*
X151111676Y-100454533D01*
X150683104Y-101025961D02*
X150778342Y-101073580D01*
X151016438Y-101073580D01*
X151111676Y-101025961D01*
X151159295Y-100930723D01*
X151159295Y-100835485D01*
X151111676Y-100740247D01*
X151016438Y-100692628D01*
X150778342Y-100692628D01*
X150683104Y-100645009D01*
X149778342Y-101025961D02*
X149873580Y-101073580D01*
X150064057Y-101073580D01*
X150159295Y-101025961D01*
X150206914Y-100978342D01*
X150254533Y-100883104D01*
X150254533Y-100597390D01*
X150206914Y-100502152D01*
X150159295Y-100454533D01*
X150064057Y-100406914D01*
X149873580Y-100406914D01*
X149778342Y-100454533D01*
X148968819Y-101025961D02*
X149064057Y-101073580D01*
X149254533Y-101073580D01*
X149349771Y-101025961D01*
X149397390Y-100930723D01*
X149397390Y-100549771D01*
X149349771Y-100454533D01*
X149254533Y-100406914D01*
X149064057Y-100406914D01*
X148968819Y-100454533D01*
X148921200Y-100549771D01*
X148921200Y-100645009D01*
X149397390Y-100740247D01*
D11*
%TO.C,J1*%
X168141200Y-77578400D02*
X167081200Y-77578400D01*
X168141200Y-78638400D02*
X168141200Y-77578400D01*
X168141200Y-79638400D02*
X166021200Y-79638400D01*
X166021200Y-79638400D02*
X166021200Y-89698400D01*
X168141200Y-79638400D02*
X168141200Y-89698400D01*
X168141200Y-89698400D02*
X166021200Y-89698400D01*
%TO.C,USB1*%
X150240000Y-60565200D02*
X159640000Y-60565200D01*
X159640000Y-66365200D02*
X159640000Y-64365200D01*
X159640000Y-62465200D02*
X159640000Y-60565200D01*
X150240000Y-66365200D02*
X150240000Y-64365200D01*
X150240000Y-62465200D02*
X150240000Y-60565200D01*
D12*
%TO.C,U1*%
X143869200Y-84767000D02*
X143869200Y-83342000D01*
X143644200Y-92017000D02*
X143644200Y-91692000D01*
X150894200Y-92017000D02*
X150894200Y-91692000D01*
X150894200Y-84767000D02*
X150894200Y-85092000D01*
X143644200Y-84767000D02*
X143644200Y-85092000D01*
X150894200Y-84767000D02*
X150569200Y-84767000D01*
X150894200Y-92017000D02*
X150569200Y-92017000D01*
X143644200Y-92017000D02*
X143969200Y-92017000D01*
X143644200Y-84767000D02*
X143869200Y-84767000D01*
D11*
%TO.C,R7*%
X162329800Y-87959836D02*
X162329800Y-88413964D01*
X160859800Y-87959836D02*
X160859800Y-88413964D01*
%TO.C,R5*%
X143689400Y-77595464D02*
X143689400Y-77141336D01*
X145159400Y-77595464D02*
X145159400Y-77141336D01*
%TO.C,R4*%
X141606600Y-77595464D02*
X141606600Y-77141336D01*
X143076600Y-77595464D02*
X143076600Y-77141336D01*
%TO.C,R3*%
X147242200Y-77141336D02*
X147242200Y-77595464D01*
X145772200Y-77141336D02*
X145772200Y-77595464D01*
%TO.C,R2*%
X164666664Y-67943400D02*
X164212536Y-67943400D01*
X164666664Y-66473400D02*
X164212536Y-66473400D01*
%TO.C,R1*%
X145314936Y-66575000D02*
X145769064Y-66575000D01*
X145314936Y-68045000D02*
X145769064Y-68045000D01*
%TO.C,D2*%
X146034000Y-74436800D02*
X146034000Y-70536800D01*
X144034000Y-74436800D02*
X144034000Y-70536800D01*
X146034000Y-74436800D02*
X144034000Y-74436800D01*
%TO.C,D1*%
X143544800Y-74436800D02*
X143544800Y-70536800D01*
X141544800Y-74436800D02*
X141544800Y-70536800D01*
X143544800Y-74436800D02*
X141544800Y-74436800D01*
%TO.C,BOOT*%
X142500800Y-101390000D02*
X143560800Y-101390000D01*
X142500800Y-100330000D02*
X142500800Y-101390000D01*
X142500800Y-99330000D02*
X144620800Y-99330000D01*
X144620800Y-99330000D02*
X144620800Y-97270000D01*
X142500800Y-99330000D02*
X142500800Y-97270000D01*
X142500800Y-97270000D02*
X144620800Y-97270000D01*
%TO.C,X1*%
X153877122Y-79033279D02*
X149877122Y-79033279D01*
X153877122Y-75733279D02*
X153877122Y-79033279D01*
%TO.C,U2*%
X155738400Y-74101600D02*
X153288400Y-74101600D01*
X153938400Y-70881600D02*
X155738400Y-70881600D01*
%TO.C,F1*%
X158144800Y-73449264D02*
X158144800Y-72245136D01*
X159964800Y-73449264D02*
X159964800Y-72245136D01*
%TO.C,C8*%
X149310121Y-77122027D02*
X149310121Y-77644531D01*
X147840121Y-77122027D02*
X147840121Y-77644531D01*
%TO.C,C7*%
X154444121Y-77644531D02*
X154444121Y-77122027D01*
X155914121Y-77644531D02*
X155914121Y-77122027D01*
%TO.C,C1*%
X156694200Y-77680452D02*
X156694200Y-77157948D01*
X158164200Y-77680452D02*
X158164200Y-77157948D01*
%TO.C,J1*%
D12*
X171478533Y-83526380D02*
X171478533Y-84240666D01*
X171526152Y-84383523D01*
X171621390Y-84478761D01*
X171764247Y-84526380D01*
X171859485Y-84526380D01*
X170478533Y-84526380D02*
X171049961Y-84526380D01*
X170764247Y-84526380D02*
X170764247Y-83526380D01*
X170859485Y-83669238D01*
X170954723Y-83764476D01*
X171049961Y-83812095D01*
%TO.C,USB1*%
X156678095Y-63917580D02*
X156678095Y-64727104D01*
X156630476Y-64822342D01*
X156582857Y-64869961D01*
X156487619Y-64917580D01*
X156297142Y-64917580D01*
X156201904Y-64869961D01*
X156154285Y-64822342D01*
X156106666Y-64727104D01*
X156106666Y-63917580D01*
X155678095Y-64869961D02*
X155535238Y-64917580D01*
X155297142Y-64917580D01*
X155201904Y-64869961D01*
X155154285Y-64822342D01*
X155106666Y-64727104D01*
X155106666Y-64631866D01*
X155154285Y-64536628D01*
X155201904Y-64489009D01*
X155297142Y-64441390D01*
X155487619Y-64393771D01*
X155582857Y-64346152D01*
X155630476Y-64298533D01*
X155678095Y-64203295D01*
X155678095Y-64108057D01*
X155630476Y-64012819D01*
X155582857Y-63965200D01*
X155487619Y-63917580D01*
X155249523Y-63917580D01*
X155106666Y-63965200D01*
X154344761Y-64393771D02*
X154201904Y-64441390D01*
X154154285Y-64489009D01*
X154106666Y-64584247D01*
X154106666Y-64727104D01*
X154154285Y-64822342D01*
X154201904Y-64869961D01*
X154297142Y-64917580D01*
X154678095Y-64917580D01*
X154678095Y-63917580D01*
X154344761Y-63917580D01*
X154249523Y-63965200D01*
X154201904Y-64012819D01*
X154154285Y-64108057D01*
X154154285Y-64203295D01*
X154201904Y-64298533D01*
X154249523Y-64346152D01*
X154344761Y-64393771D01*
X154678095Y-64393771D01*
X153154285Y-64917580D02*
X153725714Y-64917580D01*
X153440000Y-64917580D02*
X153440000Y-63917580D01*
X153535238Y-64060438D01*
X153630476Y-64155676D01*
X153725714Y-64203295D01*
%TO.C,U1*%
X147878704Y-87793580D02*
X147878704Y-88603104D01*
X147831085Y-88698342D01*
X147783466Y-88745961D01*
X147688228Y-88793580D01*
X147497752Y-88793580D01*
X147402514Y-88745961D01*
X147354895Y-88698342D01*
X147307276Y-88603104D01*
X147307276Y-87793580D01*
X146307276Y-88793580D02*
X146878704Y-88793580D01*
X146592990Y-88793580D02*
X146592990Y-87793580D01*
X146688228Y-87936438D01*
X146783466Y-88031676D01*
X146878704Y-88079295D01*
%TO.C,R7*%
X161761466Y-91181180D02*
X162094800Y-90704990D01*
X162332895Y-91181180D02*
X162332895Y-90181180D01*
X161951942Y-90181180D01*
X161856704Y-90228800D01*
X161809085Y-90276419D01*
X161761466Y-90371657D01*
X161761466Y-90514514D01*
X161809085Y-90609752D01*
X161856704Y-90657371D01*
X161951942Y-90704990D01*
X162332895Y-90704990D01*
X161428133Y-90181180D02*
X160761466Y-90181180D01*
X161190038Y-91181180D01*
%TO.C,R5*%
X146673866Y-75534780D02*
X147007200Y-75058590D01*
X147245295Y-75534780D02*
X147245295Y-74534780D01*
X146864342Y-74534780D01*
X146769104Y-74582400D01*
X146721485Y-74630019D01*
X146673866Y-74725257D01*
X146673866Y-74868114D01*
X146721485Y-74963352D01*
X146769104Y-75010971D01*
X146864342Y-75058590D01*
X147245295Y-75058590D01*
X145769104Y-74534780D02*
X146245295Y-74534780D01*
X146292914Y-75010971D01*
X146245295Y-74963352D01*
X146150057Y-74915733D01*
X145911961Y-74915733D01*
X145816723Y-74963352D01*
X145769104Y-75010971D01*
X145721485Y-75106209D01*
X145721485Y-75344304D01*
X145769104Y-75439542D01*
X145816723Y-75487161D01*
X145911961Y-75534780D01*
X146150057Y-75534780D01*
X146245295Y-75487161D01*
X146292914Y-75439542D01*
%TO.C,R4*%
X142508266Y-75534780D02*
X142841600Y-75058590D01*
X143079695Y-75534780D02*
X143079695Y-74534780D01*
X142698742Y-74534780D01*
X142603504Y-74582400D01*
X142555885Y-74630019D01*
X142508266Y-74725257D01*
X142508266Y-74868114D01*
X142555885Y-74963352D01*
X142603504Y-75010971D01*
X142698742Y-75058590D01*
X143079695Y-75058590D01*
X141651123Y-74868114D02*
X141651123Y-75534780D01*
X141889219Y-74487161D02*
X142127314Y-75201447D01*
X141508266Y-75201447D01*
%TO.C,R3*%
X144591066Y-75534780D02*
X144924400Y-75058590D01*
X145162495Y-75534780D02*
X145162495Y-74534780D01*
X144781542Y-74534780D01*
X144686304Y-74582400D01*
X144638685Y-74630019D01*
X144591066Y-74725257D01*
X144591066Y-74868114D01*
X144638685Y-74963352D01*
X144686304Y-75010971D01*
X144781542Y-75058590D01*
X145162495Y-75058590D01*
X144257733Y-74534780D02*
X143638685Y-74534780D01*
X143972019Y-74915733D01*
X143829161Y-74915733D01*
X143733923Y-74963352D01*
X143686304Y-75010971D01*
X143638685Y-75106209D01*
X143638685Y-75344304D01*
X143686304Y-75439542D01*
X143733923Y-75487161D01*
X143829161Y-75534780D01*
X144114876Y-75534780D01*
X144210114Y-75487161D01*
X144257733Y-75439542D01*
%TO.C,R2*%
X167298666Y-67660780D02*
X167632000Y-67184590D01*
X167870095Y-67660780D02*
X167870095Y-66660780D01*
X167489142Y-66660780D01*
X167393904Y-66708400D01*
X167346285Y-66756019D01*
X167298666Y-66851257D01*
X167298666Y-66994114D01*
X167346285Y-67089352D01*
X167393904Y-67136971D01*
X167489142Y-67184590D01*
X167870095Y-67184590D01*
X166917714Y-66756019D02*
X166870095Y-66708400D01*
X166774857Y-66660780D01*
X166536761Y-66660780D01*
X166441523Y-66708400D01*
X166393904Y-66756019D01*
X166346285Y-66851257D01*
X166346285Y-66946495D01*
X166393904Y-67089352D01*
X166965333Y-67660780D01*
X166346285Y-67660780D01*
%TO.C,R1*%
X143067066Y-67762380D02*
X143400400Y-67286190D01*
X143638495Y-67762380D02*
X143638495Y-66762380D01*
X143257542Y-66762380D01*
X143162304Y-66810000D01*
X143114685Y-66857619D01*
X143067066Y-66952857D01*
X143067066Y-67095714D01*
X143114685Y-67190952D01*
X143162304Y-67238571D01*
X143257542Y-67286190D01*
X143638495Y-67286190D01*
X142114685Y-67762380D02*
X142686114Y-67762380D01*
X142400400Y-67762380D02*
X142400400Y-66762380D01*
X142495638Y-66905238D01*
X142590876Y-67000476D01*
X142686114Y-67048095D01*
%TO.C,D2*%
X145772095Y-69641980D02*
X145772095Y-68641980D01*
X145534000Y-68641980D01*
X145391142Y-68689600D01*
X145295904Y-68784838D01*
X145248285Y-68880076D01*
X145200666Y-69070552D01*
X145200666Y-69213409D01*
X145248285Y-69403885D01*
X145295904Y-69499123D01*
X145391142Y-69594361D01*
X145534000Y-69641980D01*
X145772095Y-69641980D01*
X144819714Y-68737219D02*
X144772095Y-68689600D01*
X144676857Y-68641980D01*
X144438761Y-68641980D01*
X144343523Y-68689600D01*
X144295904Y-68737219D01*
X144248285Y-68832457D01*
X144248285Y-68927695D01*
X144295904Y-69070552D01*
X144867333Y-69641980D01*
X144248285Y-69641980D01*
%TO.C,D1*%
X143282895Y-69641980D02*
X143282895Y-68641980D01*
X143044800Y-68641980D01*
X142901942Y-68689600D01*
X142806704Y-68784838D01*
X142759085Y-68880076D01*
X142711466Y-69070552D01*
X142711466Y-69213409D01*
X142759085Y-69403885D01*
X142806704Y-69499123D01*
X142901942Y-69594361D01*
X143044800Y-69641980D01*
X143282895Y-69641980D01*
X141759085Y-69641980D02*
X142330514Y-69641980D01*
X142044800Y-69641980D02*
X142044800Y-68641980D01*
X142140038Y-68784838D01*
X142235276Y-68880076D01*
X142330514Y-68927695D01*
%TO.C,BOOT*%
X145572171Y-97906057D02*
X145619790Y-98048914D01*
X145667409Y-98096533D01*
X145762647Y-98144152D01*
X145905504Y-98144152D01*
X146000742Y-98096533D01*
X146048361Y-98048914D01*
X146095980Y-97953676D01*
X146095980Y-97572723D01*
X145095980Y-97572723D01*
X145095980Y-97906057D01*
X145143600Y-98001295D01*
X145191219Y-98048914D01*
X145286457Y-98096533D01*
X145381695Y-98096533D01*
X145476933Y-98048914D01*
X145524552Y-98001295D01*
X145572171Y-97906057D01*
X145572171Y-97572723D01*
X145095980Y-98763200D02*
X145095980Y-98953676D01*
X145143600Y-99048914D01*
X145238838Y-99144152D01*
X145429314Y-99191771D01*
X145762647Y-99191771D01*
X145953123Y-99144152D01*
X146048361Y-99048914D01*
X146095980Y-98953676D01*
X146095980Y-98763200D01*
X146048361Y-98667961D01*
X145953123Y-98572723D01*
X145762647Y-98525104D01*
X145429314Y-98525104D01*
X145238838Y-98572723D01*
X145143600Y-98667961D01*
X145095980Y-98763200D01*
X145095980Y-99810819D02*
X145095980Y-100001295D01*
X145143600Y-100096533D01*
X145238838Y-100191771D01*
X145429314Y-100239390D01*
X145762647Y-100239390D01*
X145953123Y-100191771D01*
X146048361Y-100096533D01*
X146095980Y-100001295D01*
X146095980Y-99810819D01*
X146048361Y-99715580D01*
X145953123Y-99620342D01*
X145762647Y-99572723D01*
X145429314Y-99572723D01*
X145238838Y-99620342D01*
X145143600Y-99715580D01*
X145095980Y-99810819D01*
X145095980Y-100525104D02*
X145095980Y-101096533D01*
X146095980Y-100810819D02*
X145095980Y-100810819D01*
%TO.C,X1*%
X152686645Y-74483980D02*
X152019979Y-75483980D01*
X152019979Y-74483980D02*
X152686645Y-75483980D01*
X151115217Y-75483980D02*
X151686645Y-75483980D01*
X151400931Y-75483980D02*
X151400931Y-74483980D01*
X151496169Y-74626838D01*
X151591407Y-74722076D01*
X151686645Y-74769695D01*
%TO.C,U2*%
X155600304Y-69556380D02*
X155600304Y-70365904D01*
X155552685Y-70461142D01*
X155505066Y-70508761D01*
X155409828Y-70556380D01*
X155219352Y-70556380D01*
X155124114Y-70508761D01*
X155076495Y-70461142D01*
X155028876Y-70365904D01*
X155028876Y-69556380D01*
X154600304Y-69651619D02*
X154552685Y-69604000D01*
X154457447Y-69556380D01*
X154219352Y-69556380D01*
X154124114Y-69604000D01*
X154076495Y-69651619D01*
X154028876Y-69746857D01*
X154028876Y-69842095D01*
X154076495Y-69984952D01*
X154647923Y-70556380D01*
X154028876Y-70556380D01*
%TO.C,F1*%
X160803371Y-72513866D02*
X160803371Y-72180533D01*
X161327180Y-72180533D02*
X160327180Y-72180533D01*
X160327180Y-72656723D01*
X161327180Y-73561485D02*
X161327180Y-72990057D01*
X161327180Y-73275771D02*
X160327180Y-73275771D01*
X160470038Y-73180533D01*
X160565276Y-73085295D01*
X160612895Y-72990057D01*
%TO.C,C8*%
X148807466Y-75439542D02*
X148855085Y-75487161D01*
X148997942Y-75534780D01*
X149093180Y-75534780D01*
X149236038Y-75487161D01*
X149331276Y-75391923D01*
X149378895Y-75296685D01*
X149426514Y-75106209D01*
X149426514Y-74963352D01*
X149378895Y-74772876D01*
X149331276Y-74677638D01*
X149236038Y-74582400D01*
X149093180Y-74534780D01*
X148997942Y-74534780D01*
X148855085Y-74582400D01*
X148807466Y-74630019D01*
X148236038Y-74963352D02*
X148331276Y-74915733D01*
X148378895Y-74868114D01*
X148426514Y-74772876D01*
X148426514Y-74725257D01*
X148378895Y-74630019D01*
X148331276Y-74582400D01*
X148236038Y-74534780D01*
X148045561Y-74534780D01*
X147950323Y-74582400D01*
X147902704Y-74630019D01*
X147855085Y-74725257D01*
X147855085Y-74772876D01*
X147902704Y-74868114D01*
X147950323Y-74915733D01*
X148045561Y-74963352D01*
X148236038Y-74963352D01*
X148331276Y-75010971D01*
X148378895Y-75058590D01*
X148426514Y-75153828D01*
X148426514Y-75344304D01*
X148378895Y-75439542D01*
X148331276Y-75487161D01*
X148236038Y-75534780D01*
X148045561Y-75534780D01*
X147950323Y-75487161D01*
X147902704Y-75439542D01*
X147855085Y-75344304D01*
X147855085Y-75153828D01*
X147902704Y-75058590D01*
X147950323Y-75010971D01*
X148045561Y-74963352D01*
%TO.C,C7*%
X155360666Y-75439542D02*
X155408285Y-75487161D01*
X155551142Y-75534780D01*
X155646380Y-75534780D01*
X155789238Y-75487161D01*
X155884476Y-75391923D01*
X155932095Y-75296685D01*
X155979714Y-75106209D01*
X155979714Y-74963352D01*
X155932095Y-74772876D01*
X155884476Y-74677638D01*
X155789238Y-74582400D01*
X155646380Y-74534780D01*
X155551142Y-74534780D01*
X155408285Y-74582400D01*
X155360666Y-74630019D01*
X155027333Y-74534780D02*
X154360666Y-74534780D01*
X154789238Y-75534780D01*
%TO.C,C1*%
X157545066Y-75439542D02*
X157592685Y-75487161D01*
X157735542Y-75534780D01*
X157830780Y-75534780D01*
X157973638Y-75487161D01*
X158068876Y-75391923D01*
X158116495Y-75296685D01*
X158164114Y-75106209D01*
X158164114Y-74963352D01*
X158116495Y-74772876D01*
X158068876Y-74677638D01*
X157973638Y-74582400D01*
X157830780Y-74534780D01*
X157735542Y-74534780D01*
X157592685Y-74582400D01*
X157545066Y-74630019D01*
X156592685Y-75534780D02*
X157164114Y-75534780D01*
X156878400Y-75534780D02*
X156878400Y-74534780D01*
X156973638Y-74677638D01*
X157068876Y-74772876D01*
X157164114Y-74820495D01*
%TD*%
M02*
