M48
; DRILL file {KiCad (5.1.10)-1} date 09/22/21 13:36:55
; FORMAT={-:-/ absolute / metric / decimal}
; #@! TF.CreationDate,2021-09-22T13:36:55+02:00
; #@! TF.GenerationSoftware,Kicad,Pcbnew,(5.1.10)-1
; #@! TF.FileFunction,Plated,1,2,PTH
FMAT,2
METRIC
T1C0.400
T2C0.600
T3C0.800
T4C1.040
T5C1.470
%
G90
G05
T1
X143.104Y-80.518
X144.2Y-81.615
X144.563Y-87.986
X144.563Y-96.277
X145.288Y-87.02
X147.726Y-81.128
X149.301Y-90.729
X149.504Y-79.959
X152.502Y-70.206
X156.464Y-80.264
X157.378Y-70.206
T3
X143.561Y-98.33
X143.561Y-100.33
X167.081Y-78.638
X167.081Y-80.638
X167.081Y-82.638
X167.081Y-84.638
X167.081Y-86.638
X167.081Y-88.638
T4
X156.159Y-89.103
X158.699Y-89.103
T5
X153.619Y-81.483
X159.969Y-78.943
T2
G00X150.62Y-63.115
M15
G01X150.62Y-63.715
M16
G05
G00X150.62Y-67.045
M15
G01X150.62Y-68.145
M16
G05
G00X159.26Y-63.115
M15
G01X159.26Y-63.715
M16
G05
G00X159.26Y-67.045
M15
G01X159.26Y-68.145
M16
G05
T0
M30
