M48
; DRILL file {KiCad (5.1.10)-1} date 09/22/21 23:45:09
; FORMAT={-:-/ absolute / metric / decimal}
; #@! TF.CreationDate,2021-09-22T23:45:09+02:00
; #@! TF.GenerationSoftware,Kicad,Pcbnew,(5.1.10)-1
; #@! TF.FileFunction,Plated,1,2,PTH
FMAT,2
METRIC
T1C0.400
T2C0.600
T3C0.800
T4C1.470
%
G90
G05
T1
X142.85Y-66.904
X143.561Y-95.91
X145.085Y-79.908
X145.39Y-86.157
X146.115Y-87.732
X147.777Y-81.178
X149.098Y-79.858
X149.352Y-90.424
X152.197Y-93.523
X152.502Y-70.155
X153.67Y-66.599
X154.381Y-74.422
X154.483Y-90.475
X154.534Y-98.4
X155.905Y-65.075
X157.365Y-69.935
X159.715Y-93.777
X160.274Y-81.382
X161.036Y-78.588
X161.493Y-96.723
X163.271Y-88.494
X165.202Y-80.62
T3
X143.561Y-98.33
X143.561Y-100.33
X167.081Y-78.638
X167.081Y-80.638
X167.081Y-82.638
X167.081Y-84.638
X167.081Y-86.638
X167.081Y-88.638
T4
X152.349Y-81.483
X154.889Y-87.833
T2
G00X150.62Y-63.115
M15
G01X150.62Y-63.715
M16
G05
G00X150.62Y-67.045
M15
G01X150.62Y-68.145
M16
G05
G00X159.26Y-63.115
M15
G01X159.26Y-63.715
M16
G05
G00X159.26Y-67.045
M15
G01X159.26Y-68.145
M16
G05
T0
M30
