%TF.GenerationSoftware,KiCad,Pcbnew,(5.1.10)-1*%
%TF.CreationDate,2021-09-22T13:41:13+02:00*%
%TF.ProjectId,iso,69736f2e-6b69-4636-9164-5f7063625858,rev?*%
%TF.SameCoordinates,Original*%
%TF.FileFunction,Copper,L1,Top*%
%TF.FilePolarity,Positive*%
%FSLAX46Y46*%
G04 Gerber Fmt 4.6, Leading zero omitted, Abs format (unit mm)*
G04 Created by KiCad (PCBNEW (5.1.10)-1) date 2021-09-22 13:41:13*
%MOMM*%
%LPD*%
G01*
G04 APERTURE LIST*
%TA.AperFunction,ComponentPad*%
%ADD10O,1.350000X1.350000*%
%TD*%
%TA.AperFunction,ComponentPad*%
%ADD11R,1.350000X1.350000*%
%TD*%
%TA.AperFunction,ComponentPad*%
%ADD12R,1.905000X1.905000*%
%TD*%
%TA.AperFunction,ComponentPad*%
%ADD13C,1.905000*%
%TD*%
%TA.AperFunction,ComponentPad*%
%ADD14C,2.250000*%
%TD*%
%TA.AperFunction,ComponentPad*%
%ADD15O,1.000000X2.100000*%
%TD*%
%TA.AperFunction,ComponentPad*%
%ADD16O,1.000000X1.600000*%
%TD*%
%TA.AperFunction,ViaPad*%
%ADD17C,0.800000*%
%TD*%
%TA.AperFunction,Conductor*%
%ADD18C,0.500000*%
%TD*%
%TA.AperFunction,Conductor*%
%ADD19C,0.250000*%
%TD*%
%TA.AperFunction,Conductor*%
%ADD20C,0.100000*%
%TD*%
%TA.AperFunction,Conductor*%
%ADD21C,0.025400*%
%TD*%
G04 APERTURE END LIST*
D10*
%TO.P,J1,6*%
%TO.N,+5V*%
X167081200Y-88638400D03*
%TO.P,J1,5*%
%TO.N,RESET*%
X167081200Y-86638400D03*
%TO.P,J1,4*%
%TO.N,SCK*%
X167081200Y-84638400D03*
%TO.P,J1,3*%
%TO.N,MISO*%
X167081200Y-82638400D03*
%TO.P,J1,2*%
%TO.N,MOSI*%
X167081200Y-80638400D03*
D11*
%TO.P,J1,1*%
%TO.N,GND*%
X167081200Y-78638400D03*
%TD*%
D12*
%TO.P,MX1,4*%
%TO.N,Net-(MX1-Pad4)*%
X158699200Y-89103200D03*
D13*
%TO.P,MX1,3*%
%TO.N,LED*%
X156159200Y-89103200D03*
D14*
%TO.P,MX1,1*%
%TO.N,SW*%
X153619200Y-81483200D03*
%TO.P,MX1,2*%
%TO.N,GND*%
X159969200Y-78943200D03*
%TD*%
D15*
%TO.P,USB1,S1*%
%TO.N,GND*%
X159260000Y-67595200D03*
X150620000Y-67595200D03*
D16*
X150620000Y-63415200D03*
X159260000Y-63415200D03*
%TD*%
D10*
%TO.P,BOOT,2*%
%TO.N,BOOT*%
X143560800Y-98330000D03*
D11*
%TO.P,BOOT,1*%
%TO.N,GND*%
X143560800Y-100330000D03*
%TD*%
D17*
%TO.N,GND*%
X149504400Y-79959200D03*
%TO.N,+5V*%
X147726400Y-81127600D03*
X149301200Y-90728800D03*
X156464000Y-80264000D03*
%TO.N,VCC*%
X152501600Y-70205600D03*
X157378400Y-70205600D03*
%TO.N,D-*%
X144200453Y-81614853D03*
X143103600Y-80518000D03*
%TO.N,BOOT*%
X145288000Y-87020400D03*
%TO.N,RESET*%
X144563000Y-87985600D03*
X144563000Y-96277347D03*
%TD*%
D18*
%TO.N,+5V*%
X147726400Y-89154000D02*
X147726400Y-81127600D01*
X149301200Y-90728800D02*
X147726400Y-89154000D01*
X157429200Y-80264000D02*
X156464000Y-80264000D01*
X158140400Y-80264000D02*
X157429200Y-80264000D01*
X160528000Y-82651600D02*
X158140400Y-80264000D01*
X160528000Y-85293200D02*
X160528000Y-82651600D01*
X163873200Y-88638400D02*
X160528000Y-85293200D01*
X167081200Y-88638400D02*
X163873200Y-88638400D01*
X147726400Y-81127600D02*
X147726400Y-79603600D01*
X147726400Y-79603600D02*
X149148800Y-78181200D01*
X154381200Y-78181200D02*
X156464000Y-80264000D01*
X149148800Y-78181200D02*
X154381200Y-78181200D01*
%TO.N,VCC*%
X152501600Y-70205600D02*
X157378400Y-70205600D01*
D19*
%TO.N,D-*%
X144200453Y-81614853D02*
X143103600Y-80518000D01*
%TO.N,BOOT*%
X143560800Y-98330000D02*
X145288000Y-96602800D01*
X145288000Y-96602800D02*
X145288000Y-87020400D01*
%TO.N,RESET*%
X144837990Y-88260590D02*
X144563000Y-87985600D01*
X144837990Y-96002357D02*
X144837990Y-95511190D01*
X144563000Y-96277347D02*
X144837990Y-96002357D01*
X144837990Y-95511190D02*
X144837990Y-88260590D01*
%TD*%
%TO.N,GND*%
X158127000Y-63113200D02*
X158127000Y-63413200D01*
X159258000Y-63413200D01*
X159258000Y-63393200D01*
X159262000Y-63393200D01*
X159262000Y-63413200D01*
X159282000Y-63413200D01*
X159282000Y-63417200D01*
X159262000Y-63417200D01*
X159262000Y-64689948D01*
X159439215Y-64833936D01*
X159479076Y-64826820D01*
X159691733Y-64762721D01*
X159887799Y-64658366D01*
X160059739Y-64517766D01*
X160200945Y-64346324D01*
X160305991Y-64150628D01*
X160343682Y-64027163D01*
X160352501Y-64073395D01*
X160355257Y-64082524D01*
X160470681Y-64455399D01*
X160494659Y-64512441D01*
X160517859Y-64569862D01*
X160522336Y-64578282D01*
X160707987Y-64921637D01*
X160742601Y-64972954D01*
X160776500Y-65024757D01*
X160782527Y-65032147D01*
X161031334Y-65332902D01*
X161075247Y-65376509D01*
X161118570Y-65420749D01*
X161125918Y-65426828D01*
X161428402Y-65673529D01*
X161479949Y-65707776D01*
X161531041Y-65742759D01*
X161539429Y-65747295D01*
X161884071Y-65930545D01*
X161941289Y-65954128D01*
X161998203Y-65978521D01*
X162007313Y-65981341D01*
X162380984Y-66094159D01*
X162441709Y-66106183D01*
X162502259Y-66119053D01*
X162511743Y-66120050D01*
X162900212Y-66158140D01*
X162900216Y-66158140D01*
X162932779Y-66161373D01*
X166488727Y-66164173D01*
X166833123Y-66197942D01*
X167132007Y-66288181D01*
X167407674Y-66434755D01*
X167649621Y-66632082D01*
X167848632Y-66872645D01*
X167997127Y-67147283D01*
X168089451Y-67445532D01*
X168125401Y-67787582D01*
X168125401Y-77447519D01*
X168109578Y-77434533D01*
X167999611Y-77375754D01*
X167880290Y-77339559D01*
X167756200Y-77327337D01*
X167241450Y-77330400D01*
X167083200Y-77488650D01*
X167083200Y-78636400D01*
X167103200Y-78636400D01*
X167103200Y-78640400D01*
X167083200Y-78640400D01*
X167083200Y-78660400D01*
X167079200Y-78660400D01*
X167079200Y-78640400D01*
X165931450Y-78640400D01*
X165773200Y-78798650D01*
X165770137Y-79313400D01*
X165782359Y-79437490D01*
X165818554Y-79556811D01*
X165877333Y-79666778D01*
X165956436Y-79763164D01*
X166044567Y-79835493D01*
X165922065Y-80018830D01*
X165823466Y-80256870D01*
X165773200Y-80509573D01*
X165773200Y-80767227D01*
X165823466Y-81019930D01*
X165922065Y-81257970D01*
X166065210Y-81472201D01*
X166231409Y-81638400D01*
X166065210Y-81804599D01*
X165922065Y-82018830D01*
X165823466Y-82256870D01*
X165773200Y-82509573D01*
X165773200Y-82767227D01*
X165823466Y-83019930D01*
X165922065Y-83257970D01*
X166065210Y-83472201D01*
X166231409Y-83638400D01*
X166065210Y-83804599D01*
X165922065Y-84018830D01*
X165823466Y-84256870D01*
X165773200Y-84509573D01*
X165773200Y-84767227D01*
X165823466Y-85019930D01*
X165922065Y-85257970D01*
X166065210Y-85472201D01*
X166231409Y-85638400D01*
X166065210Y-85804599D01*
X165922065Y-86018830D01*
X165823466Y-86256870D01*
X165773200Y-86509573D01*
X165773200Y-86767227D01*
X165823466Y-87019930D01*
X165922065Y-87257970D01*
X166065210Y-87472201D01*
X166231409Y-87638400D01*
X166156881Y-87712928D01*
X166137522Y-87731238D01*
X166130023Y-87737292D01*
X166124100Y-87741326D01*
X166119130Y-87744135D01*
X166114196Y-87746400D01*
X166108283Y-87748534D01*
X166100309Y-87750689D01*
X166089270Y-87752743D01*
X166074312Y-87754355D01*
X166044210Y-87755400D01*
X164238951Y-87755400D01*
X161877225Y-85393676D01*
X162069332Y-85473249D01*
X162360675Y-85531200D01*
X162657725Y-85531200D01*
X162949068Y-85473249D01*
X163223506Y-85359573D01*
X163470494Y-85194540D01*
X163680540Y-84984494D01*
X163845573Y-84737506D01*
X163959249Y-84463068D01*
X164017200Y-84171725D01*
X164017200Y-83874675D01*
X163959249Y-83583332D01*
X163845573Y-83308894D01*
X163680540Y-83061906D01*
X163470494Y-82851860D01*
X163223506Y-82686827D01*
X162949068Y-82573151D01*
X162657725Y-82515200D01*
X162360675Y-82515200D01*
X162069332Y-82573151D01*
X161794894Y-82686827D01*
X161547906Y-82851860D01*
X161411000Y-82988766D01*
X161411000Y-82694965D01*
X161415271Y-82651599D01*
X161411000Y-82608233D01*
X161411000Y-82608227D01*
X161398223Y-82478502D01*
X161347732Y-82312056D01*
X161265740Y-82158658D01*
X161155396Y-82024204D01*
X161121707Y-81996556D01*
X159822720Y-80697570D01*
X159901845Y-80708423D01*
X160247517Y-80687645D01*
X160582494Y-80599829D01*
X160893903Y-80448350D01*
X161005908Y-80373509D01*
X161104994Y-80081822D01*
X159969200Y-78946028D01*
X159955058Y-78960171D01*
X159952230Y-78957343D01*
X159966372Y-78943200D01*
X159972028Y-78943200D01*
X161107822Y-80078994D01*
X161399509Y-79979908D01*
X161574277Y-79680949D01*
X161687364Y-79353638D01*
X161734423Y-79010555D01*
X161713645Y-78664883D01*
X161625829Y-78329906D01*
X161474350Y-78018497D01*
X161437535Y-77963400D01*
X165770137Y-77963400D01*
X165773200Y-78478150D01*
X165931450Y-78636400D01*
X167079200Y-78636400D01*
X167079200Y-77488650D01*
X166920950Y-77330400D01*
X166406200Y-77327337D01*
X166282110Y-77339559D01*
X166162789Y-77375754D01*
X166052822Y-77434533D01*
X165956436Y-77513636D01*
X165877333Y-77610022D01*
X165818554Y-77719989D01*
X165782359Y-77839310D01*
X165770137Y-77963400D01*
X161437535Y-77963400D01*
X161399509Y-77906492D01*
X161107822Y-77807406D01*
X159972028Y-78943200D01*
X159966372Y-78943200D01*
X158830578Y-77807406D01*
X158538891Y-77906492D01*
X158364123Y-78205451D01*
X158251036Y-78532762D01*
X158203977Y-78875845D01*
X158224755Y-79221517D01*
X158268759Y-79389370D01*
X158183773Y-79381000D01*
X158183766Y-79381000D01*
X158140400Y-79376729D01*
X158097034Y-79381000D01*
X157001848Y-79381000D01*
X156953309Y-79348567D01*
X156765315Y-79270698D01*
X156708059Y-79259309D01*
X155253328Y-77804578D01*
X158833406Y-77804578D01*
X159969200Y-78940372D01*
X161104994Y-77804578D01*
X161005908Y-77512891D01*
X160706949Y-77338123D01*
X160379638Y-77225036D01*
X160036555Y-77177977D01*
X159690883Y-77198755D01*
X159355906Y-77286571D01*
X159044497Y-77438050D01*
X158932492Y-77512891D01*
X158833406Y-77804578D01*
X155253328Y-77804578D01*
X155036253Y-77587504D01*
X155008596Y-77553804D01*
X154874142Y-77443460D01*
X154720744Y-77361468D01*
X154554298Y-77310977D01*
X154424573Y-77298200D01*
X154424566Y-77298200D01*
X154381200Y-77293929D01*
X154337834Y-77298200D01*
X149192165Y-77298200D01*
X149148799Y-77293929D01*
X149105433Y-77298200D01*
X149105427Y-77298200D01*
X148993927Y-77309182D01*
X148975701Y-77310977D01*
X148925210Y-77326294D01*
X148809256Y-77361468D01*
X148655858Y-77443460D01*
X148521404Y-77553804D01*
X148493756Y-77587493D01*
X147132699Y-78948552D01*
X147099005Y-78976204D01*
X146988661Y-79110658D01*
X146975804Y-79134712D01*
X146906669Y-79264056D01*
X146856177Y-79430502D01*
X146839129Y-79603600D01*
X146843401Y-79646975D01*
X146843400Y-80589751D01*
X146810967Y-80638291D01*
X146733098Y-80826285D01*
X146693400Y-81025858D01*
X146693400Y-81229342D01*
X146733098Y-81428915D01*
X146810967Y-81616909D01*
X146843401Y-81665449D01*
X146843400Y-89110634D01*
X146839129Y-89154000D01*
X146843400Y-89197366D01*
X146843400Y-89197372D01*
X146856177Y-89327097D01*
X146906668Y-89493543D01*
X146988660Y-89646941D01*
X147099004Y-89781396D01*
X147132704Y-89809053D01*
X148296509Y-90972859D01*
X148307898Y-91030115D01*
X148385767Y-91218109D01*
X148498817Y-91387299D01*
X148642701Y-91531183D01*
X148811891Y-91644233D01*
X148999885Y-91722102D01*
X149199458Y-91761800D01*
X149402942Y-91761800D01*
X149602515Y-91722102D01*
X149790509Y-91644233D01*
X149959699Y-91531183D01*
X150103583Y-91387299D01*
X150216633Y-91218109D01*
X150294502Y-91030115D01*
X150334200Y-90830542D01*
X150334200Y-90627058D01*
X150294502Y-90427485D01*
X150216633Y-90239491D01*
X150103583Y-90070301D01*
X149959699Y-89926417D01*
X149790509Y-89813367D01*
X149602515Y-89735498D01*
X149545259Y-89724109D01*
X148768192Y-88947042D01*
X154573700Y-88947042D01*
X154573700Y-89259358D01*
X154634629Y-89565673D01*
X154754148Y-89854216D01*
X154927661Y-90113898D01*
X155148502Y-90334739D01*
X155408184Y-90508252D01*
X155696727Y-90627771D01*
X156003042Y-90688700D01*
X156315358Y-90688700D01*
X156621673Y-90627771D01*
X156910216Y-90508252D01*
X157169898Y-90334739D01*
X157175243Y-90329394D01*
X157217834Y-90409077D01*
X157296936Y-90505464D01*
X157393323Y-90584566D01*
X157503290Y-90643345D01*
X157622610Y-90679540D01*
X157746700Y-90691762D01*
X159651700Y-90691762D01*
X159775790Y-90679540D01*
X159895110Y-90643345D01*
X160005077Y-90584566D01*
X160101464Y-90505464D01*
X160180566Y-90409077D01*
X160239345Y-90299110D01*
X160275540Y-90179790D01*
X160287762Y-90055700D01*
X160287762Y-88150700D01*
X160275540Y-88026610D01*
X160239345Y-87907290D01*
X160180566Y-87797323D01*
X160101464Y-87700936D01*
X160005077Y-87621834D01*
X159895110Y-87563055D01*
X159775790Y-87526860D01*
X159651700Y-87514638D01*
X157746700Y-87514638D01*
X157622610Y-87526860D01*
X157503290Y-87563055D01*
X157393323Y-87621834D01*
X157296936Y-87700936D01*
X157217834Y-87797323D01*
X157175243Y-87877006D01*
X157169898Y-87871661D01*
X156910216Y-87698148D01*
X156621673Y-87578629D01*
X156315358Y-87517700D01*
X156003042Y-87517700D01*
X155696727Y-87578629D01*
X155408184Y-87698148D01*
X155148502Y-87871661D01*
X154927661Y-88092502D01*
X154754148Y-88352184D01*
X154634629Y-88640727D01*
X154573700Y-88947042D01*
X148768192Y-88947042D01*
X148609400Y-88788251D01*
X148609400Y-83874675D01*
X150841200Y-83874675D01*
X150841200Y-84171725D01*
X150899151Y-84463068D01*
X151012827Y-84737506D01*
X151177860Y-84984494D01*
X151387906Y-85194540D01*
X151634894Y-85359573D01*
X151909332Y-85473249D01*
X152200675Y-85531200D01*
X152497725Y-85531200D01*
X152789068Y-85473249D01*
X153063506Y-85359573D01*
X153310494Y-85194540D01*
X153520540Y-84984494D01*
X153685573Y-84737506D01*
X153799249Y-84463068D01*
X153857200Y-84171725D01*
X153857200Y-83874675D01*
X153799249Y-83583332D01*
X153685573Y-83308894D01*
X153640341Y-83241200D01*
X153792348Y-83241200D01*
X154131990Y-83173641D01*
X154451925Y-83041119D01*
X154739860Y-82848728D01*
X154984728Y-82603860D01*
X155177119Y-82315925D01*
X155309641Y-81995990D01*
X155377200Y-81656348D01*
X155377200Y-81310052D01*
X155309641Y-80970410D01*
X155177119Y-80650475D01*
X154984728Y-80362540D01*
X154739860Y-80117672D01*
X154451925Y-79925281D01*
X154131990Y-79792759D01*
X153792348Y-79725200D01*
X153446052Y-79725200D01*
X153106410Y-79792759D01*
X152786475Y-79925281D01*
X152498540Y-80117672D01*
X152253672Y-80362540D01*
X152061281Y-80650475D01*
X151928759Y-80970410D01*
X151861200Y-81310052D01*
X151861200Y-81656348D01*
X151928759Y-81995990D01*
X152061281Y-82315925D01*
X152195164Y-82516296D01*
X151909332Y-82573151D01*
X151634894Y-82686827D01*
X151387906Y-82851860D01*
X151177860Y-83061906D01*
X151012827Y-83308894D01*
X150899151Y-83583332D01*
X150841200Y-83874675D01*
X148609400Y-83874675D01*
X148609400Y-81665448D01*
X148641833Y-81616909D01*
X148719702Y-81428915D01*
X148759400Y-81229342D01*
X148759400Y-81025858D01*
X148719702Y-80826285D01*
X148641833Y-80638291D01*
X148609400Y-80589752D01*
X148609400Y-79969349D01*
X149514551Y-79064200D01*
X154015451Y-79064200D01*
X155459309Y-80508059D01*
X155470698Y-80565315D01*
X155548567Y-80753309D01*
X155661617Y-80922499D01*
X155805501Y-81066383D01*
X155974691Y-81179433D01*
X156162685Y-81257302D01*
X156362258Y-81297000D01*
X156565742Y-81297000D01*
X156765315Y-81257302D01*
X156953309Y-81179433D01*
X157001848Y-81147000D01*
X157774651Y-81147000D01*
X158107387Y-81479736D01*
X157687927Y-81396300D01*
X157170473Y-81396300D01*
X156662962Y-81497251D01*
X156184896Y-81695272D01*
X155754649Y-81982754D01*
X155388754Y-82348649D01*
X155101272Y-82778896D01*
X154903251Y-83256962D01*
X154802300Y-83764473D01*
X154802300Y-84281927D01*
X154903251Y-84789438D01*
X155101272Y-85267504D01*
X155388754Y-85697751D01*
X155754649Y-86063646D01*
X156184896Y-86351128D01*
X156662962Y-86549149D01*
X157170473Y-86650100D01*
X157687927Y-86650100D01*
X158195438Y-86549149D01*
X158673504Y-86351128D01*
X159103751Y-86063646D01*
X159469646Y-85697751D01*
X159653476Y-85422630D01*
X159657777Y-85466297D01*
X159708268Y-85632743D01*
X159790260Y-85786141D01*
X159900604Y-85920596D01*
X159934304Y-85948253D01*
X163218156Y-89232107D01*
X163245804Y-89265796D01*
X163380258Y-89376140D01*
X163533656Y-89458132D01*
X163622884Y-89485199D01*
X163700101Y-89508623D01*
X163707077Y-89509310D01*
X163829827Y-89521400D01*
X163829833Y-89521400D01*
X163873199Y-89525671D01*
X163916565Y-89521400D01*
X166044210Y-89521400D01*
X166074312Y-89522445D01*
X166089270Y-89524057D01*
X166100309Y-89526111D01*
X166108283Y-89528266D01*
X166114196Y-89530400D01*
X166119130Y-89532665D01*
X166124100Y-89535474D01*
X166130023Y-89539508D01*
X166137522Y-89545562D01*
X166156881Y-89563872D01*
X166247399Y-89654390D01*
X166461630Y-89797535D01*
X166699670Y-89896134D01*
X166952373Y-89946400D01*
X167210027Y-89946400D01*
X167462730Y-89896134D01*
X167700770Y-89797535D01*
X167915001Y-89654390D01*
X168097190Y-89472201D01*
X168125400Y-89429981D01*
X168125400Y-100245799D01*
X168091658Y-100589921D01*
X168001419Y-100888807D01*
X167854845Y-101164474D01*
X167657518Y-101406421D01*
X167416954Y-101605432D01*
X167142318Y-101753927D01*
X166844067Y-101846251D01*
X166502036Y-101882200D01*
X143594201Y-101882200D01*
X143250079Y-101848458D01*
X142951193Y-101758219D01*
X142675526Y-101611645D01*
X142658059Y-101597399D01*
X142761710Y-101628841D01*
X142885800Y-101641063D01*
X143400550Y-101638000D01*
X143558800Y-101479750D01*
X143558800Y-100332000D01*
X143562800Y-100332000D01*
X143562800Y-101479750D01*
X143721050Y-101638000D01*
X144235800Y-101641063D01*
X144359890Y-101628841D01*
X144479211Y-101592646D01*
X144589178Y-101533867D01*
X144685564Y-101454764D01*
X144764667Y-101358378D01*
X144823446Y-101248411D01*
X144859641Y-101129090D01*
X144871863Y-101005000D01*
X144868800Y-100490250D01*
X144710550Y-100332000D01*
X143562800Y-100332000D01*
X143558800Y-100332000D01*
X142411050Y-100332000D01*
X142252800Y-100490250D01*
X142249737Y-101005000D01*
X142261959Y-101129090D01*
X142298154Y-101248411D01*
X142301486Y-101254645D01*
X142234568Y-101173754D01*
X142086073Y-100899118D01*
X141993749Y-100600867D01*
X141957800Y-100258836D01*
X141957800Y-99655000D01*
X142249737Y-99655000D01*
X142252800Y-100169750D01*
X142411050Y-100328000D01*
X143558800Y-100328000D01*
X143558800Y-100308000D01*
X143562800Y-100308000D01*
X143562800Y-100328000D01*
X144710550Y-100328000D01*
X144868800Y-100169750D01*
X144871863Y-99655000D01*
X144859641Y-99530910D01*
X144823446Y-99411589D01*
X144764667Y-99301622D01*
X144685564Y-99205236D01*
X144597433Y-99132907D01*
X144719935Y-98949570D01*
X144818534Y-98711530D01*
X144868800Y-98458827D01*
X144868800Y-98330751D01*
X144870493Y-98269322D01*
X144875089Y-98225896D01*
X144882595Y-98186091D01*
X144892880Y-98148843D01*
X144906072Y-98113093D01*
X144922584Y-98077784D01*
X144943044Y-98042054D01*
X144968245Y-98005243D01*
X144999022Y-97966975D01*
X145043519Y-97919254D01*
X145797660Y-97165114D01*
X145826580Y-97141380D01*
X145921303Y-97025960D01*
X145991689Y-96894277D01*
X146035032Y-96751394D01*
X146046000Y-96640032D01*
X146046000Y-96640031D01*
X146049667Y-96602800D01*
X146046000Y-96565568D01*
X146046000Y-95702473D01*
X146547300Y-95702473D01*
X146547300Y-96219927D01*
X146648251Y-96727438D01*
X146846272Y-97205504D01*
X147133754Y-97635751D01*
X147499649Y-98001646D01*
X147929896Y-98289128D01*
X148407962Y-98487149D01*
X148915473Y-98588100D01*
X149432927Y-98588100D01*
X149940438Y-98487149D01*
X150418504Y-98289128D01*
X150848751Y-98001646D01*
X151214646Y-97635751D01*
X151502128Y-97205504D01*
X151700149Y-96727438D01*
X151801100Y-96219927D01*
X151801100Y-95748754D01*
X162257200Y-95748754D01*
X162257200Y-96173646D01*
X162340092Y-96590374D01*
X162502691Y-96982923D01*
X162738749Y-97336207D01*
X163039193Y-97636651D01*
X163392477Y-97872709D01*
X163785026Y-98035308D01*
X164201754Y-98118200D01*
X164626646Y-98118200D01*
X165043374Y-98035308D01*
X165435923Y-97872709D01*
X165789207Y-97636651D01*
X166089651Y-97336207D01*
X166325709Y-96982923D01*
X166488308Y-96590374D01*
X166571200Y-96173646D01*
X166571200Y-95748754D01*
X166488308Y-95332026D01*
X166325709Y-94939477D01*
X166089651Y-94586193D01*
X165789207Y-94285749D01*
X165435923Y-94049691D01*
X165043374Y-93887092D01*
X164626646Y-93804200D01*
X164201754Y-93804200D01*
X163785026Y-93887092D01*
X163392477Y-94049691D01*
X163039193Y-94285749D01*
X162738749Y-94586193D01*
X162502691Y-94939477D01*
X162340092Y-95332026D01*
X162257200Y-95748754D01*
X151801100Y-95748754D01*
X151801100Y-95702473D01*
X151700149Y-95194962D01*
X151502128Y-94716896D01*
X151214646Y-94286649D01*
X150848751Y-93920754D01*
X150418504Y-93633272D01*
X149940438Y-93435251D01*
X149432927Y-93334300D01*
X148915473Y-93334300D01*
X148407962Y-93435251D01*
X147929896Y-93633272D01*
X147499649Y-93920754D01*
X147133754Y-94286649D01*
X146846272Y-94716896D01*
X146648251Y-95194962D01*
X146547300Y-95702473D01*
X146046000Y-95702473D01*
X146046000Y-87723282D01*
X146090383Y-87678899D01*
X146203433Y-87509709D01*
X146281302Y-87321715D01*
X146321000Y-87122142D01*
X146321000Y-86918658D01*
X146281302Y-86719085D01*
X146203433Y-86531091D01*
X146090383Y-86361901D01*
X145946499Y-86218017D01*
X145777309Y-86104967D01*
X145589315Y-86027098D01*
X145389742Y-85987400D01*
X145186258Y-85987400D01*
X144986685Y-86027098D01*
X144798691Y-86104967D01*
X144629501Y-86218017D01*
X144485617Y-86361901D01*
X144372567Y-86531091D01*
X144294698Y-86719085D01*
X144255000Y-86918658D01*
X144255000Y-86995067D01*
X144073691Y-87070167D01*
X143904501Y-87183217D01*
X143760617Y-87327101D01*
X143647567Y-87496291D01*
X143569698Y-87684285D01*
X143530000Y-87883858D01*
X143530000Y-88087342D01*
X143569698Y-88286915D01*
X143647567Y-88474909D01*
X143760617Y-88644099D01*
X143830235Y-88713717D01*
X143843850Y-88728042D01*
X143857612Y-88744297D01*
X143879201Y-88772220D01*
X143906850Y-88810706D01*
X143939418Y-88858881D01*
X143976214Y-88916173D01*
X144016726Y-88982076D01*
X144060749Y-89056462D01*
X144079991Y-89090072D01*
X144079990Y-95359305D01*
X144073691Y-95361914D01*
X143904501Y-95474964D01*
X143760617Y-95618848D01*
X143647567Y-95788038D01*
X143569698Y-95976032D01*
X143530000Y-96175605D01*
X143530000Y-96379089D01*
X143569698Y-96578662D01*
X143647567Y-96766656D01*
X143760617Y-96935846D01*
X143799368Y-96974597D01*
X143777706Y-96984727D01*
X143741956Y-96997919D01*
X143704708Y-97008204D01*
X143664903Y-97015710D01*
X143621463Y-97020307D01*
X143560072Y-97022000D01*
X143431973Y-97022000D01*
X143179270Y-97072266D01*
X142941230Y-97170865D01*
X142726999Y-97314010D01*
X142544810Y-97496199D01*
X142401665Y-97710430D01*
X142303066Y-97948470D01*
X142252800Y-98201173D01*
X142252800Y-98458827D01*
X142303066Y-98711530D01*
X142401665Y-98949570D01*
X142524167Y-99132907D01*
X142436036Y-99205236D01*
X142356933Y-99301622D01*
X142298154Y-99411589D01*
X142261959Y-99530910D01*
X142249737Y-99655000D01*
X141957800Y-99655000D01*
X141957800Y-80416258D01*
X142070600Y-80416258D01*
X142070600Y-80619742D01*
X142110298Y-80819315D01*
X142188167Y-81007309D01*
X142301217Y-81176499D01*
X142445101Y-81320383D01*
X142614291Y-81433433D01*
X142802285Y-81511302D01*
X143001858Y-81551000D01*
X143064627Y-81551000D01*
X143167453Y-81653826D01*
X143167453Y-81716595D01*
X143207151Y-81916168D01*
X143285020Y-82104162D01*
X143398070Y-82273352D01*
X143541954Y-82417236D01*
X143711144Y-82530286D01*
X143899138Y-82608155D01*
X144098711Y-82647853D01*
X144302195Y-82647853D01*
X144501768Y-82608155D01*
X144689762Y-82530286D01*
X144858952Y-82417236D01*
X145002836Y-82273352D01*
X145115886Y-82104162D01*
X145193755Y-81916168D01*
X145233453Y-81716595D01*
X145233453Y-81513111D01*
X145193755Y-81313538D01*
X145115886Y-81125544D01*
X145002836Y-80956354D01*
X144858952Y-80812470D01*
X144689762Y-80699420D01*
X144501768Y-80621551D01*
X144302195Y-80581853D01*
X144239426Y-80581853D01*
X144136600Y-80479027D01*
X144136600Y-80416258D01*
X144096902Y-80216685D01*
X144019033Y-80028691D01*
X143905983Y-79859501D01*
X143762099Y-79715617D01*
X143592909Y-79602567D01*
X143404915Y-79524698D01*
X143205342Y-79485000D01*
X143001858Y-79485000D01*
X142802285Y-79524698D01*
X142614291Y-79602567D01*
X142445101Y-79715617D01*
X142301217Y-79859501D01*
X142188167Y-80028691D01*
X142110298Y-80216685D01*
X142070600Y-80416258D01*
X141957800Y-80416258D01*
X141957800Y-71826473D01*
X146547300Y-71826473D01*
X146547300Y-72343927D01*
X146648251Y-72851438D01*
X146846272Y-73329504D01*
X147133754Y-73759751D01*
X147499649Y-74125646D01*
X147929896Y-74413128D01*
X148407962Y-74611149D01*
X148915473Y-74712100D01*
X149432927Y-74712100D01*
X149940438Y-74611149D01*
X150418504Y-74413128D01*
X150848751Y-74125646D01*
X151214646Y-73759751D01*
X151502128Y-73329504D01*
X151700149Y-72851438D01*
X151801100Y-72343927D01*
X151801100Y-71872754D01*
X162257200Y-71872754D01*
X162257200Y-72297646D01*
X162340092Y-72714374D01*
X162502691Y-73106923D01*
X162738749Y-73460207D01*
X163039193Y-73760651D01*
X163392477Y-73996709D01*
X163785026Y-74159308D01*
X164201754Y-74242200D01*
X164626646Y-74242200D01*
X165043374Y-74159308D01*
X165435923Y-73996709D01*
X165789207Y-73760651D01*
X166089651Y-73460207D01*
X166325709Y-73106923D01*
X166488308Y-72714374D01*
X166571200Y-72297646D01*
X166571200Y-71872754D01*
X166488308Y-71456026D01*
X166325709Y-71063477D01*
X166089651Y-70710193D01*
X165789207Y-70409749D01*
X165435923Y-70173691D01*
X165043374Y-70011092D01*
X164626646Y-69928200D01*
X164201754Y-69928200D01*
X163785026Y-70011092D01*
X163392477Y-70173691D01*
X163039193Y-70409749D01*
X162738749Y-70710193D01*
X162502691Y-71063477D01*
X162340092Y-71456026D01*
X162257200Y-71872754D01*
X151801100Y-71872754D01*
X151801100Y-71826473D01*
X151700149Y-71318962D01*
X151502128Y-70840896D01*
X151214646Y-70410649D01*
X150907855Y-70103858D01*
X151468600Y-70103858D01*
X151468600Y-70307342D01*
X151508298Y-70506915D01*
X151586167Y-70694909D01*
X151699217Y-70864099D01*
X151843101Y-71007983D01*
X152012291Y-71121033D01*
X152200285Y-71198902D01*
X152399858Y-71238600D01*
X152603342Y-71238600D01*
X152802915Y-71198902D01*
X152990909Y-71121033D01*
X153039448Y-71088600D01*
X156840552Y-71088600D01*
X156889091Y-71121033D01*
X157077085Y-71198902D01*
X157276658Y-71238600D01*
X157480142Y-71238600D01*
X157679715Y-71198902D01*
X157867709Y-71121033D01*
X158036899Y-71007983D01*
X158180783Y-70864099D01*
X158293833Y-70694909D01*
X158371702Y-70506915D01*
X158411400Y-70307342D01*
X158411400Y-70103858D01*
X158371702Y-69904285D01*
X158293833Y-69716291D01*
X158180783Y-69547101D01*
X158036899Y-69403217D01*
X157867709Y-69290167D01*
X157679715Y-69212298D01*
X157480142Y-69172600D01*
X157276658Y-69172600D01*
X157077085Y-69212298D01*
X156889091Y-69290167D01*
X156840552Y-69322600D01*
X153039448Y-69322600D01*
X152990909Y-69290167D01*
X152802915Y-69212298D01*
X152603342Y-69172600D01*
X152399858Y-69172600D01*
X152200285Y-69212298D01*
X152012291Y-69290167D01*
X151843101Y-69403217D01*
X151699217Y-69547101D01*
X151586167Y-69716291D01*
X151508298Y-69904285D01*
X151468600Y-70103858D01*
X150907855Y-70103858D01*
X150848751Y-70044754D01*
X150418504Y-69757272D01*
X149940438Y-69559251D01*
X149432927Y-69458300D01*
X148915473Y-69458300D01*
X148407962Y-69559251D01*
X147929896Y-69757272D01*
X147499649Y-70044754D01*
X147133754Y-70410649D01*
X146846272Y-70840896D01*
X146648251Y-71318962D01*
X146547300Y-71826473D01*
X141957800Y-71826473D01*
X141957800Y-67800602D01*
X141977743Y-67597200D01*
X149487000Y-67597200D01*
X149487000Y-68147200D01*
X149509160Y-68368199D01*
X149574009Y-68580628D01*
X149679055Y-68776324D01*
X149820261Y-68947766D01*
X149992201Y-69088366D01*
X150188267Y-69192721D01*
X150400924Y-69256820D01*
X150440785Y-69263936D01*
X150618000Y-69119948D01*
X150618000Y-67597200D01*
X149487000Y-67597200D01*
X141977743Y-67597200D01*
X141991542Y-67456477D01*
X142081781Y-67157593D01*
X142142604Y-67043200D01*
X149487000Y-67043200D01*
X149487000Y-67593200D01*
X150618000Y-67593200D01*
X150618000Y-66070452D01*
X150622000Y-66070452D01*
X150622000Y-67593200D01*
X150642000Y-67593200D01*
X150642000Y-67597200D01*
X150622000Y-67597200D01*
X150622000Y-69119948D01*
X150799215Y-69263936D01*
X150839076Y-69256820D01*
X151051733Y-69192721D01*
X151247799Y-69088366D01*
X151419739Y-68947766D01*
X151560945Y-68776324D01*
X151665991Y-68580628D01*
X151730840Y-68368199D01*
X151753000Y-68147200D01*
X151753000Y-67979110D01*
X151770562Y-67986384D01*
X151955645Y-68023200D01*
X152144355Y-68023200D01*
X152329438Y-67986384D01*
X152503783Y-67914168D01*
X152660689Y-67809327D01*
X152794127Y-67675889D01*
X152898968Y-67518983D01*
X152971184Y-67344638D01*
X153008000Y-67159555D01*
X153008000Y-66970845D01*
X156872000Y-66970845D01*
X156872000Y-67159555D01*
X156908816Y-67344638D01*
X156981032Y-67518983D01*
X157085873Y-67675889D01*
X157219311Y-67809327D01*
X157376217Y-67914168D01*
X157550562Y-67986384D01*
X157735645Y-68023200D01*
X157924355Y-68023200D01*
X158109438Y-67986384D01*
X158127000Y-67979110D01*
X158127000Y-68147200D01*
X158149160Y-68368199D01*
X158214009Y-68580628D01*
X158319055Y-68776324D01*
X158460261Y-68947766D01*
X158632201Y-69088366D01*
X158828267Y-69192721D01*
X159040924Y-69256820D01*
X159080785Y-69263936D01*
X159258000Y-69119948D01*
X159258000Y-67597200D01*
X159262000Y-67597200D01*
X159262000Y-69119948D01*
X159439215Y-69263936D01*
X159479076Y-69256820D01*
X159691733Y-69192721D01*
X159887799Y-69088366D01*
X160059739Y-68947766D01*
X160200945Y-68776324D01*
X160305991Y-68580628D01*
X160370840Y-68368199D01*
X160393000Y-68147200D01*
X160393000Y-67597200D01*
X159262000Y-67597200D01*
X159258000Y-67597200D01*
X159238000Y-67597200D01*
X159238000Y-67593200D01*
X159258000Y-67593200D01*
X159258000Y-66070452D01*
X159262000Y-66070452D01*
X159262000Y-67593200D01*
X160393000Y-67593200D01*
X160393000Y-67043200D01*
X160370840Y-66822201D01*
X160305991Y-66609772D01*
X160200945Y-66414076D01*
X160059739Y-66242634D01*
X159887799Y-66102034D01*
X159691733Y-65997679D01*
X159479076Y-65933580D01*
X159439215Y-65926464D01*
X159262000Y-66070452D01*
X159258000Y-66070452D01*
X159080785Y-65926464D01*
X159040924Y-65933580D01*
X158828267Y-65997679D01*
X158632201Y-66102034D01*
X158460261Y-66242634D01*
X158411642Y-66301664D01*
X158283783Y-66216232D01*
X158109438Y-66144016D01*
X157924355Y-66107200D01*
X157735645Y-66107200D01*
X157550562Y-66144016D01*
X157376217Y-66216232D01*
X157219311Y-66321073D01*
X157085873Y-66454511D01*
X156981032Y-66611417D01*
X156908816Y-66785762D01*
X156872000Y-66970845D01*
X153008000Y-66970845D01*
X152971184Y-66785762D01*
X152898968Y-66611417D01*
X152794127Y-66454511D01*
X152660689Y-66321073D01*
X152503783Y-66216232D01*
X152329438Y-66144016D01*
X152144355Y-66107200D01*
X151955645Y-66107200D01*
X151770562Y-66144016D01*
X151596217Y-66216232D01*
X151468358Y-66301664D01*
X151419739Y-66242634D01*
X151247799Y-66102034D01*
X151051733Y-65997679D01*
X150839076Y-65933580D01*
X150799215Y-65926464D01*
X150622000Y-66070452D01*
X150618000Y-66070452D01*
X150440785Y-65926464D01*
X150400924Y-65933580D01*
X150188267Y-65997679D01*
X149992201Y-66102034D01*
X149820261Y-66242634D01*
X149679055Y-66414076D01*
X149574009Y-66609772D01*
X149509160Y-66822201D01*
X149487000Y-67043200D01*
X142142604Y-67043200D01*
X142228355Y-66881926D01*
X142425682Y-66639979D01*
X142666245Y-66440968D01*
X142940883Y-66292473D01*
X143239132Y-66200149D01*
X143581334Y-66164183D01*
X147000969Y-66161372D01*
X147030351Y-66158454D01*
X147042728Y-66158540D01*
X147052218Y-66157609D01*
X147440411Y-66116808D01*
X147501052Y-66104360D01*
X147561857Y-66092761D01*
X147570984Y-66090006D01*
X147570990Y-66090004D01*
X147943861Y-65974581D01*
X148000903Y-65950603D01*
X148058324Y-65927403D01*
X148066744Y-65922926D01*
X148410099Y-65737275D01*
X148461416Y-65702661D01*
X148513219Y-65668762D01*
X148520609Y-65662735D01*
X148821364Y-65413928D01*
X148864971Y-65370015D01*
X148909211Y-65326692D01*
X148915290Y-65319344D01*
X149161991Y-65016860D01*
X149196238Y-64965313D01*
X149231221Y-64914221D01*
X149235757Y-64905833D01*
X149419007Y-64561191D01*
X149442590Y-64503973D01*
X149466983Y-64447059D01*
X149469803Y-64437949D01*
X149565231Y-64121875D01*
X149574009Y-64150628D01*
X149679055Y-64346324D01*
X149820261Y-64517766D01*
X149992201Y-64658366D01*
X150188267Y-64762721D01*
X150400924Y-64826820D01*
X150440785Y-64833936D01*
X150618000Y-64689948D01*
X150618000Y-63417200D01*
X150622000Y-63417200D01*
X150622000Y-64689948D01*
X150799215Y-64833936D01*
X150839076Y-64826820D01*
X151051733Y-64762721D01*
X151247799Y-64658366D01*
X151419739Y-64517766D01*
X151560945Y-64346324D01*
X151665991Y-64150628D01*
X151730840Y-63938199D01*
X151753000Y-63717200D01*
X151753000Y-63417200D01*
X158127000Y-63417200D01*
X158127000Y-63717200D01*
X158149160Y-63938199D01*
X158214009Y-64150628D01*
X158319055Y-64346324D01*
X158460261Y-64517766D01*
X158632201Y-64658366D01*
X158828267Y-64762721D01*
X159040924Y-64826820D01*
X159080785Y-64833936D01*
X159258000Y-64689948D01*
X159258000Y-63417200D01*
X158127000Y-63417200D01*
X151753000Y-63417200D01*
X150622000Y-63417200D01*
X150618000Y-63417200D01*
X150598000Y-63417200D01*
X150598000Y-63413200D01*
X150618000Y-63413200D01*
X150618000Y-63393200D01*
X150622000Y-63393200D01*
X150622000Y-63413200D01*
X151753000Y-63413200D01*
X151753000Y-63113200D01*
X151735853Y-62942199D01*
X158144147Y-62942199D01*
X158127000Y-63113200D01*
%TA.AperFunction,Conductor*%
D20*
G36*
X158127000Y-63113200D02*
G01*
X158127000Y-63413200D01*
X159258000Y-63413200D01*
X159258000Y-63393200D01*
X159262000Y-63393200D01*
X159262000Y-63413200D01*
X159282000Y-63413200D01*
X159282000Y-63417200D01*
X159262000Y-63417200D01*
X159262000Y-64689948D01*
X159439215Y-64833936D01*
X159479076Y-64826820D01*
X159691733Y-64762721D01*
X159887799Y-64658366D01*
X160059739Y-64517766D01*
X160200945Y-64346324D01*
X160305991Y-64150628D01*
X160343682Y-64027163D01*
X160352501Y-64073395D01*
X160355257Y-64082524D01*
X160470681Y-64455399D01*
X160494659Y-64512441D01*
X160517859Y-64569862D01*
X160522336Y-64578282D01*
X160707987Y-64921637D01*
X160742601Y-64972954D01*
X160776500Y-65024757D01*
X160782527Y-65032147D01*
X161031334Y-65332902D01*
X161075247Y-65376509D01*
X161118570Y-65420749D01*
X161125918Y-65426828D01*
X161428402Y-65673529D01*
X161479949Y-65707776D01*
X161531041Y-65742759D01*
X161539429Y-65747295D01*
X161884071Y-65930545D01*
X161941289Y-65954128D01*
X161998203Y-65978521D01*
X162007313Y-65981341D01*
X162380984Y-66094159D01*
X162441709Y-66106183D01*
X162502259Y-66119053D01*
X162511743Y-66120050D01*
X162900212Y-66158140D01*
X162900216Y-66158140D01*
X162932779Y-66161373D01*
X166488727Y-66164173D01*
X166833123Y-66197942D01*
X167132007Y-66288181D01*
X167407674Y-66434755D01*
X167649621Y-66632082D01*
X167848632Y-66872645D01*
X167997127Y-67147283D01*
X168089451Y-67445532D01*
X168125401Y-67787582D01*
X168125401Y-77447519D01*
X168109578Y-77434533D01*
X167999611Y-77375754D01*
X167880290Y-77339559D01*
X167756200Y-77327337D01*
X167241450Y-77330400D01*
X167083200Y-77488650D01*
X167083200Y-78636400D01*
X167103200Y-78636400D01*
X167103200Y-78640400D01*
X167083200Y-78640400D01*
X167083200Y-78660400D01*
X167079200Y-78660400D01*
X167079200Y-78640400D01*
X165931450Y-78640400D01*
X165773200Y-78798650D01*
X165770137Y-79313400D01*
X165782359Y-79437490D01*
X165818554Y-79556811D01*
X165877333Y-79666778D01*
X165956436Y-79763164D01*
X166044567Y-79835493D01*
X165922065Y-80018830D01*
X165823466Y-80256870D01*
X165773200Y-80509573D01*
X165773200Y-80767227D01*
X165823466Y-81019930D01*
X165922065Y-81257970D01*
X166065210Y-81472201D01*
X166231409Y-81638400D01*
X166065210Y-81804599D01*
X165922065Y-82018830D01*
X165823466Y-82256870D01*
X165773200Y-82509573D01*
X165773200Y-82767227D01*
X165823466Y-83019930D01*
X165922065Y-83257970D01*
X166065210Y-83472201D01*
X166231409Y-83638400D01*
X166065210Y-83804599D01*
X165922065Y-84018830D01*
X165823466Y-84256870D01*
X165773200Y-84509573D01*
X165773200Y-84767227D01*
X165823466Y-85019930D01*
X165922065Y-85257970D01*
X166065210Y-85472201D01*
X166231409Y-85638400D01*
X166065210Y-85804599D01*
X165922065Y-86018830D01*
X165823466Y-86256870D01*
X165773200Y-86509573D01*
X165773200Y-86767227D01*
X165823466Y-87019930D01*
X165922065Y-87257970D01*
X166065210Y-87472201D01*
X166231409Y-87638400D01*
X166156881Y-87712928D01*
X166137522Y-87731238D01*
X166130023Y-87737292D01*
X166124100Y-87741326D01*
X166119130Y-87744135D01*
X166114196Y-87746400D01*
X166108283Y-87748534D01*
X166100309Y-87750689D01*
X166089270Y-87752743D01*
X166074312Y-87754355D01*
X166044210Y-87755400D01*
X164238951Y-87755400D01*
X161877225Y-85393676D01*
X162069332Y-85473249D01*
X162360675Y-85531200D01*
X162657725Y-85531200D01*
X162949068Y-85473249D01*
X163223506Y-85359573D01*
X163470494Y-85194540D01*
X163680540Y-84984494D01*
X163845573Y-84737506D01*
X163959249Y-84463068D01*
X164017200Y-84171725D01*
X164017200Y-83874675D01*
X163959249Y-83583332D01*
X163845573Y-83308894D01*
X163680540Y-83061906D01*
X163470494Y-82851860D01*
X163223506Y-82686827D01*
X162949068Y-82573151D01*
X162657725Y-82515200D01*
X162360675Y-82515200D01*
X162069332Y-82573151D01*
X161794894Y-82686827D01*
X161547906Y-82851860D01*
X161411000Y-82988766D01*
X161411000Y-82694965D01*
X161415271Y-82651599D01*
X161411000Y-82608233D01*
X161411000Y-82608227D01*
X161398223Y-82478502D01*
X161347732Y-82312056D01*
X161265740Y-82158658D01*
X161155396Y-82024204D01*
X161121707Y-81996556D01*
X159822720Y-80697570D01*
X159901845Y-80708423D01*
X160247517Y-80687645D01*
X160582494Y-80599829D01*
X160893903Y-80448350D01*
X161005908Y-80373509D01*
X161104994Y-80081822D01*
X159969200Y-78946028D01*
X159955058Y-78960171D01*
X159952230Y-78957343D01*
X159966372Y-78943200D01*
X159972028Y-78943200D01*
X161107822Y-80078994D01*
X161399509Y-79979908D01*
X161574277Y-79680949D01*
X161687364Y-79353638D01*
X161734423Y-79010555D01*
X161713645Y-78664883D01*
X161625829Y-78329906D01*
X161474350Y-78018497D01*
X161437535Y-77963400D01*
X165770137Y-77963400D01*
X165773200Y-78478150D01*
X165931450Y-78636400D01*
X167079200Y-78636400D01*
X167079200Y-77488650D01*
X166920950Y-77330400D01*
X166406200Y-77327337D01*
X166282110Y-77339559D01*
X166162789Y-77375754D01*
X166052822Y-77434533D01*
X165956436Y-77513636D01*
X165877333Y-77610022D01*
X165818554Y-77719989D01*
X165782359Y-77839310D01*
X165770137Y-77963400D01*
X161437535Y-77963400D01*
X161399509Y-77906492D01*
X161107822Y-77807406D01*
X159972028Y-78943200D01*
X159966372Y-78943200D01*
X158830578Y-77807406D01*
X158538891Y-77906492D01*
X158364123Y-78205451D01*
X158251036Y-78532762D01*
X158203977Y-78875845D01*
X158224755Y-79221517D01*
X158268759Y-79389370D01*
X158183773Y-79381000D01*
X158183766Y-79381000D01*
X158140400Y-79376729D01*
X158097034Y-79381000D01*
X157001848Y-79381000D01*
X156953309Y-79348567D01*
X156765315Y-79270698D01*
X156708059Y-79259309D01*
X155253328Y-77804578D01*
X158833406Y-77804578D01*
X159969200Y-78940372D01*
X161104994Y-77804578D01*
X161005908Y-77512891D01*
X160706949Y-77338123D01*
X160379638Y-77225036D01*
X160036555Y-77177977D01*
X159690883Y-77198755D01*
X159355906Y-77286571D01*
X159044497Y-77438050D01*
X158932492Y-77512891D01*
X158833406Y-77804578D01*
X155253328Y-77804578D01*
X155036253Y-77587504D01*
X155008596Y-77553804D01*
X154874142Y-77443460D01*
X154720744Y-77361468D01*
X154554298Y-77310977D01*
X154424573Y-77298200D01*
X154424566Y-77298200D01*
X154381200Y-77293929D01*
X154337834Y-77298200D01*
X149192165Y-77298200D01*
X149148799Y-77293929D01*
X149105433Y-77298200D01*
X149105427Y-77298200D01*
X148993927Y-77309182D01*
X148975701Y-77310977D01*
X148925210Y-77326294D01*
X148809256Y-77361468D01*
X148655858Y-77443460D01*
X148521404Y-77553804D01*
X148493756Y-77587493D01*
X147132699Y-78948552D01*
X147099005Y-78976204D01*
X146988661Y-79110658D01*
X146975804Y-79134712D01*
X146906669Y-79264056D01*
X146856177Y-79430502D01*
X146839129Y-79603600D01*
X146843401Y-79646975D01*
X146843400Y-80589751D01*
X146810967Y-80638291D01*
X146733098Y-80826285D01*
X146693400Y-81025858D01*
X146693400Y-81229342D01*
X146733098Y-81428915D01*
X146810967Y-81616909D01*
X146843401Y-81665449D01*
X146843400Y-89110634D01*
X146839129Y-89154000D01*
X146843400Y-89197366D01*
X146843400Y-89197372D01*
X146856177Y-89327097D01*
X146906668Y-89493543D01*
X146988660Y-89646941D01*
X147099004Y-89781396D01*
X147132704Y-89809053D01*
X148296509Y-90972859D01*
X148307898Y-91030115D01*
X148385767Y-91218109D01*
X148498817Y-91387299D01*
X148642701Y-91531183D01*
X148811891Y-91644233D01*
X148999885Y-91722102D01*
X149199458Y-91761800D01*
X149402942Y-91761800D01*
X149602515Y-91722102D01*
X149790509Y-91644233D01*
X149959699Y-91531183D01*
X150103583Y-91387299D01*
X150216633Y-91218109D01*
X150294502Y-91030115D01*
X150334200Y-90830542D01*
X150334200Y-90627058D01*
X150294502Y-90427485D01*
X150216633Y-90239491D01*
X150103583Y-90070301D01*
X149959699Y-89926417D01*
X149790509Y-89813367D01*
X149602515Y-89735498D01*
X149545259Y-89724109D01*
X148768192Y-88947042D01*
X154573700Y-88947042D01*
X154573700Y-89259358D01*
X154634629Y-89565673D01*
X154754148Y-89854216D01*
X154927661Y-90113898D01*
X155148502Y-90334739D01*
X155408184Y-90508252D01*
X155696727Y-90627771D01*
X156003042Y-90688700D01*
X156315358Y-90688700D01*
X156621673Y-90627771D01*
X156910216Y-90508252D01*
X157169898Y-90334739D01*
X157175243Y-90329394D01*
X157217834Y-90409077D01*
X157296936Y-90505464D01*
X157393323Y-90584566D01*
X157503290Y-90643345D01*
X157622610Y-90679540D01*
X157746700Y-90691762D01*
X159651700Y-90691762D01*
X159775790Y-90679540D01*
X159895110Y-90643345D01*
X160005077Y-90584566D01*
X160101464Y-90505464D01*
X160180566Y-90409077D01*
X160239345Y-90299110D01*
X160275540Y-90179790D01*
X160287762Y-90055700D01*
X160287762Y-88150700D01*
X160275540Y-88026610D01*
X160239345Y-87907290D01*
X160180566Y-87797323D01*
X160101464Y-87700936D01*
X160005077Y-87621834D01*
X159895110Y-87563055D01*
X159775790Y-87526860D01*
X159651700Y-87514638D01*
X157746700Y-87514638D01*
X157622610Y-87526860D01*
X157503290Y-87563055D01*
X157393323Y-87621834D01*
X157296936Y-87700936D01*
X157217834Y-87797323D01*
X157175243Y-87877006D01*
X157169898Y-87871661D01*
X156910216Y-87698148D01*
X156621673Y-87578629D01*
X156315358Y-87517700D01*
X156003042Y-87517700D01*
X155696727Y-87578629D01*
X155408184Y-87698148D01*
X155148502Y-87871661D01*
X154927661Y-88092502D01*
X154754148Y-88352184D01*
X154634629Y-88640727D01*
X154573700Y-88947042D01*
X148768192Y-88947042D01*
X148609400Y-88788251D01*
X148609400Y-83874675D01*
X150841200Y-83874675D01*
X150841200Y-84171725D01*
X150899151Y-84463068D01*
X151012827Y-84737506D01*
X151177860Y-84984494D01*
X151387906Y-85194540D01*
X151634894Y-85359573D01*
X151909332Y-85473249D01*
X152200675Y-85531200D01*
X152497725Y-85531200D01*
X152789068Y-85473249D01*
X153063506Y-85359573D01*
X153310494Y-85194540D01*
X153520540Y-84984494D01*
X153685573Y-84737506D01*
X153799249Y-84463068D01*
X153857200Y-84171725D01*
X153857200Y-83874675D01*
X153799249Y-83583332D01*
X153685573Y-83308894D01*
X153640341Y-83241200D01*
X153792348Y-83241200D01*
X154131990Y-83173641D01*
X154451925Y-83041119D01*
X154739860Y-82848728D01*
X154984728Y-82603860D01*
X155177119Y-82315925D01*
X155309641Y-81995990D01*
X155377200Y-81656348D01*
X155377200Y-81310052D01*
X155309641Y-80970410D01*
X155177119Y-80650475D01*
X154984728Y-80362540D01*
X154739860Y-80117672D01*
X154451925Y-79925281D01*
X154131990Y-79792759D01*
X153792348Y-79725200D01*
X153446052Y-79725200D01*
X153106410Y-79792759D01*
X152786475Y-79925281D01*
X152498540Y-80117672D01*
X152253672Y-80362540D01*
X152061281Y-80650475D01*
X151928759Y-80970410D01*
X151861200Y-81310052D01*
X151861200Y-81656348D01*
X151928759Y-81995990D01*
X152061281Y-82315925D01*
X152195164Y-82516296D01*
X151909332Y-82573151D01*
X151634894Y-82686827D01*
X151387906Y-82851860D01*
X151177860Y-83061906D01*
X151012827Y-83308894D01*
X150899151Y-83583332D01*
X150841200Y-83874675D01*
X148609400Y-83874675D01*
X148609400Y-81665448D01*
X148641833Y-81616909D01*
X148719702Y-81428915D01*
X148759400Y-81229342D01*
X148759400Y-81025858D01*
X148719702Y-80826285D01*
X148641833Y-80638291D01*
X148609400Y-80589752D01*
X148609400Y-79969349D01*
X149514551Y-79064200D01*
X154015451Y-79064200D01*
X155459309Y-80508059D01*
X155470698Y-80565315D01*
X155548567Y-80753309D01*
X155661617Y-80922499D01*
X155805501Y-81066383D01*
X155974691Y-81179433D01*
X156162685Y-81257302D01*
X156362258Y-81297000D01*
X156565742Y-81297000D01*
X156765315Y-81257302D01*
X156953309Y-81179433D01*
X157001848Y-81147000D01*
X157774651Y-81147000D01*
X158107387Y-81479736D01*
X157687927Y-81396300D01*
X157170473Y-81396300D01*
X156662962Y-81497251D01*
X156184896Y-81695272D01*
X155754649Y-81982754D01*
X155388754Y-82348649D01*
X155101272Y-82778896D01*
X154903251Y-83256962D01*
X154802300Y-83764473D01*
X154802300Y-84281927D01*
X154903251Y-84789438D01*
X155101272Y-85267504D01*
X155388754Y-85697751D01*
X155754649Y-86063646D01*
X156184896Y-86351128D01*
X156662962Y-86549149D01*
X157170473Y-86650100D01*
X157687927Y-86650100D01*
X158195438Y-86549149D01*
X158673504Y-86351128D01*
X159103751Y-86063646D01*
X159469646Y-85697751D01*
X159653476Y-85422630D01*
X159657777Y-85466297D01*
X159708268Y-85632743D01*
X159790260Y-85786141D01*
X159900604Y-85920596D01*
X159934304Y-85948253D01*
X163218156Y-89232107D01*
X163245804Y-89265796D01*
X163380258Y-89376140D01*
X163533656Y-89458132D01*
X163622884Y-89485199D01*
X163700101Y-89508623D01*
X163707077Y-89509310D01*
X163829827Y-89521400D01*
X163829833Y-89521400D01*
X163873199Y-89525671D01*
X163916565Y-89521400D01*
X166044210Y-89521400D01*
X166074312Y-89522445D01*
X166089270Y-89524057D01*
X166100309Y-89526111D01*
X166108283Y-89528266D01*
X166114196Y-89530400D01*
X166119130Y-89532665D01*
X166124100Y-89535474D01*
X166130023Y-89539508D01*
X166137522Y-89545562D01*
X166156881Y-89563872D01*
X166247399Y-89654390D01*
X166461630Y-89797535D01*
X166699670Y-89896134D01*
X166952373Y-89946400D01*
X167210027Y-89946400D01*
X167462730Y-89896134D01*
X167700770Y-89797535D01*
X167915001Y-89654390D01*
X168097190Y-89472201D01*
X168125400Y-89429981D01*
X168125400Y-100245799D01*
X168091658Y-100589921D01*
X168001419Y-100888807D01*
X167854845Y-101164474D01*
X167657518Y-101406421D01*
X167416954Y-101605432D01*
X167142318Y-101753927D01*
X166844067Y-101846251D01*
X166502036Y-101882200D01*
X143594201Y-101882200D01*
X143250079Y-101848458D01*
X142951193Y-101758219D01*
X142675526Y-101611645D01*
X142658059Y-101597399D01*
X142761710Y-101628841D01*
X142885800Y-101641063D01*
X143400550Y-101638000D01*
X143558800Y-101479750D01*
X143558800Y-100332000D01*
X143562800Y-100332000D01*
X143562800Y-101479750D01*
X143721050Y-101638000D01*
X144235800Y-101641063D01*
X144359890Y-101628841D01*
X144479211Y-101592646D01*
X144589178Y-101533867D01*
X144685564Y-101454764D01*
X144764667Y-101358378D01*
X144823446Y-101248411D01*
X144859641Y-101129090D01*
X144871863Y-101005000D01*
X144868800Y-100490250D01*
X144710550Y-100332000D01*
X143562800Y-100332000D01*
X143558800Y-100332000D01*
X142411050Y-100332000D01*
X142252800Y-100490250D01*
X142249737Y-101005000D01*
X142261959Y-101129090D01*
X142298154Y-101248411D01*
X142301486Y-101254645D01*
X142234568Y-101173754D01*
X142086073Y-100899118D01*
X141993749Y-100600867D01*
X141957800Y-100258836D01*
X141957800Y-99655000D01*
X142249737Y-99655000D01*
X142252800Y-100169750D01*
X142411050Y-100328000D01*
X143558800Y-100328000D01*
X143558800Y-100308000D01*
X143562800Y-100308000D01*
X143562800Y-100328000D01*
X144710550Y-100328000D01*
X144868800Y-100169750D01*
X144871863Y-99655000D01*
X144859641Y-99530910D01*
X144823446Y-99411589D01*
X144764667Y-99301622D01*
X144685564Y-99205236D01*
X144597433Y-99132907D01*
X144719935Y-98949570D01*
X144818534Y-98711530D01*
X144868800Y-98458827D01*
X144868800Y-98330751D01*
X144870493Y-98269322D01*
X144875089Y-98225896D01*
X144882595Y-98186091D01*
X144892880Y-98148843D01*
X144906072Y-98113093D01*
X144922584Y-98077784D01*
X144943044Y-98042054D01*
X144968245Y-98005243D01*
X144999022Y-97966975D01*
X145043519Y-97919254D01*
X145797660Y-97165114D01*
X145826580Y-97141380D01*
X145921303Y-97025960D01*
X145991689Y-96894277D01*
X146035032Y-96751394D01*
X146046000Y-96640032D01*
X146046000Y-96640031D01*
X146049667Y-96602800D01*
X146046000Y-96565568D01*
X146046000Y-95702473D01*
X146547300Y-95702473D01*
X146547300Y-96219927D01*
X146648251Y-96727438D01*
X146846272Y-97205504D01*
X147133754Y-97635751D01*
X147499649Y-98001646D01*
X147929896Y-98289128D01*
X148407962Y-98487149D01*
X148915473Y-98588100D01*
X149432927Y-98588100D01*
X149940438Y-98487149D01*
X150418504Y-98289128D01*
X150848751Y-98001646D01*
X151214646Y-97635751D01*
X151502128Y-97205504D01*
X151700149Y-96727438D01*
X151801100Y-96219927D01*
X151801100Y-95748754D01*
X162257200Y-95748754D01*
X162257200Y-96173646D01*
X162340092Y-96590374D01*
X162502691Y-96982923D01*
X162738749Y-97336207D01*
X163039193Y-97636651D01*
X163392477Y-97872709D01*
X163785026Y-98035308D01*
X164201754Y-98118200D01*
X164626646Y-98118200D01*
X165043374Y-98035308D01*
X165435923Y-97872709D01*
X165789207Y-97636651D01*
X166089651Y-97336207D01*
X166325709Y-96982923D01*
X166488308Y-96590374D01*
X166571200Y-96173646D01*
X166571200Y-95748754D01*
X166488308Y-95332026D01*
X166325709Y-94939477D01*
X166089651Y-94586193D01*
X165789207Y-94285749D01*
X165435923Y-94049691D01*
X165043374Y-93887092D01*
X164626646Y-93804200D01*
X164201754Y-93804200D01*
X163785026Y-93887092D01*
X163392477Y-94049691D01*
X163039193Y-94285749D01*
X162738749Y-94586193D01*
X162502691Y-94939477D01*
X162340092Y-95332026D01*
X162257200Y-95748754D01*
X151801100Y-95748754D01*
X151801100Y-95702473D01*
X151700149Y-95194962D01*
X151502128Y-94716896D01*
X151214646Y-94286649D01*
X150848751Y-93920754D01*
X150418504Y-93633272D01*
X149940438Y-93435251D01*
X149432927Y-93334300D01*
X148915473Y-93334300D01*
X148407962Y-93435251D01*
X147929896Y-93633272D01*
X147499649Y-93920754D01*
X147133754Y-94286649D01*
X146846272Y-94716896D01*
X146648251Y-95194962D01*
X146547300Y-95702473D01*
X146046000Y-95702473D01*
X146046000Y-87723282D01*
X146090383Y-87678899D01*
X146203433Y-87509709D01*
X146281302Y-87321715D01*
X146321000Y-87122142D01*
X146321000Y-86918658D01*
X146281302Y-86719085D01*
X146203433Y-86531091D01*
X146090383Y-86361901D01*
X145946499Y-86218017D01*
X145777309Y-86104967D01*
X145589315Y-86027098D01*
X145389742Y-85987400D01*
X145186258Y-85987400D01*
X144986685Y-86027098D01*
X144798691Y-86104967D01*
X144629501Y-86218017D01*
X144485617Y-86361901D01*
X144372567Y-86531091D01*
X144294698Y-86719085D01*
X144255000Y-86918658D01*
X144255000Y-86995067D01*
X144073691Y-87070167D01*
X143904501Y-87183217D01*
X143760617Y-87327101D01*
X143647567Y-87496291D01*
X143569698Y-87684285D01*
X143530000Y-87883858D01*
X143530000Y-88087342D01*
X143569698Y-88286915D01*
X143647567Y-88474909D01*
X143760617Y-88644099D01*
X143830235Y-88713717D01*
X143843850Y-88728042D01*
X143857612Y-88744297D01*
X143879201Y-88772220D01*
X143906850Y-88810706D01*
X143939418Y-88858881D01*
X143976214Y-88916173D01*
X144016726Y-88982076D01*
X144060749Y-89056462D01*
X144079991Y-89090072D01*
X144079990Y-95359305D01*
X144073691Y-95361914D01*
X143904501Y-95474964D01*
X143760617Y-95618848D01*
X143647567Y-95788038D01*
X143569698Y-95976032D01*
X143530000Y-96175605D01*
X143530000Y-96379089D01*
X143569698Y-96578662D01*
X143647567Y-96766656D01*
X143760617Y-96935846D01*
X143799368Y-96974597D01*
X143777706Y-96984727D01*
X143741956Y-96997919D01*
X143704708Y-97008204D01*
X143664903Y-97015710D01*
X143621463Y-97020307D01*
X143560072Y-97022000D01*
X143431973Y-97022000D01*
X143179270Y-97072266D01*
X142941230Y-97170865D01*
X142726999Y-97314010D01*
X142544810Y-97496199D01*
X142401665Y-97710430D01*
X142303066Y-97948470D01*
X142252800Y-98201173D01*
X142252800Y-98458827D01*
X142303066Y-98711530D01*
X142401665Y-98949570D01*
X142524167Y-99132907D01*
X142436036Y-99205236D01*
X142356933Y-99301622D01*
X142298154Y-99411589D01*
X142261959Y-99530910D01*
X142249737Y-99655000D01*
X141957800Y-99655000D01*
X141957800Y-80416258D01*
X142070600Y-80416258D01*
X142070600Y-80619742D01*
X142110298Y-80819315D01*
X142188167Y-81007309D01*
X142301217Y-81176499D01*
X142445101Y-81320383D01*
X142614291Y-81433433D01*
X142802285Y-81511302D01*
X143001858Y-81551000D01*
X143064627Y-81551000D01*
X143167453Y-81653826D01*
X143167453Y-81716595D01*
X143207151Y-81916168D01*
X143285020Y-82104162D01*
X143398070Y-82273352D01*
X143541954Y-82417236D01*
X143711144Y-82530286D01*
X143899138Y-82608155D01*
X144098711Y-82647853D01*
X144302195Y-82647853D01*
X144501768Y-82608155D01*
X144689762Y-82530286D01*
X144858952Y-82417236D01*
X145002836Y-82273352D01*
X145115886Y-82104162D01*
X145193755Y-81916168D01*
X145233453Y-81716595D01*
X145233453Y-81513111D01*
X145193755Y-81313538D01*
X145115886Y-81125544D01*
X145002836Y-80956354D01*
X144858952Y-80812470D01*
X144689762Y-80699420D01*
X144501768Y-80621551D01*
X144302195Y-80581853D01*
X144239426Y-80581853D01*
X144136600Y-80479027D01*
X144136600Y-80416258D01*
X144096902Y-80216685D01*
X144019033Y-80028691D01*
X143905983Y-79859501D01*
X143762099Y-79715617D01*
X143592909Y-79602567D01*
X143404915Y-79524698D01*
X143205342Y-79485000D01*
X143001858Y-79485000D01*
X142802285Y-79524698D01*
X142614291Y-79602567D01*
X142445101Y-79715617D01*
X142301217Y-79859501D01*
X142188167Y-80028691D01*
X142110298Y-80216685D01*
X142070600Y-80416258D01*
X141957800Y-80416258D01*
X141957800Y-71826473D01*
X146547300Y-71826473D01*
X146547300Y-72343927D01*
X146648251Y-72851438D01*
X146846272Y-73329504D01*
X147133754Y-73759751D01*
X147499649Y-74125646D01*
X147929896Y-74413128D01*
X148407962Y-74611149D01*
X148915473Y-74712100D01*
X149432927Y-74712100D01*
X149940438Y-74611149D01*
X150418504Y-74413128D01*
X150848751Y-74125646D01*
X151214646Y-73759751D01*
X151502128Y-73329504D01*
X151700149Y-72851438D01*
X151801100Y-72343927D01*
X151801100Y-71872754D01*
X162257200Y-71872754D01*
X162257200Y-72297646D01*
X162340092Y-72714374D01*
X162502691Y-73106923D01*
X162738749Y-73460207D01*
X163039193Y-73760651D01*
X163392477Y-73996709D01*
X163785026Y-74159308D01*
X164201754Y-74242200D01*
X164626646Y-74242200D01*
X165043374Y-74159308D01*
X165435923Y-73996709D01*
X165789207Y-73760651D01*
X166089651Y-73460207D01*
X166325709Y-73106923D01*
X166488308Y-72714374D01*
X166571200Y-72297646D01*
X166571200Y-71872754D01*
X166488308Y-71456026D01*
X166325709Y-71063477D01*
X166089651Y-70710193D01*
X165789207Y-70409749D01*
X165435923Y-70173691D01*
X165043374Y-70011092D01*
X164626646Y-69928200D01*
X164201754Y-69928200D01*
X163785026Y-70011092D01*
X163392477Y-70173691D01*
X163039193Y-70409749D01*
X162738749Y-70710193D01*
X162502691Y-71063477D01*
X162340092Y-71456026D01*
X162257200Y-71872754D01*
X151801100Y-71872754D01*
X151801100Y-71826473D01*
X151700149Y-71318962D01*
X151502128Y-70840896D01*
X151214646Y-70410649D01*
X150907855Y-70103858D01*
X151468600Y-70103858D01*
X151468600Y-70307342D01*
X151508298Y-70506915D01*
X151586167Y-70694909D01*
X151699217Y-70864099D01*
X151843101Y-71007983D01*
X152012291Y-71121033D01*
X152200285Y-71198902D01*
X152399858Y-71238600D01*
X152603342Y-71238600D01*
X152802915Y-71198902D01*
X152990909Y-71121033D01*
X153039448Y-71088600D01*
X156840552Y-71088600D01*
X156889091Y-71121033D01*
X157077085Y-71198902D01*
X157276658Y-71238600D01*
X157480142Y-71238600D01*
X157679715Y-71198902D01*
X157867709Y-71121033D01*
X158036899Y-71007983D01*
X158180783Y-70864099D01*
X158293833Y-70694909D01*
X158371702Y-70506915D01*
X158411400Y-70307342D01*
X158411400Y-70103858D01*
X158371702Y-69904285D01*
X158293833Y-69716291D01*
X158180783Y-69547101D01*
X158036899Y-69403217D01*
X157867709Y-69290167D01*
X157679715Y-69212298D01*
X157480142Y-69172600D01*
X157276658Y-69172600D01*
X157077085Y-69212298D01*
X156889091Y-69290167D01*
X156840552Y-69322600D01*
X153039448Y-69322600D01*
X152990909Y-69290167D01*
X152802915Y-69212298D01*
X152603342Y-69172600D01*
X152399858Y-69172600D01*
X152200285Y-69212298D01*
X152012291Y-69290167D01*
X151843101Y-69403217D01*
X151699217Y-69547101D01*
X151586167Y-69716291D01*
X151508298Y-69904285D01*
X151468600Y-70103858D01*
X150907855Y-70103858D01*
X150848751Y-70044754D01*
X150418504Y-69757272D01*
X149940438Y-69559251D01*
X149432927Y-69458300D01*
X148915473Y-69458300D01*
X148407962Y-69559251D01*
X147929896Y-69757272D01*
X147499649Y-70044754D01*
X147133754Y-70410649D01*
X146846272Y-70840896D01*
X146648251Y-71318962D01*
X146547300Y-71826473D01*
X141957800Y-71826473D01*
X141957800Y-67800602D01*
X141977743Y-67597200D01*
X149487000Y-67597200D01*
X149487000Y-68147200D01*
X149509160Y-68368199D01*
X149574009Y-68580628D01*
X149679055Y-68776324D01*
X149820261Y-68947766D01*
X149992201Y-69088366D01*
X150188267Y-69192721D01*
X150400924Y-69256820D01*
X150440785Y-69263936D01*
X150618000Y-69119948D01*
X150618000Y-67597200D01*
X149487000Y-67597200D01*
X141977743Y-67597200D01*
X141991542Y-67456477D01*
X142081781Y-67157593D01*
X142142604Y-67043200D01*
X149487000Y-67043200D01*
X149487000Y-67593200D01*
X150618000Y-67593200D01*
X150618000Y-66070452D01*
X150622000Y-66070452D01*
X150622000Y-67593200D01*
X150642000Y-67593200D01*
X150642000Y-67597200D01*
X150622000Y-67597200D01*
X150622000Y-69119948D01*
X150799215Y-69263936D01*
X150839076Y-69256820D01*
X151051733Y-69192721D01*
X151247799Y-69088366D01*
X151419739Y-68947766D01*
X151560945Y-68776324D01*
X151665991Y-68580628D01*
X151730840Y-68368199D01*
X151753000Y-68147200D01*
X151753000Y-67979110D01*
X151770562Y-67986384D01*
X151955645Y-68023200D01*
X152144355Y-68023200D01*
X152329438Y-67986384D01*
X152503783Y-67914168D01*
X152660689Y-67809327D01*
X152794127Y-67675889D01*
X152898968Y-67518983D01*
X152971184Y-67344638D01*
X153008000Y-67159555D01*
X153008000Y-66970845D01*
X156872000Y-66970845D01*
X156872000Y-67159555D01*
X156908816Y-67344638D01*
X156981032Y-67518983D01*
X157085873Y-67675889D01*
X157219311Y-67809327D01*
X157376217Y-67914168D01*
X157550562Y-67986384D01*
X157735645Y-68023200D01*
X157924355Y-68023200D01*
X158109438Y-67986384D01*
X158127000Y-67979110D01*
X158127000Y-68147200D01*
X158149160Y-68368199D01*
X158214009Y-68580628D01*
X158319055Y-68776324D01*
X158460261Y-68947766D01*
X158632201Y-69088366D01*
X158828267Y-69192721D01*
X159040924Y-69256820D01*
X159080785Y-69263936D01*
X159258000Y-69119948D01*
X159258000Y-67597200D01*
X159262000Y-67597200D01*
X159262000Y-69119948D01*
X159439215Y-69263936D01*
X159479076Y-69256820D01*
X159691733Y-69192721D01*
X159887799Y-69088366D01*
X160059739Y-68947766D01*
X160200945Y-68776324D01*
X160305991Y-68580628D01*
X160370840Y-68368199D01*
X160393000Y-68147200D01*
X160393000Y-67597200D01*
X159262000Y-67597200D01*
X159258000Y-67597200D01*
X159238000Y-67597200D01*
X159238000Y-67593200D01*
X159258000Y-67593200D01*
X159258000Y-66070452D01*
X159262000Y-66070452D01*
X159262000Y-67593200D01*
X160393000Y-67593200D01*
X160393000Y-67043200D01*
X160370840Y-66822201D01*
X160305991Y-66609772D01*
X160200945Y-66414076D01*
X160059739Y-66242634D01*
X159887799Y-66102034D01*
X159691733Y-65997679D01*
X159479076Y-65933580D01*
X159439215Y-65926464D01*
X159262000Y-66070452D01*
X159258000Y-66070452D01*
X159080785Y-65926464D01*
X159040924Y-65933580D01*
X158828267Y-65997679D01*
X158632201Y-66102034D01*
X158460261Y-66242634D01*
X158411642Y-66301664D01*
X158283783Y-66216232D01*
X158109438Y-66144016D01*
X157924355Y-66107200D01*
X157735645Y-66107200D01*
X157550562Y-66144016D01*
X157376217Y-66216232D01*
X157219311Y-66321073D01*
X157085873Y-66454511D01*
X156981032Y-66611417D01*
X156908816Y-66785762D01*
X156872000Y-66970845D01*
X153008000Y-66970845D01*
X152971184Y-66785762D01*
X152898968Y-66611417D01*
X152794127Y-66454511D01*
X152660689Y-66321073D01*
X152503783Y-66216232D01*
X152329438Y-66144016D01*
X152144355Y-66107200D01*
X151955645Y-66107200D01*
X151770562Y-66144016D01*
X151596217Y-66216232D01*
X151468358Y-66301664D01*
X151419739Y-66242634D01*
X151247799Y-66102034D01*
X151051733Y-65997679D01*
X150839076Y-65933580D01*
X150799215Y-65926464D01*
X150622000Y-66070452D01*
X150618000Y-66070452D01*
X150440785Y-65926464D01*
X150400924Y-65933580D01*
X150188267Y-65997679D01*
X149992201Y-66102034D01*
X149820261Y-66242634D01*
X149679055Y-66414076D01*
X149574009Y-66609772D01*
X149509160Y-66822201D01*
X149487000Y-67043200D01*
X142142604Y-67043200D01*
X142228355Y-66881926D01*
X142425682Y-66639979D01*
X142666245Y-66440968D01*
X142940883Y-66292473D01*
X143239132Y-66200149D01*
X143581334Y-66164183D01*
X147000969Y-66161372D01*
X147030351Y-66158454D01*
X147042728Y-66158540D01*
X147052218Y-66157609D01*
X147440411Y-66116808D01*
X147501052Y-66104360D01*
X147561857Y-66092761D01*
X147570984Y-66090006D01*
X147570990Y-66090004D01*
X147943861Y-65974581D01*
X148000903Y-65950603D01*
X148058324Y-65927403D01*
X148066744Y-65922926D01*
X148410099Y-65737275D01*
X148461416Y-65702661D01*
X148513219Y-65668762D01*
X148520609Y-65662735D01*
X148821364Y-65413928D01*
X148864971Y-65370015D01*
X148909211Y-65326692D01*
X148915290Y-65319344D01*
X149161991Y-65016860D01*
X149196238Y-64965313D01*
X149231221Y-64914221D01*
X149235757Y-64905833D01*
X149419007Y-64561191D01*
X149442590Y-64503973D01*
X149466983Y-64447059D01*
X149469803Y-64437949D01*
X149565231Y-64121875D01*
X149574009Y-64150628D01*
X149679055Y-64346324D01*
X149820261Y-64517766D01*
X149992201Y-64658366D01*
X150188267Y-64762721D01*
X150400924Y-64826820D01*
X150440785Y-64833936D01*
X150618000Y-64689948D01*
X150618000Y-63417200D01*
X150622000Y-63417200D01*
X150622000Y-64689948D01*
X150799215Y-64833936D01*
X150839076Y-64826820D01*
X151051733Y-64762721D01*
X151247799Y-64658366D01*
X151419739Y-64517766D01*
X151560945Y-64346324D01*
X151665991Y-64150628D01*
X151730840Y-63938199D01*
X151753000Y-63717200D01*
X151753000Y-63417200D01*
X158127000Y-63417200D01*
X158127000Y-63717200D01*
X158149160Y-63938199D01*
X158214009Y-64150628D01*
X158319055Y-64346324D01*
X158460261Y-64517766D01*
X158632201Y-64658366D01*
X158828267Y-64762721D01*
X159040924Y-64826820D01*
X159080785Y-64833936D01*
X159258000Y-64689948D01*
X159258000Y-63417200D01*
X158127000Y-63417200D01*
X151753000Y-63417200D01*
X150622000Y-63417200D01*
X150618000Y-63417200D01*
X150598000Y-63417200D01*
X150598000Y-63413200D01*
X150618000Y-63413200D01*
X150618000Y-63393200D01*
X150622000Y-63393200D01*
X150622000Y-63413200D01*
X151753000Y-63413200D01*
X151753000Y-63113200D01*
X151735853Y-62942199D01*
X158144147Y-62942199D01*
X158127000Y-63113200D01*
G37*
%TD.AperFunction*%
%TD*%
D21*
%TO.N,+5V*%
X147991223Y-81412358D02*
X147990523Y-81413296D01*
X147989151Y-81415609D01*
X147984051Y-81426756D01*
X147983459Y-81428313D01*
X147978959Y-81442971D01*
X147978683Y-81444032D01*
X147974783Y-81462200D01*
X147974645Y-81462955D01*
X147971345Y-81484634D01*
X147971272Y-81485191D01*
X147968572Y-81510381D01*
X147968534Y-81510808D01*
X147966434Y-81539508D01*
X147966414Y-81539844D01*
X147964914Y-81572055D01*
X147964904Y-81572326D01*
X147964004Y-81608047D01*
X147964000Y-81608270D01*
X147963796Y-81634900D01*
X147489004Y-81634900D01*
X147488800Y-81608270D01*
X147488796Y-81608047D01*
X147487896Y-81572326D01*
X147487886Y-81572055D01*
X147486386Y-81539844D01*
X147486366Y-81539508D01*
X147484266Y-81510808D01*
X147484228Y-81510381D01*
X147481528Y-81485191D01*
X147481455Y-81484634D01*
X147478155Y-81462955D01*
X147478017Y-81462200D01*
X147474117Y-81444032D01*
X147473841Y-81442971D01*
X147469341Y-81428313D01*
X147468749Y-81426756D01*
X147463649Y-81415609D01*
X147462277Y-81413296D01*
X147461577Y-81412358D01*
X147726400Y-80953026D01*
X147991223Y-81412358D01*
%TA.AperFunction,Conductor*%
D20*
G36*
X147991223Y-81412358D02*
G01*
X147990523Y-81413296D01*
X147989151Y-81415609D01*
X147984051Y-81426756D01*
X147983459Y-81428313D01*
X147978959Y-81442971D01*
X147978683Y-81444032D01*
X147974783Y-81462200D01*
X147974645Y-81462955D01*
X147971345Y-81484634D01*
X147971272Y-81485191D01*
X147968572Y-81510381D01*
X147968534Y-81510808D01*
X147966434Y-81539508D01*
X147966414Y-81539844D01*
X147964914Y-81572055D01*
X147964904Y-81572326D01*
X147964004Y-81608047D01*
X147964000Y-81608270D01*
X147963796Y-81634900D01*
X147489004Y-81634900D01*
X147488800Y-81608270D01*
X147488796Y-81608047D01*
X147487896Y-81572326D01*
X147487886Y-81572055D01*
X147486386Y-81539844D01*
X147486366Y-81539508D01*
X147484266Y-81510808D01*
X147484228Y-81510381D01*
X147481528Y-81485191D01*
X147481455Y-81484634D01*
X147478155Y-81462955D01*
X147478017Y-81462200D01*
X147474117Y-81444032D01*
X147473841Y-81442971D01*
X147469341Y-81428313D01*
X147468749Y-81426756D01*
X147463649Y-81415609D01*
X147462277Y-81413296D01*
X147461577Y-81412358D01*
X147726400Y-80953026D01*
X147991223Y-81412358D01*
G37*
%TD.AperFunction*%
%TD*%
D21*
%TO.N,+5V*%
X149129324Y-90220906D02*
X149129484Y-90221061D01*
X149155379Y-90245683D01*
X149155577Y-90245867D01*
X149179414Y-90267583D01*
X149179666Y-90267806D01*
X149201445Y-90286616D01*
X149201774Y-90286891D01*
X149221495Y-90302793D01*
X149221940Y-90303136D01*
X149239603Y-90316132D01*
X149240234Y-90316568D01*
X149255838Y-90326658D01*
X149256785Y-90327214D01*
X149270332Y-90334396D01*
X149271851Y-90335077D01*
X149283339Y-90339353D01*
X149285943Y-90340019D01*
X149287103Y-90340188D01*
X149424642Y-90852242D01*
X148912588Y-90714703D01*
X148912419Y-90713543D01*
X148911753Y-90710939D01*
X148907477Y-90699451D01*
X148906796Y-90697932D01*
X148899614Y-90684385D01*
X148899058Y-90683438D01*
X148888968Y-90667834D01*
X148888532Y-90667203D01*
X148875536Y-90649540D01*
X148875193Y-90649095D01*
X148859291Y-90629374D01*
X148859016Y-90629045D01*
X148840206Y-90607266D01*
X148839983Y-90607014D01*
X148818267Y-90583177D01*
X148818083Y-90582979D01*
X148793461Y-90557084D01*
X148793306Y-90556924D01*
X148774620Y-90537950D01*
X149110350Y-90202220D01*
X149129324Y-90220906D01*
%TA.AperFunction,Conductor*%
D20*
G36*
X149129324Y-90220906D02*
G01*
X149129484Y-90221061D01*
X149155379Y-90245683D01*
X149155577Y-90245867D01*
X149179414Y-90267583D01*
X149179666Y-90267806D01*
X149201445Y-90286616D01*
X149201774Y-90286891D01*
X149221495Y-90302793D01*
X149221940Y-90303136D01*
X149239603Y-90316132D01*
X149240234Y-90316568D01*
X149255838Y-90326658D01*
X149256785Y-90327214D01*
X149270332Y-90334396D01*
X149271851Y-90335077D01*
X149283339Y-90339353D01*
X149285943Y-90340019D01*
X149287103Y-90340188D01*
X149424642Y-90852242D01*
X148912588Y-90714703D01*
X148912419Y-90713543D01*
X148911753Y-90710939D01*
X148907477Y-90699451D01*
X148906796Y-90697932D01*
X148899614Y-90684385D01*
X148899058Y-90683438D01*
X148888968Y-90667834D01*
X148888532Y-90667203D01*
X148875536Y-90649540D01*
X148875193Y-90649095D01*
X148859291Y-90629374D01*
X148859016Y-90629045D01*
X148840206Y-90607266D01*
X148839983Y-90607014D01*
X148818267Y-90583177D01*
X148818083Y-90582979D01*
X148793461Y-90557084D01*
X148793306Y-90556924D01*
X148774620Y-90537950D01*
X149110350Y-90202220D01*
X149129324Y-90220906D01*
G37*
%TD.AperFunction*%
%TD*%
D21*
%TO.N,+5V*%
X156749696Y-79999877D02*
X156752009Y-80001249D01*
X156763156Y-80006349D01*
X156764713Y-80006941D01*
X156779371Y-80011441D01*
X156780432Y-80011717D01*
X156798600Y-80015617D01*
X156799355Y-80015755D01*
X156821034Y-80019055D01*
X156821591Y-80019128D01*
X156846781Y-80021828D01*
X156847208Y-80021866D01*
X156875908Y-80023966D01*
X156876244Y-80023986D01*
X156908455Y-80025486D01*
X156908726Y-80025496D01*
X156944447Y-80026396D01*
X156944670Y-80026400D01*
X156971300Y-80026604D01*
X156971300Y-80501396D01*
X156944670Y-80501600D01*
X156944447Y-80501604D01*
X156908726Y-80502504D01*
X156908455Y-80502514D01*
X156876244Y-80504014D01*
X156875908Y-80504034D01*
X156847208Y-80506134D01*
X156846781Y-80506172D01*
X156821591Y-80508872D01*
X156821034Y-80508945D01*
X156799355Y-80512245D01*
X156798600Y-80512383D01*
X156780432Y-80516283D01*
X156779371Y-80516559D01*
X156764713Y-80521059D01*
X156763156Y-80521651D01*
X156752009Y-80526751D01*
X156749696Y-80528123D01*
X156748758Y-80528823D01*
X156289426Y-80264000D01*
X156748758Y-79999177D01*
X156749696Y-79999877D01*
%TA.AperFunction,Conductor*%
D20*
G36*
X156749696Y-79999877D02*
G01*
X156752009Y-80001249D01*
X156763156Y-80006349D01*
X156764713Y-80006941D01*
X156779371Y-80011441D01*
X156780432Y-80011717D01*
X156798600Y-80015617D01*
X156799355Y-80015755D01*
X156821034Y-80019055D01*
X156821591Y-80019128D01*
X156846781Y-80021828D01*
X156847208Y-80021866D01*
X156875908Y-80023966D01*
X156876244Y-80023986D01*
X156908455Y-80025486D01*
X156908726Y-80025496D01*
X156944447Y-80026396D01*
X156944670Y-80026400D01*
X156971300Y-80026604D01*
X156971300Y-80501396D01*
X156944670Y-80501600D01*
X156944447Y-80501604D01*
X156908726Y-80502504D01*
X156908455Y-80502514D01*
X156876244Y-80504014D01*
X156875908Y-80504034D01*
X156847208Y-80506134D01*
X156846781Y-80506172D01*
X156821591Y-80508872D01*
X156821034Y-80508945D01*
X156799355Y-80512245D01*
X156798600Y-80512383D01*
X156780432Y-80516283D01*
X156779371Y-80516559D01*
X156764713Y-80521059D01*
X156763156Y-80521651D01*
X156752009Y-80526751D01*
X156749696Y-80528123D01*
X156748758Y-80528823D01*
X156289426Y-80264000D01*
X156748758Y-79999177D01*
X156749696Y-79999877D01*
G37*
%TD.AperFunction*%
%TD*%
D21*
%TO.N,+5V*%
X167393274Y-88638400D02*
X166601008Y-89095171D01*
X166563184Y-89059397D01*
X166562435Y-89058742D01*
X166515582Y-89020917D01*
X166514752Y-89020302D01*
X166465743Y-88986927D01*
X166464845Y-88986368D01*
X166413680Y-88957443D01*
X166412728Y-88956957D01*
X166359407Y-88932482D01*
X166358421Y-88932078D01*
X166302944Y-88912053D01*
X166301945Y-88911739D01*
X166244312Y-88896164D01*
X166243322Y-88895938D01*
X166183533Y-88884813D01*
X166182571Y-88884672D01*
X166120626Y-88877997D01*
X166119706Y-88877932D01*
X166067865Y-88876133D01*
X166067865Y-88400667D01*
X166119706Y-88398868D01*
X166120626Y-88398803D01*
X166182571Y-88392128D01*
X166183533Y-88391987D01*
X166243322Y-88380862D01*
X166244312Y-88380636D01*
X166301945Y-88365061D01*
X166302944Y-88364747D01*
X166358421Y-88344722D01*
X166359407Y-88344318D01*
X166412728Y-88319843D01*
X166413680Y-88319357D01*
X166464845Y-88290432D01*
X166465743Y-88289873D01*
X166514752Y-88256498D01*
X166515582Y-88255883D01*
X166562435Y-88218058D01*
X166563184Y-88217403D01*
X166601008Y-88181629D01*
X167393274Y-88638400D01*
%TA.AperFunction,Conductor*%
D20*
G36*
X167393274Y-88638400D02*
G01*
X166601008Y-89095171D01*
X166563184Y-89059397D01*
X166562435Y-89058742D01*
X166515582Y-89020917D01*
X166514752Y-89020302D01*
X166465743Y-88986927D01*
X166464845Y-88986368D01*
X166413680Y-88957443D01*
X166412728Y-88956957D01*
X166359407Y-88932482D01*
X166358421Y-88932078D01*
X166302944Y-88912053D01*
X166301945Y-88911739D01*
X166244312Y-88896164D01*
X166243322Y-88895938D01*
X166183533Y-88884813D01*
X166182571Y-88884672D01*
X166120626Y-88877997D01*
X166119706Y-88877932D01*
X166067865Y-88876133D01*
X166067865Y-88400667D01*
X166119706Y-88398868D01*
X166120626Y-88398803D01*
X166182571Y-88392128D01*
X166183533Y-88391987D01*
X166243322Y-88380862D01*
X166244312Y-88380636D01*
X166301945Y-88365061D01*
X166302944Y-88364747D01*
X166358421Y-88344722D01*
X166359407Y-88344318D01*
X166412728Y-88319843D01*
X166413680Y-88319357D01*
X166464845Y-88290432D01*
X166465743Y-88289873D01*
X166514752Y-88256498D01*
X166515582Y-88255883D01*
X166562435Y-88218058D01*
X166563184Y-88217403D01*
X166601008Y-88181629D01*
X167393274Y-88638400D01*
G37*
%TD.AperFunction*%
%TD*%
D21*
%TO.N,+5V*%
X147964000Y-80646929D02*
X147964004Y-80647152D01*
X147964904Y-80682873D01*
X147964914Y-80683144D01*
X147966414Y-80715355D01*
X147966434Y-80715691D01*
X147968534Y-80744391D01*
X147968572Y-80744818D01*
X147971272Y-80770008D01*
X147971345Y-80770565D01*
X147974645Y-80792244D01*
X147974783Y-80792999D01*
X147978683Y-80811167D01*
X147978959Y-80812228D01*
X147983459Y-80826886D01*
X147984051Y-80828443D01*
X147989151Y-80839590D01*
X147990522Y-80841902D01*
X147991223Y-80842841D01*
X147726400Y-81302174D01*
X147461577Y-80842841D01*
X147462278Y-80841902D01*
X147463649Y-80839590D01*
X147468749Y-80828443D01*
X147469341Y-80826886D01*
X147473841Y-80812228D01*
X147474117Y-80811167D01*
X147478017Y-80792999D01*
X147478155Y-80792244D01*
X147481455Y-80770565D01*
X147481528Y-80770008D01*
X147484228Y-80744818D01*
X147484266Y-80744391D01*
X147486366Y-80715691D01*
X147486386Y-80715355D01*
X147487886Y-80683144D01*
X147487896Y-80682873D01*
X147488796Y-80647152D01*
X147488800Y-80646929D01*
X147489004Y-80620300D01*
X147963796Y-80620300D01*
X147964000Y-80646929D01*
%TA.AperFunction,Conductor*%
D20*
G36*
X147964000Y-80646929D02*
G01*
X147964004Y-80647152D01*
X147964904Y-80682873D01*
X147964914Y-80683144D01*
X147966414Y-80715355D01*
X147966434Y-80715691D01*
X147968534Y-80744391D01*
X147968572Y-80744818D01*
X147971272Y-80770008D01*
X147971345Y-80770565D01*
X147974645Y-80792244D01*
X147974783Y-80792999D01*
X147978683Y-80811167D01*
X147978959Y-80812228D01*
X147983459Y-80826886D01*
X147984051Y-80828443D01*
X147989151Y-80839590D01*
X147990522Y-80841902D01*
X147991223Y-80842841D01*
X147726400Y-81302174D01*
X147461577Y-80842841D01*
X147462278Y-80841902D01*
X147463649Y-80839590D01*
X147468749Y-80828443D01*
X147469341Y-80826886D01*
X147473841Y-80812228D01*
X147474117Y-80811167D01*
X147478017Y-80792999D01*
X147478155Y-80792244D01*
X147481455Y-80770565D01*
X147481528Y-80770008D01*
X147484228Y-80744818D01*
X147484266Y-80744391D01*
X147486366Y-80715691D01*
X147486386Y-80715355D01*
X147487886Y-80683144D01*
X147487896Y-80682873D01*
X147488796Y-80647152D01*
X147488800Y-80646929D01*
X147489004Y-80620300D01*
X147963796Y-80620300D01*
X147964000Y-80646929D01*
G37*
%TD.AperFunction*%
%TD*%
D21*
%TO.N,+5V*%
X156292124Y-79756106D02*
X156292284Y-79756261D01*
X156318179Y-79780883D01*
X156318377Y-79781067D01*
X156342214Y-79802783D01*
X156342466Y-79803006D01*
X156364245Y-79821816D01*
X156364574Y-79822091D01*
X156384295Y-79837993D01*
X156384740Y-79838336D01*
X156402403Y-79851332D01*
X156403034Y-79851768D01*
X156418638Y-79861858D01*
X156419585Y-79862414D01*
X156433132Y-79869596D01*
X156434651Y-79870277D01*
X156446139Y-79874553D01*
X156448743Y-79875219D01*
X156449903Y-79875388D01*
X156587442Y-80387442D01*
X156075388Y-80249903D01*
X156075219Y-80248743D01*
X156074553Y-80246139D01*
X156070277Y-80234651D01*
X156069596Y-80233132D01*
X156062414Y-80219585D01*
X156061858Y-80218638D01*
X156051768Y-80203034D01*
X156051332Y-80202403D01*
X156038336Y-80184740D01*
X156037993Y-80184295D01*
X156022091Y-80164574D01*
X156021816Y-80164245D01*
X156003006Y-80142466D01*
X156002783Y-80142214D01*
X155981067Y-80118377D01*
X155980883Y-80118179D01*
X155956261Y-80092284D01*
X155956106Y-80092124D01*
X155937420Y-80073150D01*
X156273150Y-79737420D01*
X156292124Y-79756106D01*
%TA.AperFunction,Conductor*%
D20*
G36*
X156292124Y-79756106D02*
G01*
X156292284Y-79756261D01*
X156318179Y-79780883D01*
X156318377Y-79781067D01*
X156342214Y-79802783D01*
X156342466Y-79803006D01*
X156364245Y-79821816D01*
X156364574Y-79822091D01*
X156384295Y-79837993D01*
X156384740Y-79838336D01*
X156402403Y-79851332D01*
X156403034Y-79851768D01*
X156418638Y-79861858D01*
X156419585Y-79862414D01*
X156433132Y-79869596D01*
X156434651Y-79870277D01*
X156446139Y-79874553D01*
X156448743Y-79875219D01*
X156449903Y-79875388D01*
X156587442Y-80387442D01*
X156075388Y-80249903D01*
X156075219Y-80248743D01*
X156074553Y-80246139D01*
X156070277Y-80234651D01*
X156069596Y-80233132D01*
X156062414Y-80219585D01*
X156061858Y-80218638D01*
X156051768Y-80203034D01*
X156051332Y-80202403D01*
X156038336Y-80184740D01*
X156037993Y-80184295D01*
X156022091Y-80164574D01*
X156021816Y-80164245D01*
X156003006Y-80142466D01*
X156002783Y-80142214D01*
X155981067Y-80118377D01*
X155980883Y-80118179D01*
X155956261Y-80092284D01*
X155956106Y-80092124D01*
X155937420Y-80073150D01*
X156273150Y-79737420D01*
X156292124Y-79756106D01*
G37*
%TD.AperFunction*%
%TD*%
D21*
%TO.N,VCC*%
X152787296Y-69941477D02*
X152789609Y-69942849D01*
X152800756Y-69947949D01*
X152802313Y-69948541D01*
X152816971Y-69953041D01*
X152818032Y-69953317D01*
X152836200Y-69957217D01*
X152836955Y-69957355D01*
X152858634Y-69960655D01*
X152859191Y-69960728D01*
X152884381Y-69963428D01*
X152884808Y-69963466D01*
X152913508Y-69965566D01*
X152913844Y-69965586D01*
X152946055Y-69967086D01*
X152946326Y-69967096D01*
X152982047Y-69967996D01*
X152982270Y-69968000D01*
X153008900Y-69968204D01*
X153008900Y-70442996D01*
X152982270Y-70443200D01*
X152982047Y-70443204D01*
X152946326Y-70444104D01*
X152946055Y-70444114D01*
X152913844Y-70445614D01*
X152913508Y-70445634D01*
X152884808Y-70447734D01*
X152884381Y-70447772D01*
X152859191Y-70450472D01*
X152858634Y-70450545D01*
X152836955Y-70453845D01*
X152836200Y-70453983D01*
X152818032Y-70457883D01*
X152816971Y-70458159D01*
X152802313Y-70462659D01*
X152800756Y-70463251D01*
X152789609Y-70468351D01*
X152787296Y-70469723D01*
X152786358Y-70470423D01*
X152327026Y-70205600D01*
X152786358Y-69940777D01*
X152787296Y-69941477D01*
%TA.AperFunction,Conductor*%
D20*
G36*
X152787296Y-69941477D02*
G01*
X152789609Y-69942849D01*
X152800756Y-69947949D01*
X152802313Y-69948541D01*
X152816971Y-69953041D01*
X152818032Y-69953317D01*
X152836200Y-69957217D01*
X152836955Y-69957355D01*
X152858634Y-69960655D01*
X152859191Y-69960728D01*
X152884381Y-69963428D01*
X152884808Y-69963466D01*
X152913508Y-69965566D01*
X152913844Y-69965586D01*
X152946055Y-69967086D01*
X152946326Y-69967096D01*
X152982047Y-69967996D01*
X152982270Y-69968000D01*
X153008900Y-69968204D01*
X153008900Y-70442996D01*
X152982270Y-70443200D01*
X152982047Y-70443204D01*
X152946326Y-70444104D01*
X152946055Y-70444114D01*
X152913844Y-70445614D01*
X152913508Y-70445634D01*
X152884808Y-70447734D01*
X152884381Y-70447772D01*
X152859191Y-70450472D01*
X152858634Y-70450545D01*
X152836955Y-70453845D01*
X152836200Y-70453983D01*
X152818032Y-70457883D01*
X152816971Y-70458159D01*
X152802313Y-70462659D01*
X152800756Y-70463251D01*
X152789609Y-70468351D01*
X152787296Y-70469723D01*
X152786358Y-70470423D01*
X152327026Y-70205600D01*
X152786358Y-69940777D01*
X152787296Y-69941477D01*
G37*
%TD.AperFunction*%
%TD*%
D21*
%TO.N,VCC*%
X157552974Y-70205600D02*
X157093641Y-70470423D01*
X157092702Y-70469722D01*
X157090390Y-70468351D01*
X157079243Y-70463251D01*
X157077686Y-70462659D01*
X157063028Y-70458159D01*
X157061967Y-70457883D01*
X157043799Y-70453983D01*
X157043044Y-70453845D01*
X157021365Y-70450545D01*
X157020808Y-70450472D01*
X156995618Y-70447772D01*
X156995191Y-70447734D01*
X156966491Y-70445634D01*
X156966155Y-70445614D01*
X156933944Y-70444114D01*
X156933673Y-70444104D01*
X156897952Y-70443204D01*
X156897729Y-70443200D01*
X156871100Y-70442996D01*
X156871100Y-69968204D01*
X156897729Y-69968000D01*
X156897952Y-69967996D01*
X156933673Y-69967096D01*
X156933944Y-69967086D01*
X156966155Y-69965586D01*
X156966491Y-69965566D01*
X156995191Y-69963466D01*
X156995618Y-69963428D01*
X157020808Y-69960728D01*
X157021365Y-69960655D01*
X157043044Y-69957355D01*
X157043799Y-69957217D01*
X157061967Y-69953317D01*
X157063028Y-69953041D01*
X157077686Y-69948541D01*
X157079243Y-69947949D01*
X157090390Y-69942849D01*
X157092702Y-69941478D01*
X157093641Y-69940777D01*
X157552974Y-70205600D01*
%TA.AperFunction,Conductor*%
D20*
G36*
X157552974Y-70205600D02*
G01*
X157093641Y-70470423D01*
X157092702Y-70469722D01*
X157090390Y-70468351D01*
X157079243Y-70463251D01*
X157077686Y-70462659D01*
X157063028Y-70458159D01*
X157061967Y-70457883D01*
X157043799Y-70453983D01*
X157043044Y-70453845D01*
X157021365Y-70450545D01*
X157020808Y-70450472D01*
X156995618Y-70447772D01*
X156995191Y-70447734D01*
X156966491Y-70445634D01*
X156966155Y-70445614D01*
X156933944Y-70444114D01*
X156933673Y-70444104D01*
X156897952Y-70443204D01*
X156897729Y-70443200D01*
X156871100Y-70442996D01*
X156871100Y-69968204D01*
X156897729Y-69968000D01*
X156897952Y-69967996D01*
X156933673Y-69967096D01*
X156933944Y-69967086D01*
X156966155Y-69965586D01*
X156966491Y-69965566D01*
X156995191Y-69963466D01*
X156995618Y-69963428D01*
X157020808Y-69960728D01*
X157021365Y-69960655D01*
X157043044Y-69957355D01*
X157043799Y-69957217D01*
X157061967Y-69953317D01*
X157063028Y-69953041D01*
X157077686Y-69948541D01*
X157079243Y-69947949D01*
X157090390Y-69942849D01*
X157092702Y-69941478D01*
X157093641Y-69940777D01*
X157552974Y-70205600D01*
G37*
%TD.AperFunction*%
%TD*%
D21*
%TO.N,D-*%
X143843304Y-81096684D02*
X143844002Y-81097290D01*
X143877718Y-81124430D01*
X143878501Y-81125012D01*
X143913357Y-81148908D01*
X143914218Y-81149449D01*
X143950214Y-81170101D01*
X143951144Y-81170584D01*
X143988281Y-81187992D01*
X143989263Y-81188404D01*
X144027539Y-81202568D01*
X144028556Y-81202896D01*
X144067972Y-81213816D01*
X144069001Y-81214055D01*
X144109558Y-81221731D01*
X144110578Y-81221882D01*
X144152274Y-81226314D01*
X144153264Y-81226380D01*
X144186643Y-81227306D01*
X144323895Y-81738295D01*
X143812906Y-81601043D01*
X143811980Y-81567664D01*
X143811914Y-81566674D01*
X143807482Y-81524978D01*
X143807331Y-81523958D01*
X143799655Y-81483401D01*
X143799416Y-81482372D01*
X143788496Y-81442956D01*
X143788168Y-81441939D01*
X143774004Y-81403663D01*
X143773592Y-81402681D01*
X143756184Y-81365544D01*
X143755701Y-81364614D01*
X143735049Y-81328618D01*
X143734508Y-81327757D01*
X143710612Y-81292901D01*
X143710030Y-81292118D01*
X143682890Y-81258402D01*
X143682284Y-81257704D01*
X143660266Y-81234097D01*
X143819697Y-81074666D01*
X143843304Y-81096684D01*
%TA.AperFunction,Conductor*%
D20*
G36*
X143843304Y-81096684D02*
G01*
X143844002Y-81097290D01*
X143877718Y-81124430D01*
X143878501Y-81125012D01*
X143913357Y-81148908D01*
X143914218Y-81149449D01*
X143950214Y-81170101D01*
X143951144Y-81170584D01*
X143988281Y-81187992D01*
X143989263Y-81188404D01*
X144027539Y-81202568D01*
X144028556Y-81202896D01*
X144067972Y-81213816D01*
X144069001Y-81214055D01*
X144109558Y-81221731D01*
X144110578Y-81221882D01*
X144152274Y-81226314D01*
X144153264Y-81226380D01*
X144186643Y-81227306D01*
X144323895Y-81738295D01*
X143812906Y-81601043D01*
X143811980Y-81567664D01*
X143811914Y-81566674D01*
X143807482Y-81524978D01*
X143807331Y-81523958D01*
X143799655Y-81483401D01*
X143799416Y-81482372D01*
X143788496Y-81442956D01*
X143788168Y-81441939D01*
X143774004Y-81403663D01*
X143773592Y-81402681D01*
X143756184Y-81365544D01*
X143755701Y-81364614D01*
X143735049Y-81328618D01*
X143734508Y-81327757D01*
X143710612Y-81292901D01*
X143710030Y-81292118D01*
X143682890Y-81258402D01*
X143682284Y-81257704D01*
X143660266Y-81234097D01*
X143819697Y-81074666D01*
X143843304Y-81096684D01*
G37*
%TD.AperFunction*%
%TD*%
D21*
%TO.N,D-*%
X143491146Y-80531810D02*
X143492072Y-80565188D01*
X143492138Y-80566178D01*
X143496570Y-80607874D01*
X143496721Y-80608894D01*
X143504397Y-80649451D01*
X143504636Y-80650480D01*
X143515556Y-80689896D01*
X143515884Y-80690913D01*
X143530048Y-80729189D01*
X143530460Y-80730171D01*
X143547868Y-80767308D01*
X143548351Y-80768238D01*
X143569003Y-80804234D01*
X143569544Y-80805095D01*
X143593440Y-80839951D01*
X143594022Y-80840734D01*
X143621162Y-80874450D01*
X143621768Y-80875148D01*
X143643787Y-80898756D01*
X143484356Y-81058187D01*
X143460748Y-81036168D01*
X143460050Y-81035562D01*
X143426334Y-81008422D01*
X143425551Y-81007840D01*
X143390695Y-80983944D01*
X143389834Y-80983403D01*
X143353838Y-80962751D01*
X143352908Y-80962268D01*
X143315771Y-80944860D01*
X143314789Y-80944448D01*
X143276513Y-80930284D01*
X143275496Y-80929956D01*
X143236080Y-80919036D01*
X143235051Y-80918797D01*
X143194494Y-80911121D01*
X143193474Y-80910970D01*
X143151778Y-80906538D01*
X143150788Y-80906472D01*
X143117410Y-80905546D01*
X142980158Y-80394558D01*
X143491146Y-80531810D01*
%TA.AperFunction,Conductor*%
D20*
G36*
X143491146Y-80531810D02*
G01*
X143492072Y-80565188D01*
X143492138Y-80566178D01*
X143496570Y-80607874D01*
X143496721Y-80608894D01*
X143504397Y-80649451D01*
X143504636Y-80650480D01*
X143515556Y-80689896D01*
X143515884Y-80690913D01*
X143530048Y-80729189D01*
X143530460Y-80730171D01*
X143547868Y-80767308D01*
X143548351Y-80768238D01*
X143569003Y-80804234D01*
X143569544Y-80805095D01*
X143593440Y-80839951D01*
X143594022Y-80840734D01*
X143621162Y-80874450D01*
X143621768Y-80875148D01*
X143643787Y-80898756D01*
X143484356Y-81058187D01*
X143460748Y-81036168D01*
X143460050Y-81035562D01*
X143426334Y-81008422D01*
X143425551Y-81007840D01*
X143390695Y-80983944D01*
X143389834Y-80983403D01*
X143353838Y-80962751D01*
X143352908Y-80962268D01*
X143315771Y-80944860D01*
X143314789Y-80944448D01*
X143276513Y-80930284D01*
X143275496Y-80929956D01*
X143236080Y-80919036D01*
X143235051Y-80918797D01*
X143194494Y-80911121D01*
X143193474Y-80910970D01*
X143151778Y-80906538D01*
X143150788Y-80906472D01*
X143117410Y-80905546D01*
X142980158Y-80394558D01*
X143491146Y-80531810D01*
G37*
%TD.AperFunction*%
%TD*%
D21*
%TO.N,BOOT*%
X144570439Y-97479793D02*
X144510984Y-97543556D01*
X144510377Y-97544258D01*
X144449800Y-97619578D01*
X144449216Y-97620363D01*
X144395881Y-97698270D01*
X144395340Y-97699133D01*
X144349246Y-97779628D01*
X144348763Y-97780559D01*
X144309910Y-97863642D01*
X144309499Y-97864625D01*
X144277887Y-97950295D01*
X144277560Y-97951312D01*
X144253189Y-98039570D01*
X144252951Y-98040597D01*
X144235821Y-98131443D01*
X144235672Y-98132459D01*
X144225784Y-98225892D01*
X144225718Y-98226879D01*
X144223332Y-98313440D01*
X143340131Y-98550669D01*
X143577360Y-97667468D01*
X143663920Y-97665081D01*
X143664907Y-97665015D01*
X143758340Y-97655127D01*
X143759356Y-97654978D01*
X143850202Y-97637848D01*
X143851229Y-97637610D01*
X143939487Y-97613239D01*
X143940504Y-97612912D01*
X144026174Y-97581300D01*
X144027157Y-97580889D01*
X144110240Y-97542036D01*
X144111171Y-97541553D01*
X144191666Y-97495459D01*
X144192529Y-97494918D01*
X144270436Y-97441583D01*
X144271221Y-97440999D01*
X144346541Y-97380422D01*
X144347243Y-97379815D01*
X144411007Y-97320361D01*
X144570439Y-97479793D01*
%TA.AperFunction,Conductor*%
D20*
G36*
X144570439Y-97479793D02*
G01*
X144510984Y-97543556D01*
X144510377Y-97544258D01*
X144449800Y-97619578D01*
X144449216Y-97620363D01*
X144395881Y-97698270D01*
X144395340Y-97699133D01*
X144349246Y-97779628D01*
X144348763Y-97780559D01*
X144309910Y-97863642D01*
X144309499Y-97864625D01*
X144277887Y-97950295D01*
X144277560Y-97951312D01*
X144253189Y-98039570D01*
X144252951Y-98040597D01*
X144235821Y-98131443D01*
X144235672Y-98132459D01*
X144225784Y-98225892D01*
X144225718Y-98226879D01*
X144223332Y-98313440D01*
X143340131Y-98550669D01*
X143577360Y-97667468D01*
X143663920Y-97665081D01*
X143664907Y-97665015D01*
X143758340Y-97655127D01*
X143759356Y-97654978D01*
X143850202Y-97637848D01*
X143851229Y-97637610D01*
X143939487Y-97613239D01*
X143940504Y-97612912D01*
X144026174Y-97581300D01*
X144027157Y-97580889D01*
X144110240Y-97542036D01*
X144111171Y-97541553D01*
X144191666Y-97495459D01*
X144192529Y-97494918D01*
X144270436Y-97441583D01*
X144271221Y-97440999D01*
X144346541Y-97380422D01*
X144347243Y-97379815D01*
X144411007Y-97320361D01*
X144570439Y-97479793D01*
G37*
%TD.AperFunction*%
%TD*%
D21*
%TO.N,BOOT*%
X145552272Y-87304203D02*
X145529324Y-87328458D01*
X145528670Y-87329205D01*
X145502320Y-87361823D01*
X145501705Y-87362650D01*
X145478455Y-87396755D01*
X145477897Y-87397652D01*
X145457747Y-87433245D01*
X145457260Y-87434196D01*
X145440210Y-87471277D01*
X145439806Y-87472263D01*
X145425856Y-87510832D01*
X145425541Y-87511832D01*
X145414691Y-87551888D01*
X145414464Y-87552879D01*
X145406714Y-87594423D01*
X145406573Y-87595388D01*
X145401923Y-87638420D01*
X145401857Y-87639342D01*
X145400734Y-87671604D01*
X145175265Y-87671604D01*
X145174142Y-87639342D01*
X145174076Y-87638420D01*
X145169426Y-87595388D01*
X145169285Y-87594423D01*
X145161535Y-87552879D01*
X145161308Y-87551888D01*
X145150458Y-87511832D01*
X145150143Y-87510832D01*
X145136193Y-87472263D01*
X145135789Y-87471277D01*
X145118739Y-87434196D01*
X145118252Y-87433245D01*
X145098102Y-87397652D01*
X145097544Y-87396755D01*
X145074294Y-87362650D01*
X145073679Y-87361823D01*
X145047329Y-87329205D01*
X145046676Y-87328458D01*
X145023728Y-87304202D01*
X145288000Y-86845826D01*
X145552272Y-87304203D01*
%TA.AperFunction,Conductor*%
D20*
G36*
X145552272Y-87304203D02*
G01*
X145529324Y-87328458D01*
X145528670Y-87329205D01*
X145502320Y-87361823D01*
X145501705Y-87362650D01*
X145478455Y-87396755D01*
X145477897Y-87397652D01*
X145457747Y-87433245D01*
X145457260Y-87434196D01*
X145440210Y-87471277D01*
X145439806Y-87472263D01*
X145425856Y-87510832D01*
X145425541Y-87511832D01*
X145414691Y-87551888D01*
X145414464Y-87552879D01*
X145406714Y-87594423D01*
X145406573Y-87595388D01*
X145401923Y-87638420D01*
X145401857Y-87639342D01*
X145400734Y-87671604D01*
X145175265Y-87671604D01*
X145174142Y-87639342D01*
X145174076Y-87638420D01*
X145169426Y-87595388D01*
X145169285Y-87594423D01*
X145161535Y-87552879D01*
X145161308Y-87551888D01*
X145150458Y-87511832D01*
X145150143Y-87510832D01*
X145136193Y-87472263D01*
X145135789Y-87471277D01*
X145118739Y-87434196D01*
X145118252Y-87433245D01*
X145098102Y-87397652D01*
X145097544Y-87396755D01*
X145074294Y-87362650D01*
X145073679Y-87361823D01*
X145047329Y-87329205D01*
X145046676Y-87328458D01*
X145023728Y-87304202D01*
X145288000Y-86845826D01*
X145552272Y-87304203D01*
G37*
%TD.AperFunction*%
%TD*%
D21*
%TO.N,RESET*%
X144827702Y-88270149D02*
X144806324Y-88297275D01*
X144804687Y-88299993D01*
X144786587Y-88340861D01*
X144785742Y-88343531D01*
X144776241Y-88391385D01*
X144776000Y-88393649D01*
X144775099Y-88448492D01*
X144775194Y-88450270D01*
X144782894Y-88512100D01*
X144783139Y-88513458D01*
X144799437Y-88582275D01*
X144799729Y-88583311D01*
X144824628Y-88659116D01*
X144824921Y-88659916D01*
X144858420Y-88742709D01*
X144858694Y-88743338D01*
X144900792Y-88833118D01*
X144901041Y-88833620D01*
X144941998Y-88911794D01*
X144720460Y-88911794D01*
X144670292Y-88821555D01*
X144670214Y-88821416D01*
X144618815Y-88731636D01*
X144618722Y-88731478D01*
X144569724Y-88648685D01*
X144569614Y-88648502D01*
X144523015Y-88572697D01*
X144522882Y-88572485D01*
X144478684Y-88503668D01*
X144478519Y-88503418D01*
X144436719Y-88441588D01*
X144436512Y-88441291D01*
X144397113Y-88386448D01*
X144396846Y-88386090D01*
X144359846Y-88338236D01*
X144359492Y-88337798D01*
X144324893Y-88296930D01*
X144324405Y-88296387D01*
X144298739Y-88269383D01*
X144563000Y-87811026D01*
X144827702Y-88270149D01*
%TA.AperFunction,Conductor*%
D20*
G36*
X144827702Y-88270149D02*
G01*
X144806324Y-88297275D01*
X144804687Y-88299993D01*
X144786587Y-88340861D01*
X144785742Y-88343531D01*
X144776241Y-88391385D01*
X144776000Y-88393649D01*
X144775099Y-88448492D01*
X144775194Y-88450270D01*
X144782894Y-88512100D01*
X144783139Y-88513458D01*
X144799437Y-88582275D01*
X144799729Y-88583311D01*
X144824628Y-88659116D01*
X144824921Y-88659916D01*
X144858420Y-88742709D01*
X144858694Y-88743338D01*
X144900792Y-88833118D01*
X144901041Y-88833620D01*
X144941998Y-88911794D01*
X144720460Y-88911794D01*
X144670292Y-88821555D01*
X144670214Y-88821416D01*
X144618815Y-88731636D01*
X144618722Y-88731478D01*
X144569724Y-88648685D01*
X144569614Y-88648502D01*
X144523015Y-88572697D01*
X144522882Y-88572485D01*
X144478684Y-88503668D01*
X144478519Y-88503418D01*
X144436719Y-88441588D01*
X144436512Y-88441291D01*
X144397113Y-88386448D01*
X144396846Y-88386090D01*
X144359846Y-88338236D01*
X144359492Y-88337798D01*
X144324893Y-88296930D01*
X144324405Y-88296387D01*
X144298739Y-88269383D01*
X144563000Y-87811026D01*
X144827702Y-88270149D01*
G37*
%TD.AperFunction*%
%TD*%
M02*
