%TF.GenerationSoftware,KiCad,Pcbnew,(5.1.10)-1*%
%TF.CreationDate,2021-09-23T10:02:32+02:00*%
%TF.ProjectId,iso,69736f2e-6b69-4636-9164-5f7063625858,rev?*%
%TF.SameCoordinates,Original*%
%TF.FileFunction,Paste,Bot*%
%TF.FilePolarity,Positive*%
%FSLAX46Y46*%
G04 Gerber Fmt 4.6, Leading zero omitted, Abs format (unit mm)*
G04 Created by KiCad (PCBNEW (5.1.10)-1) date 2021-09-23 10:02:32*
%MOMM*%
%LPD*%
G01*
G04 APERTURE LIST*
%ADD10R,0.450000X0.600000*%
%ADD11R,0.600000X1.450000*%
%ADD12R,0.300000X1.450000*%
%ADD13R,1.600000X0.550000*%
%ADD14R,0.550000X1.600000*%
%ADD15R,1.400000X1.200000*%
%ADD16C,0.100000*%
G04 APERTURE END LIST*
%TO.C,C1*%
G36*
G01*
X159898200Y-76762800D02*
X159898200Y-77262800D01*
G75*
G02*
X159673200Y-77487800I-225000J0D01*
G01*
X159223200Y-77487800D01*
G75*
G02*
X158998200Y-77262800I0J225000D01*
G01*
X158998200Y-76762800D01*
G75*
G02*
X159223200Y-76537800I225000J0D01*
G01*
X159673200Y-76537800D01*
G75*
G02*
X159898200Y-76762800I0J-225000D01*
G01*
G37*
G36*
G01*
X161448200Y-76762800D02*
X161448200Y-77262800D01*
G75*
G02*
X161223200Y-77487800I-225000J0D01*
G01*
X160773200Y-77487800D01*
G75*
G02*
X160548200Y-77262800I0J225000D01*
G01*
X160548200Y-76762800D01*
G75*
G02*
X160773200Y-76537800I225000J0D01*
G01*
X161223200Y-76537800D01*
G75*
G02*
X161448200Y-76762800I0J-225000D01*
G01*
G37*
%TD*%
%TO.C,R5*%
G36*
G01*
X142819800Y-76943400D02*
X142269800Y-76943400D01*
G75*
G02*
X142069800Y-76743400I0J200000D01*
G01*
X142069800Y-76343400D01*
G75*
G02*
X142269800Y-76143400I200000J0D01*
G01*
X142819800Y-76143400D01*
G75*
G02*
X143019800Y-76343400I0J-200000D01*
G01*
X143019800Y-76743400D01*
G75*
G02*
X142819800Y-76943400I-200000J0D01*
G01*
G37*
G36*
G01*
X142819800Y-78593400D02*
X142269800Y-78593400D01*
G75*
G02*
X142069800Y-78393400I0J200000D01*
G01*
X142069800Y-77993400D01*
G75*
G02*
X142269800Y-77793400I200000J0D01*
G01*
X142819800Y-77793400D01*
G75*
G02*
X143019800Y-77993400I0J-200000D01*
G01*
X143019800Y-78393400D01*
G75*
G02*
X142819800Y-78593400I-200000J0D01*
G01*
G37*
%TD*%
%TO.C,R4*%
G36*
G01*
X144496200Y-76943400D02*
X143946200Y-76943400D01*
G75*
G02*
X143746200Y-76743400I0J200000D01*
G01*
X143746200Y-76343400D01*
G75*
G02*
X143946200Y-76143400I200000J0D01*
G01*
X144496200Y-76143400D01*
G75*
G02*
X144696200Y-76343400I0J-200000D01*
G01*
X144696200Y-76743400D01*
G75*
G02*
X144496200Y-76943400I-200000J0D01*
G01*
G37*
G36*
G01*
X144496200Y-78593400D02*
X143946200Y-78593400D01*
G75*
G02*
X143746200Y-78393400I0J200000D01*
G01*
X143746200Y-77993400D01*
G75*
G02*
X143946200Y-77793400I200000J0D01*
G01*
X144496200Y-77793400D01*
G75*
G02*
X144696200Y-77993400I0J-200000D01*
G01*
X144696200Y-78393400D01*
G75*
G02*
X144496200Y-78593400I-200000J0D01*
G01*
G37*
%TD*%
%TO.C,R3*%
G36*
G01*
X145622600Y-77793400D02*
X146172600Y-77793400D01*
G75*
G02*
X146372600Y-77993400I0J-200000D01*
G01*
X146372600Y-78393400D01*
G75*
G02*
X146172600Y-78593400I-200000J0D01*
G01*
X145622600Y-78593400D01*
G75*
G02*
X145422600Y-78393400I0J200000D01*
G01*
X145422600Y-77993400D01*
G75*
G02*
X145622600Y-77793400I200000J0D01*
G01*
G37*
G36*
G01*
X145622600Y-76143400D02*
X146172600Y-76143400D01*
G75*
G02*
X146372600Y-76343400I0J-200000D01*
G01*
X146372600Y-76743400D01*
G75*
G02*
X146172600Y-76943400I-200000J0D01*
G01*
X145622600Y-76943400D01*
G75*
G02*
X145422600Y-76743400I0J200000D01*
G01*
X145422600Y-76343400D01*
G75*
G02*
X145622600Y-76143400I200000J0D01*
G01*
G37*
%TD*%
%TO.C,R2*%
G36*
G01*
X163862200Y-68101800D02*
X163862200Y-68651800D01*
G75*
G02*
X163662200Y-68851800I-200000J0D01*
G01*
X163262200Y-68851800D01*
G75*
G02*
X163062200Y-68651800I0J200000D01*
G01*
X163062200Y-68101800D01*
G75*
G02*
X163262200Y-67901800I200000J0D01*
G01*
X163662200Y-67901800D01*
G75*
G02*
X163862200Y-68101800I0J-200000D01*
G01*
G37*
G36*
G01*
X165512200Y-68101800D02*
X165512200Y-68651800D01*
G75*
G02*
X165312200Y-68851800I-200000J0D01*
G01*
X164912200Y-68851800D01*
G75*
G02*
X164712200Y-68651800I0J200000D01*
G01*
X164712200Y-68101800D01*
G75*
G02*
X164912200Y-67901800I200000J0D01*
G01*
X165312200Y-67901800D01*
G75*
G02*
X165512200Y-68101800I0J-200000D01*
G01*
G37*
%TD*%
%TO.C,R1*%
G36*
G01*
X163862200Y-66425400D02*
X163862200Y-66975400D01*
G75*
G02*
X163662200Y-67175400I-200000J0D01*
G01*
X163262200Y-67175400D01*
G75*
G02*
X163062200Y-66975400I0J200000D01*
G01*
X163062200Y-66425400D01*
G75*
G02*
X163262200Y-66225400I200000J0D01*
G01*
X163662200Y-66225400D01*
G75*
G02*
X163862200Y-66425400I0J-200000D01*
G01*
G37*
G36*
G01*
X165512200Y-66425400D02*
X165512200Y-66975400D01*
G75*
G02*
X165312200Y-67175400I-200000J0D01*
G01*
X164912200Y-67175400D01*
G75*
G02*
X164712200Y-66975400I0J200000D01*
G01*
X164712200Y-66425400D01*
G75*
G02*
X164912200Y-66225400I200000J0D01*
G01*
X165312200Y-66225400D01*
G75*
G02*
X165512200Y-66425400I0J-200000D01*
G01*
G37*
%TD*%
D10*
%TO.C,D2*%
X142798800Y-72203600D03*
X142798800Y-74303600D03*
%TD*%
%TO.C,D1*%
X144881600Y-72203600D03*
X144881600Y-74303600D03*
%TD*%
%TO.C,C8*%
G36*
G01*
X147324000Y-77693400D02*
X147824000Y-77693400D01*
G75*
G02*
X148049000Y-77918400I0J-225000D01*
G01*
X148049000Y-78368400D01*
G75*
G02*
X147824000Y-78593400I-225000J0D01*
G01*
X147324000Y-78593400D01*
G75*
G02*
X147099000Y-78368400I0J225000D01*
G01*
X147099000Y-77918400D01*
G75*
G02*
X147324000Y-77693400I225000J0D01*
G01*
G37*
G36*
G01*
X147324000Y-76143400D02*
X147824000Y-76143400D01*
G75*
G02*
X148049000Y-76368400I0J-225000D01*
G01*
X148049000Y-76818400D01*
G75*
G02*
X147824000Y-77043400I-225000J0D01*
G01*
X147324000Y-77043400D01*
G75*
G02*
X147099000Y-76818400I0J225000D01*
G01*
X147099000Y-76368400D01*
G75*
G02*
X147324000Y-76143400I225000J0D01*
G01*
G37*
%TD*%
%TO.C,C7*%
G36*
G01*
X154224800Y-77043400D02*
X153724800Y-77043400D01*
G75*
G02*
X153499800Y-76818400I0J225000D01*
G01*
X153499800Y-76368400D01*
G75*
G02*
X153724800Y-76143400I225000J0D01*
G01*
X154224800Y-76143400D01*
G75*
G02*
X154449800Y-76368400I0J-225000D01*
G01*
X154449800Y-76818400D01*
G75*
G02*
X154224800Y-77043400I-225000J0D01*
G01*
G37*
G36*
G01*
X154224800Y-78593400D02*
X153724800Y-78593400D01*
G75*
G02*
X153499800Y-78368400I0J225000D01*
G01*
X153499800Y-77918400D01*
G75*
G02*
X153724800Y-77693400I225000J0D01*
G01*
X154224800Y-77693400D01*
G75*
G02*
X154449800Y-77918400I0J-225000D01*
G01*
X154449800Y-78368400D01*
G75*
G02*
X154224800Y-78593400I-225000J0D01*
G01*
G37*
%TD*%
%TO.C,LED3*%
G36*
G01*
X155090000Y-71745200D02*
X153654000Y-71745200D01*
G75*
G02*
X153572000Y-71663200I0J82000D01*
G01*
X153572000Y-71007200D01*
G75*
G02*
X153654000Y-70925200I82000J0D01*
G01*
X155090000Y-70925200D01*
G75*
G02*
X155172000Y-71007200I0J-82000D01*
G01*
X155172000Y-71663200D01*
G75*
G02*
X155090000Y-71745200I-82000J0D01*
G01*
G37*
G36*
G01*
X155090000Y-73245200D02*
X153654000Y-73245200D01*
G75*
G02*
X153572000Y-73163200I0J82000D01*
G01*
X153572000Y-72507200D01*
G75*
G02*
X153654000Y-72425200I82000J0D01*
G01*
X155090000Y-72425200D01*
G75*
G02*
X155172000Y-72507200I0J-82000D01*
G01*
X155172000Y-73163200D01*
G75*
G02*
X155090000Y-73245200I-82000J0D01*
G01*
G37*
G36*
G01*
X160290000Y-71745200D02*
X158854000Y-71745200D01*
G75*
G02*
X158772000Y-71663200I0J82000D01*
G01*
X158772000Y-71007200D01*
G75*
G02*
X158854000Y-70925200I82000J0D01*
G01*
X160290000Y-70925200D01*
G75*
G02*
X160372000Y-71007200I0J-82000D01*
G01*
X160372000Y-71663200D01*
G75*
G02*
X160290000Y-71745200I-82000J0D01*
G01*
G37*
G36*
G01*
X160290000Y-73245200D02*
X158854000Y-73245200D01*
G75*
G02*
X158772000Y-73163200I0J82000D01*
G01*
X158772000Y-72507200D01*
G75*
G02*
X158854000Y-72425200I82000J0D01*
G01*
X160290000Y-72425200D01*
G75*
G02*
X160372000Y-72507200I0J-82000D01*
G01*
X160372000Y-73163200D01*
G75*
G02*
X160290000Y-73245200I-82000J0D01*
G01*
G37*
%TD*%
%TO.C,LED2*%
G36*
G01*
X162169200Y-85905200D02*
X162169200Y-87341200D01*
G75*
G02*
X162087200Y-87423200I-82000J0D01*
G01*
X161431200Y-87423200D01*
G75*
G02*
X161349200Y-87341200I0J82000D01*
G01*
X161349200Y-85905200D01*
G75*
G02*
X161431200Y-85823200I82000J0D01*
G01*
X162087200Y-85823200D01*
G75*
G02*
X162169200Y-85905200I0J-82000D01*
G01*
G37*
G36*
G01*
X163669200Y-85905200D02*
X163669200Y-87341200D01*
G75*
G02*
X163587200Y-87423200I-82000J0D01*
G01*
X162931200Y-87423200D01*
G75*
G02*
X162849200Y-87341200I0J82000D01*
G01*
X162849200Y-85905200D01*
G75*
G02*
X162931200Y-85823200I82000J0D01*
G01*
X163587200Y-85823200D01*
G75*
G02*
X163669200Y-85905200I0J-82000D01*
G01*
G37*
G36*
G01*
X162169200Y-80705200D02*
X162169200Y-82141200D01*
G75*
G02*
X162087200Y-82223200I-82000J0D01*
G01*
X161431200Y-82223200D01*
G75*
G02*
X161349200Y-82141200I0J82000D01*
G01*
X161349200Y-80705200D01*
G75*
G02*
X161431200Y-80623200I82000J0D01*
G01*
X162087200Y-80623200D01*
G75*
G02*
X162169200Y-80705200I0J-82000D01*
G01*
G37*
G36*
G01*
X163669200Y-80705200D02*
X163669200Y-82141200D01*
G75*
G02*
X163587200Y-82223200I-82000J0D01*
G01*
X162931200Y-82223200D01*
G75*
G02*
X162849200Y-82141200I0J82000D01*
G01*
X162849200Y-80705200D01*
G75*
G02*
X162931200Y-80623200I82000J0D01*
G01*
X163587200Y-80623200D01*
G75*
G02*
X163669200Y-80705200I0J-82000D01*
G01*
G37*
%TD*%
%TO.C,F1*%
G36*
G01*
X163997800Y-76187000D02*
X162747800Y-76187000D01*
G75*
G02*
X162497800Y-75937000I0J250000D01*
G01*
X162497800Y-75187000D01*
G75*
G02*
X162747800Y-74937000I250000J0D01*
G01*
X163997800Y-74937000D01*
G75*
G02*
X164247800Y-75187000I0J-250000D01*
G01*
X164247800Y-75937000D01*
G75*
G02*
X163997800Y-76187000I-250000J0D01*
G01*
G37*
G36*
G01*
X163997800Y-78987000D02*
X162747800Y-78987000D01*
G75*
G02*
X162497800Y-78737000I0J250000D01*
G01*
X162497800Y-77987000D01*
G75*
G02*
X162747800Y-77737000I250000J0D01*
G01*
X163997800Y-77737000D01*
G75*
G02*
X164247800Y-77987000I0J-250000D01*
G01*
X164247800Y-78737000D01*
G75*
G02*
X163997800Y-78987000I-250000J0D01*
G01*
G37*
%TD*%
%TO.C,LED1*%
G36*
G01*
X155242400Y-95621200D02*
X153806400Y-95621200D01*
G75*
G02*
X153724400Y-95539200I0J82000D01*
G01*
X153724400Y-94883200D01*
G75*
G02*
X153806400Y-94801200I82000J0D01*
G01*
X155242400Y-94801200D01*
G75*
G02*
X155324400Y-94883200I0J-82000D01*
G01*
X155324400Y-95539200D01*
G75*
G02*
X155242400Y-95621200I-82000J0D01*
G01*
G37*
G36*
G01*
X155242400Y-97121200D02*
X153806400Y-97121200D01*
G75*
G02*
X153724400Y-97039200I0J82000D01*
G01*
X153724400Y-96383200D01*
G75*
G02*
X153806400Y-96301200I82000J0D01*
G01*
X155242400Y-96301200D01*
G75*
G02*
X155324400Y-96383200I0J-82000D01*
G01*
X155324400Y-97039200D01*
G75*
G02*
X155242400Y-97121200I-82000J0D01*
G01*
G37*
G36*
G01*
X160442400Y-95621200D02*
X159006400Y-95621200D01*
G75*
G02*
X158924400Y-95539200I0J82000D01*
G01*
X158924400Y-94883200D01*
G75*
G02*
X159006400Y-94801200I82000J0D01*
G01*
X160442400Y-94801200D01*
G75*
G02*
X160524400Y-94883200I0J-82000D01*
G01*
X160524400Y-95539200D01*
G75*
G02*
X160442400Y-95621200I-82000J0D01*
G01*
G37*
G36*
G01*
X160442400Y-97121200D02*
X159006400Y-97121200D01*
G75*
G02*
X158924400Y-97039200I0J82000D01*
G01*
X158924400Y-96383200D01*
G75*
G02*
X159006400Y-96301200I82000J0D01*
G01*
X160442400Y-96301200D01*
G75*
G02*
X160524400Y-96383200I0J-82000D01*
G01*
X160524400Y-97039200D01*
G75*
G02*
X160442400Y-97121200I-82000J0D01*
G01*
G37*
%TD*%
D11*
%TO.C,USB1*%
X158240800Y-68510200D03*
X157440800Y-68510200D03*
X152540800Y-68510200D03*
X151740800Y-68510200D03*
X151740800Y-68510200D03*
X152540800Y-68510200D03*
X157440800Y-68510200D03*
X158240800Y-68510200D03*
D12*
X153240800Y-68510200D03*
X153740800Y-68510200D03*
X154240800Y-68510200D03*
X155240800Y-68510200D03*
X155740800Y-68510200D03*
X156240800Y-68510200D03*
X156740800Y-68510200D03*
X154740800Y-68510200D03*
%TD*%
D13*
%TO.C,U1*%
X143120800Y-85338000D03*
X143120800Y-86138000D03*
X143120800Y-86938000D03*
X143120800Y-87738000D03*
X143120800Y-88538000D03*
X143120800Y-89338000D03*
X143120800Y-90138000D03*
X143120800Y-90938000D03*
D14*
X144570800Y-92388000D03*
X145370800Y-92388000D03*
X146170800Y-92388000D03*
X146970800Y-92388000D03*
X147770800Y-92388000D03*
X148570800Y-92388000D03*
X149370800Y-92388000D03*
X150170800Y-92388000D03*
D13*
X151620800Y-90938000D03*
X151620800Y-90138000D03*
X151620800Y-89338000D03*
X151620800Y-88538000D03*
X151620800Y-87738000D03*
X151620800Y-86938000D03*
X151620800Y-86138000D03*
X151620800Y-85338000D03*
D14*
X150170800Y-83888000D03*
X149370800Y-83888000D03*
X148570800Y-83888000D03*
X147770800Y-83888000D03*
X146970800Y-83888000D03*
X146170800Y-83888000D03*
X145370800Y-83888000D03*
X144570800Y-83888000D03*
%TD*%
D15*
%TO.C,X1*%
X151874400Y-76518400D03*
X149674400Y-76518400D03*
X149674400Y-78218400D03*
X151874400Y-78218400D03*
%TD*%
D16*
%TO.C,U2*%
G36*
X145156441Y-69263660D02*
G01*
X145616060Y-68804041D01*
X146365593Y-69553574D01*
X145905974Y-70013193D01*
X145156441Y-69263660D01*
G37*
G36*
X144484690Y-69935412D02*
G01*
X144944309Y-69475793D01*
X145693842Y-70225326D01*
X145234223Y-70684945D01*
X144484690Y-69935412D01*
G37*
G36*
X145828193Y-68591909D02*
G01*
X146287812Y-68132290D01*
X147037345Y-68881823D01*
X146577726Y-69341442D01*
X145828193Y-68591909D01*
G37*
G36*
X144272558Y-67036274D02*
G01*
X144732177Y-66576655D01*
X145481710Y-67326188D01*
X145022091Y-67785807D01*
X144272558Y-67036274D01*
G37*
G36*
X143600807Y-67708026D02*
G01*
X144060426Y-67248407D01*
X144809959Y-67997940D01*
X144350340Y-68457559D01*
X143600807Y-67708026D01*
G37*
G36*
X142929055Y-68379777D02*
G01*
X143388674Y-67920158D01*
X144138207Y-68669691D01*
X143678588Y-69129310D01*
X142929055Y-68379777D01*
G37*
%TD*%
M02*
